SplineFontDB: 3.2
FontName: mononoki-Regular
FullName: mononoki Regular
FamilyName: mononoki
Weight: Regular
Version: 1.1
ItalicAngle: 0
UnderlinePosition: 0
UnderlineWidth: 0
Ascent: 819
Descent: 205
InvalidEm: 1
UFOAscent: 750
UFODescent: -250
LayerCount: 2
Layer: 0 0 "Back" 1
Layer: 1 0 "Fore" 0
StyleMap: 0x0040
FSType: 0
OS2Version: 0
OS2_WeightWidthSlopeOnly: 0
OS2_UseTypoMetrics: 0
CreationTime: 1593379938
ModificationTime: 1593468258
PfmFamily: 16
TTFWeight: 400
TTFWidth: 5
LineGap: 0
VLineGap: 0
OS2TypoAscent: 0
OS2TypoAOffset: 1
OS2TypoDescent: 0
OS2TypoDOffset: 1
OS2TypoLinegap: 0
OS2WinAscent: 900
OS2WinAOffset: 0
OS2WinDescent: 250
OS2WinDOffset: 0
HheadAscent: 0
HheadAOffset: 1
HheadDescent: 0
HheadDOffset: 1
OS2CapHeight: 700
OS2XHeight: 500
OS2Vendor: 'PfEd'
DEI: 91125
LangName: 1033 "" "" "" "" "" "" "" "" "" "Matthias Tellen" "" "" "" "" "" "" "mononoki" "Regular"
PickledDataWithLists: "(dp0
VGSDimensionPlugin.Dimensions
p1
(dp2
V8A9476DE-11F4-4864-A7B4-14D9B7165FAE
p3
(dp4
VHV
p5
I240
ssVA14B1AE3-86D5-4EA7-AE2F-7B4FA04DAB2E
p6
(dp7
ssVcom.schriftgestaltung.disablesAutomaticAlignment
p8
I01
sVcom.schriftgestaltung.fontMaster.userData
p9
(dp10
VGSCornerRadius
p11
I25
sVGSOffsetHorizontal
p12
F42.5
sVGSOffsetMakeStroke
p13
I1
sVGSOffsetPosition
p14
I1
sVGSOffsetVertical
p15
I39
ssVcom.schriftgestaltung.fontMasterID
p16
VA14B1AE3-86D5-4EA7-AE2F-7B4FA04DAB2E
p17
sVcom.schriftgestaltung.glyphOrder
p18
I00
sVcom.schriftgestaltung.useNiceNames
p19
I00
sVcom.typemytype.robofont.layerOrder
p20
(lp21
Vbackground
p22
asVpublic.glyphOrder
p23
(lp24
VA
p25
aVAacute
p26
aVAbreve
p27
aVAcircumflex
p28
aVAdieresis
p29
aVAgrave
p30
aVAmacron
p31
aVAogonek
p32
aVAring
p33
aVAtilde
p34
aVAE
p35
aVB
p36
aVC
p37
aVCacute
p38
aVCcaron
p39
aVCcedilla
p40
aVCcircumflex
p41
aVD
p42
aVEth
p43
aVDcaron
p44
aVDcroat
p45
aVE
p46
aVEacute
p47
aVEcaron
p48
aVEcircumflex
p49
aVEdieresis
p50
aVEdotaccent
p51
aVEgrave
p52
aVEmacron
p53
aVEogonek
p54
aVF
p55
aVG
p56
aVGcircumflex

StartChar: .notdef
Encoding: 65536 -1 0
GlifName: _notdef
Width: 575
VWidth: 0
Flags: W
LayerCount: 2
Fore
SplineSet
92 700 m 258
 76 700 67 691 67 675 c 258
 67 25 l 258
 67 9 76 0 92 0 c 258
 483 0 l 258
 500 0 508 9 508 25 c 258
 508 675 l 258
 508 692 500 700 483 700 c 258
 92 700 l 258
439 651 m 257
 288 395 l 257
 137 651 l 257
 439 651 l 257
116 596 m 257
 261 350 l 257
 116 105 l 257
 116 596 l 257
288 306 m 257
 439 49 l 257
 137 49 l 257
 288 306 l 257
314 350 m 257
 460 596 l 257
 460 105 l 257
 314 350 l 257
EndSplineSet
PickledDataWithLists: "(dp0
Vcom.schriftgestaltung.Glyphs.lastChange
p1
V2015-12-22 16:32:54 +0000
p2
s."
EndChar

StartChar: A
Encoding: 65 65 1
GlifName: A_
Width: 575
VWidth: 0
Flags: W
AnchorPoint: "ogonek" 517 10 basechar 0
AnchorPoint: "top" 288 700 basechar 0
LayerCount: 2
Fore
SplineSet
410 621 m 258
 396 679 347 710 288 710 c 256
 229 710 180 679 165 621 c 258
 17 28 l 258
 13 11 21 0 39 0 c 258
 74 0 l 258
 89 0 98 7 102 22 c 258
 152 220 l 257
 424 220 l 257
 473 22 l 258
 477 7 486 0 501 0 c 258
 537 0 l 258
 554 0 562 11 558 28 c 258
 410 621 l 258
249 607 m 258
 253 625 271 634 288 634 c 256
 305 634 323 625 327 607 c 258
 405 296 l 257
 171 296 l 257
 249 607 l 258
EndSplineSet
PickledDataWithLists: "(dp0
Vcom.schriftgestaltung.Glyphs.lastChange
p1
V2016-06-09 18:44:34 +0000
p2
s."
EndChar

StartChar: A.hex
Encoding: 65537 -1 2
GlifName: A_.hex
Width: 575
VWidth: 0
Flags: W
AnchorPoint: "ogonek" 517 10 basechar 0
AnchorPoint: "top" 288 700 basechar 0
LayerCount: 2
Fore
SplineSet
114 875 m 258
 114 891 105 900 89 900 c 258
 54 900 l 258
 38 900 29 891 29 875 c 258
 29 829 l 258
 29 813 37 804 54 804 c 258
 89 804 l 258
 105 804 114 812 114 829 c 258
 114 875 l 258
402 875 m 258
 402 891 393 900 377 900 c 258
 342 900 l 258
 326 900 317 891 317 875 c 258
 317 829 l 258
 317 813 325 804 342 804 c 258
 377 804 l 258
 393 804 402 812 402 829 c 258
 402 875 l 258
410 621 m 258
 396 679 347 710 288 710 c 256
 229 710 180 679 165 621 c 258
 17 28 l 258
 13 11 21 0 39 0 c 258
 74 0 l 258
 89 0 99 7 102 22 c 257
 152 220 l 257
 424 220 l 257
 473 22 l 258
 477 7 486 0 501 0 c 258
 537 0 l 258
 554 0 563 11 558 28 c 257
 410 621 l 258
249 607 m 258
 253 625 271 634 288 634 c 256
 305 634 323 625 327 607 c 258
 405 296 l 257
 171 296 l 257
 249 607 l 258
EndSplineSet
PickledDataWithLists: "(dp0
Vcom.schriftgestaltung.Glyphs.lastChange
p1
V2016-06-09 18:35:33 +0000
p2
s."
EndChar

StartChar: AE
Encoding: 198 198 3
GlifName: A_E_
Width: 575
VWidth: 0
Flags: W
LayerCount: 2
Fore
SplineSet
373 77 m 257
 373 326 l 257
 475 326 l 258
 491 326 500 335 500 351 c 258
 500 378 l 258
 500 394 491 403 475 403 c 258
 373 403 l 257
 373 624 l 257
 482 624 l 258
 498 624 507 632 507 649 c 258
 507 675 l 258
 507 692 498 700 482 700 c 258
 288 700 l 258
 223 700 180 679 165 621 c 258
 17 28 l 258
 13 11 21 0 39 0 c 258
 74 0 l 258
 89 0 99 7 102 22 c 257
 139 170 l 257
 288 170 l 257
 288 25 l 258
 288 9 297 0 313 0 c 258
 493 0 l 258
 510 0 518 9 518 25 c 258
 518 52 l 258
 518 68 510 77 493 77 c 258
 373 77 l 257
288 246 m 257
 158 246 l 257
 249 607 l 258
 253 624 267 634 288 634 c 257
 288 246 l 257
EndSplineSet
PickledDataWithLists: "(dp0
Vcom.schriftgestaltung.Glyphs.lastChange
p1
V2016-06-09 18:35:33 +0000
p2
s."
EndChar

StartChar: B
Encoding: 66 66 14
GlifName: B_
Width: 575
VWidth: 0
Flags: W
LayerCount: 2
Fore
SplineSet
102 25 m 258
 102 9 111 0 127 0 c 258
 264 0 l 258
 424 0 513 96 513 196 c 256
 513 271 463 341 382 370 c 257
 430 395 473 453 473 521 c 256
 473 606 406 700 244 700 c 258
 64 700 l 258
 47 700 39 691 39 675 c 258
 39 649 l 258
 39 633 47 624 64 624 c 258
 102 624 l 257
 102 25 l 258
187 624 m 257
 244 624 l 258
 354 624 398 564 398 511 c 256
 398 452 344 403 244 403 c 258
 187 403 l 257
 187 624 l 257
187 77 m 257
 187 326 l 257
 264 326 l 258
 380 326 437 263 437 201 c 256
 437 139 380 77 264 77 c 258
 187 77 l 257
EndSplineSet
PickledDataWithLists: "(dp0
Vcom.schriftgestaltung.Glyphs.lastChange
p1
V2016-06-09 18:35:33 +0000
p2
s."
EndChar

StartChar: B.hex
Encoding: 65538 -1 15
GlifName: B_.hex
Width: 575
VWidth: 0
Flags: W
LayerCount: 2
Fore
SplineSet
114 875 m 258
 114 891 105 900 89 900 c 258
 54 900 l 258
 38 900 29 891 29 875 c 258
 29 829 l 258
 29 813 37 804 54 804 c 258
 89 804 l 258
 105 804 114 812 114 829 c 258
 114 875 l 258
402 875 m 258
 402 891 393 900 377 900 c 258
 342 900 l 258
 326 900 317 891 317 875 c 258
 317 829 l 258
 317 813 325 804 342 804 c 258
 377 804 l 258
 393 804 402 812 402 829 c 258
 402 875 l 258
546 875 m 258
 546 891 537 900 521 900 c 258
 486 900 l 258
 470 900 461 891 461 875 c 258
 461 829 l 258
 461 813 469 804 486 804 c 258
 521 804 l 258
 537 804 546 812 546 829 c 258
 546 875 l 258
102 25 m 258
 102 9 111 0 127 0 c 258
 264 0 l 258
 424 0 513 96 513 196 c 256
 513 271 463 341 382 370 c 257
 430 395 473 453 473 521 c 256
 473 606 406 700 244 700 c 258
 64 700 l 258
 47 700 39 691 39 675 c 258
 39 649 l 258
 39 633 47 624 64 624 c 258
 102 624 l 257
 102 25 l 258
187 624 m 257
 244 624 l 258
 354 624 398 564 398 511 c 256
 398 452 344 403 244 403 c 258
 187 403 l 257
 187 624 l 257
187 77 m 257
 187 326 l 257
 264 326 l 258
 380 326 437 263 437 201 c 256
 437 139 380 77 264 77 c 258
 187 77 l 257
EndSplineSet
PickledDataWithLists: "(dp0
Vcom.schriftgestaltung.Glyphs.lastChange
p1
V2016-06-09 18:35:33 +0000
p2
s."
EndChar

StartChar: C
Encoding: 67 67 17
GlifName: C_
Width: 575
VWidth: 0
Flags: W
AnchorPoint: "top" 288 700 basechar 0
AnchorPoint: "bottom" 328 0 basechar 0
LayerCount: 2
Fore
SplineSet
449 91 m 256
 405 75 369 68 338 68 c 256
 259 68 171 114 171 310 c 258
 171 390 l 258
 171 586 259 632 338 632 c 256
 369 632 405 625 449 609 c 256
 464 603 475 608 481 623 c 258
 491 647 l 258
 497 662 493 674 478 680 c 256
 431 700 385 710 340 710 c 256
 222 710 85 640 85 390 c 258
 85 310 l 258
 85 60 222 -10 340 -10 c 256
 385 -10 431 0 478 20 c 256
 493 26 497 38 491 53 c 258
 481 77 l 258
 475 92 464 97 449 91 c 256
  PathStart: -2
EndSplineSet
PickledDataWithLists: "(dp0
Vcom.schriftgestaltung.Glyphs.lastChange
p1
V2016-06-09 18:35:33 +0000
p2
sVcom.typemytype.robofont.layerData
p3
(dp4
VRegular Jan 11 15, 19:10
p5
(dp6
Vanchors
p7
(lp8
(dp9
Vname
p10
Vtop
p11
sVx
p12
I288
sVy
p13
I700
sa(dp14
g10
Vbottom
p15
sg12
I288
sg13
I0
sasVcomponents
p16
(lp17
sVcontours
p18
(lp19
(dp20
Vpoints
p21
(lp22
(dp23
VsegmentType
p24
Vline
p25
sVsmooth
p26
I01
sg12
I519
sg13
I668
sa(dp27
g26
I00
sg12
I522
sg13
I684
sa(dp28
g26
I00
sg12
I516
sg13
I694
sa(dp29
g24
Vcurve
p30
sg26
I01
sg12
I499
sg13
I697
sa(dp31
g26
I00
sg12
I438
sg13
I708
sa(dp32
g26
I00
sg12
I384
sg13
I710
sa(dp33
g24
Vcurve
p34
sg26
I01
sg12
I351
sg13
I710
sa(dp35
g26
I00
sg12
I99
sg13
I710
sa(dp36
g26
I00
sg12
I85
sg13
I524
sa(dp37
g24
Vcurve
p38
sg26
I01
sg12
I85
sg13
I370
sa(dp39
g24
Vline
p40
sg26
I01
sg12
I85
sg13
I330
sa(dp41
g26
I00
sg12
I85
sg13
I178
sa(dp42
g26
I00
sg12
I99
sg13
I-10
sa(dp43
g24
Vcurve
p44
sg26
I01
sg12
I351
sg13
I-10
sa(dp45
g26
I00
sg12
I382
sg13
I-10
sa(dp46
g26
I00
sg12
I435
sg13
I-9
sa(dp47
g24
Vcurve
p48
sg26
I01
sg12
I499
sg13
I3
sa(dp49
g26
I00
sg12
I516
sg13
I6
sa(dp50
g26
I00
sg12
I522
sg13
I17
sa(dp51
g24
Vcurve
p52
sg26
I01
sg12
I519
sg13
I33
sa(dp53
g24
Vline
p54
sg26
I01
sg12
I513
sg13
I59
sa(dp55
g26
I00
sg12
I509
sg13
I75
sa(dp56
g26
I00
sg12
I499
sg13
I81
sa(dp57
g24
Vcurve
p58
sg26
I01
sg12
I483
sg13
I78
sa(dp59
g26
I00
sg12
I428
sg13
I69
sa(dp60
g26
I00
sg12
I379
sg13
I67
sa(dp61
g24
Vcurve
p62
sg26
I01
sg12
I351
sg13
I67
sa(dp63
g26
I00
sg12
I214
sg13
I67
sa(dp64
g26
I00
sg12
I170
sg13
I130
sa(dp65
g24
Vcurve
p66
sg26
I01
sg12
I170
sg13
I330
sa(dp67
g24
Vline
p68
sg26
I01
sg12
I170
sg13
I371
sa(dp69
g26
I00
sg12
I170
sg13
I520
sa(dp70
g26
I00
sg12
I179
sg13
I634
sa(dp71
g24
Vcurve
p72
sg26
I01
sg12
I351
sg13
I634
sa(dp73
g26
I00
sg12
I376
sg13
I634
sa(dp74
g26
I00
sg12
I426
sg13
I632
sa(dp75
g24
Vcurve
p76
sg26
I01
sg12
I483
sg13
I622
sa(dp77
g26
I00
sg12
I499
sg13
I619
sa(dp78
g26
I00
sg12
I509
sg13
I626
sa(dp79
g24
Vcurve
p80
sg26
I01
sg12
I513
sg13
I641
sasasVlib
p81
(dp82
sg10
VC
p83
sVunicodes
p84
(lp85
sVwidth
p86
I575
ssVbackground
p87
(dp88
g7
(lp89
(dp90
g10
Vtop
p91
sg12
I288
sg13
I700
sasg16
(lp92
sg18
(lp93
(dp94
g21
(lp95
(dp96
g24
Vline
p97
sg26
I01
sg12
I85
sg13
I243
sa(dp98
g26
I00
sg12
I85
sg13
I99
sa(dp99
g26
I00
sg12
I144
sg13
I-10
sa(dp100
g24
Vcurve
p101
sg26
I01
sg12
I288
sg13
I-10
sa(dp102
g26
I00
sg12
I429
sg13
I-10
sa(dp103
g26
I00
sg12
I490
sg13
I97
sa(dp104
g24
Vcurve
p105
sg26
I01
sg12
I490
sg13
I243
sa(dp106
g24
Vline
p107
sg26
I01
sg12
I490
sg13
I457
sa(dp108
g26
I00
sg12
I490
sg13
I602
sa(dp109
g26
I00
sg12
I431
sg13
I710
sa(dp110
g24
Vcurve
p111
sg26
I01
sg12
I288
sg13
I710
sa(dp112
g26
I00
sg12
I146
sg13
I710
sa(dp113
g26
I00
sg12
I85
sg13
I604
sa(dp114
g24
Vcurve
p115
sg26
I01
sg12
I85
sg13
I457
sasa(dp116
g21
(lp117
(dp118
g24
Vline
p119
sg26
I01
sg12
I405
sg13
I243
sa(dp120
g26
I00
sg12
I405
sg13
I151
sa(dp121
g26
I00
sg12
I380
sg13
I67
sa(dp122
g24
Vcurve
p123
sg26
I01
sg12
I288
sg13
I67
sa(dp124
g26
I00
sg12
I196
sg13
I67
sa(dp125
g26
I00
sg12
I170
sg13
I151
sa(dp126
g24
Vcurve
p127
sg26
I01
sg12
I170
sg13
I243
sa(dp128
g24
Vline
p129
sg26
I01
sg12
I170
sg13
I457
sa(dp130
g26
I00
sg12
I170
sg13
I549
sa(dp131
g26
I00
sg12
I196
sg13
I634
sa(dp132
g24
Vcurve
p133
sg26
I01
sg12
I288
sg13
I634
sa(dp134
g26
I00
sg12
I380
sg13
I634
sa(dp135
g26
I00
sg12
I405
sg13
I549
sa(dp136
g24
Vcurve
p137
sg26
I01
sg12
I405
sg13
I457
sasasg81
(dp138
sg10
g83
sg84
(lp139
sg86
I575
sss."
EndChar

StartChar: C.hex
Encoding: 65539 -1 18
GlifName: C_.hex
Width: 575
VWidth: 0
Flags: W
AnchorPoint: "top" 288 700 basechar 0
AnchorPoint: "bottom" 328 0 basechar 0
LayerCount: 2
Fore
SplineSet
114 875 m 258
 114 891 105 900 89 900 c 258
 54 900 l 258
 38 900 29 891 29 875 c 258
 29 819 l 258
 29 803 37 794 54 794 c 258
 89 794 l 258
 105 794 114 802 114 819 c 258
 114 875 l 258
258 875 m 258
 258 891 249 900 233 900 c 258
 198 900 l 258
 182 900 173 891 173 875 c 258
 173 829 l 258
 173 813 181 804 198 804 c 258
 233 804 l 258
 249 804 258 812 258 829 c 258
 258 875 l 258
449 91 m 256
 405 75 369 68 338 68 c 256
 259 68 171 114 171 310 c 258
 171 390 l 258
 171 586 259 632 338 632 c 256
 369 632 405 625 449 609 c 256
 464 603 475 608 481 623 c 258
 491 647 l 258
 497 662 493 674 478 680 c 256
 431 700 385 710 340 710 c 256
 222 710 85 640 85 390 c 258
 85 310 l 258
 85 60 222 -10 340 -10 c 256
 385 -10 431 0 478 20 c 256
 493 26 497 38 491 53 c 258
 481 77 l 258
 475 92 464 97 449 91 c 256
  PathStart: -2
EndSplineSet
PickledDataWithLists: "(dp0
Vcom.schriftgestaltung.Glyphs.lastChange
p1
V2016-06-09 18:35:33 +0000
p2
s."
EndChar

StartChar: D
Encoding: 68 68 24
GlifName: D_
Width: 575
VWidth: 0
Flags: W
AnchorPoint: "center" 288 350 basechar 0
AnchorPoint: "top" 288 700 basechar 0
LayerCount: 2
Fore
SplineSet
64 700 m 258
 47 700 39 691 39 675 c 258
 39 649 l 258
 39 633 47 624 64 624 c 258
 102 624 l 257
 102 25 l 258
 102 9 111 0 127 0 c 258
 183 0 l 258
 434 0 517 102 517 330 c 258
 517 370 l 258
 517 631 393 700 144 700 c 258
 64 700 l 258
432 330 m 258
 432 147 360 77 187 77 c 257
 187 623 l 257
 367 623 432 536 432 370 c 258
 432 330 l 258
EndSplineSet
PickledDataWithLists: "(dp0
Vcom.schriftgestaltung.Glyphs.lastChange
p1
V2016-06-09 18:46:00 +0000
p2
s."
EndChar

StartChar: D.hex
Encoding: 65540 -1 25
GlifName: D_.hex
Width: 575
VWidth: 0
Flags: W
AnchorPoint: "center" 288 350 basechar 0
AnchorPoint: "top" 288 700 basechar 0
LayerCount: 2
Fore
SplineSet
114 875 m 258
 114 891 105 900 89 900 c 258
 54 900 l 258
 38 900 29 891 29 875 c 258
 29 829 l 258
 29 813 37 804 54 804 c 258
 89 804 l 258
 105 804 114 812 114 829 c 258
 114 875 l 258
258 875 m 258
 258 891 249 900 233 900 c 258
 198 900 l 258
 182 900 173 891 173 875 c 258
 173 829 l 258
 173 813 181 804 198 804 c 258
 233 804 l 258
 249 804 258 812 258 829 c 258
 258 875 l 258
546 875 m 258
 546 891 537 900 521 900 c 258
 486 900 l 258
 470 900 461 891 461 875 c 258
 461 829 l 258
 461 813 469 804 486 804 c 258
 521 804 l 258
 537 804 546 812 546 829 c 258
 546 875 l 258
64 700 m 258
 47 700 39 691 39 675 c 258
 39 649 l 258
 39 633 47 624 64 624 c 258
 102 624 l 257
 102 25 l 258
 102 9 111 0 127 0 c 258
 183 0 l 258
 434 0 517 102 517 330 c 258
 517 370 l 258
 517 631 393 700 144 700 c 258
 64 700 l 258
432 330 m 258
 432 147 360 77 187 77 c 257
 187 623 l 257
 367 618 432 536 432 370 c 258
 432 330 l 258
EndSplineSet
PickledDataWithLists: "(dp0
Vcom.schriftgestaltung.Glyphs.lastChange
p1
V2016-06-09 18:35:33 +0000
p2
s."
EndChar

StartChar: E
Encoding: 69 69 28
GlifName: E_
Width: 575
VWidth: 0
Flags: W
AnchorPoint: "ogonek" 518 1 basechar 0
AnchorPoint: "bottom" 288 0 basechar 0
AnchorPoint: "top" 288 700 basechar 0
LayerCount: 2
Fore
SplineSet
170 77 m 257
 170 326 l 257
 448 326 l 258
 464 326 473 335 473 351 c 258
 473 378 l 258
 473 394 464 403 448 403 c 258
 170 403 l 257
 170 624 l 257
 469 624 l 258
 485 624 494 632 494 649 c 258
 494 675 l 258
 494 692 485 700 469 700 c 258
 110 700 l 258
 94 700 85 691 85 675 c 258
 85 25 l 258
 85 9 94 0 110 0 c 258
 491 0 l 258
 507 0 516 9 516 25 c 258
 516 52 l 258
 516 68 507 77 491 77 c 258
 170 77 l 257
EndSplineSet
PickledDataWithLists: "(dp0
Vcom.schriftgestaltung.Glyphs.lastChange
p1
V2016-06-09 18:35:33 +0000
p2
s."
EndChar

StartChar: E.hex
Encoding: 65541 -1 29
GlifName: E_.hex
Width: 575
VWidth: 0
Flags: W
AnchorPoint: "ogonek" 518 1 basechar 0
AnchorPoint: "bottom" 288 0 basechar 0
AnchorPoint: "top" 288 700 basechar 0
LayerCount: 2
Fore
SplineSet
114 875 m 258
 113 891 105 900 89 900 c 258
 54 900 l 258
 38 900 28 891 29 875 c 258
 31 829 l 258
 32 813 39 804 56 804 c 258
 91 804 l 258
 107 804 117 812 116 829 c 258
 114 875 l 258
258 875 m 258
 258 891 249 900 233 900 c 258
 198 900 l 258
 182 900 173 891 173 875 c 258
 173 829 l 258
 173 813 181 804 198 804 c 258
 233 804 l 258
 249 804 258 812 258 829 c 258
 258 875 l 258
402 875 m 258
 402 891 393 900 377 900 c 258
 342 900 l 258
 326 900 317 891 317 875 c 258
 317 829 l 258
 317 813 325 804 342 804 c 258
 377 804 l 258
 393 804 402 812 402 829 c 258
 402 875 l 258
170 77 m 257
 170 326 l 257
 448 326 l 258
 464 326 473 335 473 351 c 258
 473 378 l 258
 473 394 464 403 448 403 c 258
 170 403 l 257
 170 624 l 257
 469 624 l 258
 485 624 494 632 494 649 c 258
 494 675 l 258
 494 692 485 700 469 700 c 258
 110 700 l 258
 94 700 85 691 85 675 c 258
 85 25 l 258
 85 9 94 0 110 0 c 258
 491 0 l 258
 507 0 516 9 516 25 c 258
 516 52 l 258
 516 68 507 77 491 77 c 258
 170 77 l 257
EndSplineSet
PickledDataWithLists: "(dp0
Vcom.schriftgestaltung.Glyphs.lastChange
p1
V2016-06-09 18:35:33 +0000
p2
s."
EndChar

StartChar: Eth
Encoding: 208 208 40
GlifName: E_th
Width: 575
VWidth: 0
Flags: W
AnchorPoint: "center" 288 350 basechar 0
AnchorPoint: "top" 288 700 basechar 0
LayerCount: 2
Fore
SplineSet
64 700 m 258
 47 700 39 691 39 675 c 258
 39 649 l 258
 39 633 47 624 64 624 c 258
 102 624 l 257
 102 389 l 257
 67 389 l 258
 51 389 42 380 42 363 c 258
 42 337 l 258
 42 321 51 312 67 312 c 258
 102 312 l 257
 102 25 l 258
 102 9 111 0 127 0 c 258
 183 0 l 258
 434 0 517 102 517 330 c 258
 517 370 l 258
 517 631 393 700 144 700 c 258
 64 700 l 258
187 77 m 257
 187 312 l 257
 290 312 l 258
 306 312 315 321 315 337 c 258
 315 364 l 258
 315 380 306 389 290 389 c 258
 187 389 l 257
 187 623 l 257
 367 618 432 536 432 370 c 258
 432 330 l 258
 432 147 360 77 187 77 c 257
  PathStart: -2
EndSplineSet
PickledDataWithLists: "(dp0
Vcom.schriftgestaltung.Glyphs.lastChange
p1
V2016-06-09 18:35:33 +0000
p2
s."
EndChar

StartChar: Euro
Encoding: 8364 8364 41
GlifName: E_uro
Width: 575
VWidth: 0
Flags: W
LayerCount: 2
Fore
SplineSet
448 385 m 258
 464 385 473 394 473 410 c 258
 473 431 l 258
 473 448 464 456 448 456 c 258
 171 456 l 257
 177 552 205 634 351 634 c 256
 376 634 426 632 483 622 c 256
 499 619 509 626 513 641 c 257
 519 668 l 258
 522 684 516 694 499 697 c 256
 438 708 384 710 351 710 c 256
 135 710 94 573 86 456 c 257
 68 456 l 258
 52 456 43 448 43 431 c 258
 43 410 l 258
 43 394 52 385 68 385 c 258
 448 385 l 258
483 78 m 256
 428 69 379 67 351 67 c 256
 230 67 181 116 172 244 c 257
 448 244 l 258
 464 244 473 253 473 269 c 258
 473 290 l 258
 473 307 464 315 448 315 c 258
 68 315 l 258
 52 315 43 307 43 290 c 258
 43 269 l 258
 43 253 52 244 68 244 c 258
 86 244 l 257
 93 130 133 -10 351 -10 c 256
 382 -10 435 -9 499 3 c 256
 516 6 522 17 519 33 c 257
 513 59 l 258
 509 75 499 81 483 78 c 256
  PathStart: -2
EndSplineSet
PickledDataWithLists: "(dp0
Vcom.schriftgestaltung.Glyphs.lastChange
p1
V2015-12-22 14:04:06 +0000
p2
s."
EndChar

StartChar: F
Encoding: 70 70 42
GlifName: F_
Width: 575
VWidth: 0
Flags: W
LayerCount: 2
Fore
SplineSet
110 700 m 258
 94 700 85 691 85 675 c 258
 85 25 l 258
 85 9 94 0 110 0 c 258
 145 0 l 258
 162 0 170 9 170 25 c 258
 170 292 l 257
 469 292 l 258
 485 292 494 300 494 316 c 258
 494 343 l 258
 494 359 485 368 469 368 c 258
 170 368 l 257
 170 624 l 257
 491 624 l 258
 507 624 516 632 516 649 c 258
 516 675 l 258
 516 692 507 700 491 700 c 258
 110 700 l 258
EndSplineSet
PickledDataWithLists: "(dp0
Vcom.schriftgestaltung.Glyphs.lastChange
p1
V2016-06-09 18:35:33 +0000
p2
s."
EndChar

StartChar: F.hex
Encoding: 65542 -1 43
GlifName: F_.hex
Width: 575
VWidth: 0
Flags: W
LayerCount: 2
Fore
SplineSet
140 875 m 258
 140 891 131 900 115 900 c 258
 80 900 l 258
 64 900 55 891 55 875 c 258
 55 829 l 258
 55 813 63 804 80 804 c 258
 115 804 l 258
 131 804 140 812 140 829 c 258
 140 875 l 258
264 875 m 258
 264 891 255 900 239 900 c 258
 204 900 l 258
 188 900 179 891 179 875 c 258
 179 829 l 258
 179 813 187 804 204 804 c 258
 239 804 l 258
 255 804 264 812 264 829 c 258
 264 875 l 258
388 875 m 258
 388 891 379 900 363 900 c 258
 328 900 l 258
 312 900 303 891 303 875 c 258
 303 829 l 258
 303 813 311 804 328 804 c 258
 363 804 l 258
 379 804 388 812 388 829 c 258
 388 875 l 258
512 875 m 258
 512 891 503 900 487 900 c 258
 452 900 l 258
 436 900 427 891 427 875 c 258
 427 829 l 258
 427 813 435 804 452 804 c 258
 487 804 l 258
 503 804 512 812 512 829 c 258
 512 875 l 258
110 700 m 258
 94 700 85 691 85 675 c 258
 85 25 l 258
 85 9 94 0 110 0 c 258
 145 0 l 258
 162 0 170 9 170 25 c 258
 170 292 l 257
 469 292 l 258
 485 292 494 300 494 316 c 258
 494 343 l 258
 494 359 485 368 469 368 c 258
 170 368 l 257
 170 624 l 257
 491 624 l 258
 507 624 516 632 516 649 c 258
 516 675 l 258
 516 692 507 700 491 700 c 258
 110 700 l 258
EndSplineSet
PickledDataWithLists: "(dp0
Vcom.schriftgestaltung.Glyphs.lastChange
p1
V2016-06-09 18:35:33 +0000
p2
s."
EndChar

StartChar: G
Encoding: 71 71 44
GlifName: G_
Width: 575
VWidth: 0
Flags: W
AnchorPoint: "top" 288 700 basechar 0
AnchorPoint: "bottom" 328 0 basechar 0
LayerCount: 2
Fore
SplineSet
343 399 m 258
 327 399 318 390 318 373 c 258
 318 347 l 258
 318 331 326 322 343 322 c 258
 415 322 l 257
 415 80 l 257
 386 72 360 68 338 68 c 256
 259 68 171 114 171 310 c 258
 171 390 l 258
 171 586 259 632 338 632 c 256
 369 632 405 625 449 609 c 256
 464 603 475 608 481 623 c 258
 491 647 l 258
 497 662 493 674 478 680 c 256
 431 700 385 710 340 710 c 256
 222 710 85 640 85 390 c 258
 85 310 l 258
 85 60 222 -10 340 -10 c 256
 385 -10 432 0 481 21 c 256
 494 27 500 37 500 51 c 258
 500 374 l 258
 500 390 491 399 475 399 c 258
 343 399 l 258
EndSplineSet
PickledDataWithLists: "(dp0
Vcom.schriftgestaltung.Glyphs.lastChange
p1
V2016-06-09 18:35:33 +0000
p2
sVcom.typemytype.robofont.layerData
p3
(dp4
VRegular Jan 11 15, 19:29
p5
(dp6
Vanchors
p7
(lp8
(dp9
Vname
p10
Vtop
p11
sVx
p12
I288
sVy
p13
I700
sa(dp14
g10
Vbottom
p15
sg12
I288
sg13
I0
sasVcomponents
p16
(lp17
sVcontours
p18
(lp19
(dp20
Vpoints
p21
(lp22
(dp23
VsegmentType
p24
Vline
p25
sVsmooth
p26
I01
sg12
I85
sg13
I330
sa(dp27
g26
I00
sg12
I85
sg13
I178
sa(dp28
g26
I00
sg12
I100
sg13
I-10
sa(dp29
g24
Vcurve
p30
sg26
I01
sg12
I351
sg13
I-10
sa(dp31
g26
I00
sg12
I390
sg13
I-10
sa(dp32
g26
I00
sg12
I439
sg13
I-6
sa(dp33
g24
Vcurve
p34
sg26
I01
sg12
I489
sg13
I3
sa(dp35
g26
I00
sg12
I504
sg13
I5
sa(dp36
g26
I00
sg12
I512
sg13
I14
sa(dp37
g24
Vcurve
p38
sg26
I01
sg12
I512
sg13
I30
sa(dp39
g24
Vline
p40
sg26
I01
sg12
I512
sg13
I364
sa(dp41
g26
I00
sg12
I512
sg13
I380
sa(dp42
g26
I00
sg12
I503
sg13
I389
sa(dp43
g24
Vcurve
p44
sg26
I01
sg12
I487
sg13
I389
sa(dp45
g24
Vline
p46
sg26
I01
sg12
I355
sg13
I389
sa(dp47
g26
I00
sg12
I339
sg13
I389
sa(dp48
g26
I00
sg12
I330
sg13
I380
sa(dp49
g24
Vcurve
p50
sg26
I01
sg12
I330
sg13
I363
sa(dp51
g24
Vline
p52
sg26
I01
sg12
I330
sg13
I337
sa(dp53
g26
I00
sg12
I330
sg13
I321
sa(dp54
g26
I00
sg12
I338
sg13
I312
sa(dp55
g24
Vcurve
p56
sg26
I01
sg12
I355
sg13
I312
sa(dp57
g24
Vline
p58
sg26
I00
sg12
I427
sg13
I312
sa(dp59
g24
Vline
p60
sg26
I00
sg12
I427
sg13
I72
sa(dp61
g26
I00
sg12
I385
sg13
I68
sa(dp62
g26
I00
sg12
I372
sg13
I67
sa(dp63
g24
Vcurve
p64
sg26
I01
sg12
I351
sg13
I67
sa(dp65
g26
I00
sg12
I214
sg13
I67
sa(dp66
g26
I00
sg12
I170
sg13
I130
sa(dp67
g24
Vcurve
p68
sg26
I01
sg12
I170
sg13
I298
sa(dp69
g24
Vline
p70
sg26
I01
sg12
I170
sg13
I403
sa(dp71
g26
I00
sg12
I170
sg13
I520
sa(dp72
g26
I00
sg12
I179
sg13
I634
sa(dp73
g24
Vcurve
p74
sg26
I01
sg12
I351
sg13
I634
sa(dp75
g26
I00
sg12
I376
sg13
I634
sa(dp76
g26
I00
sg12
I426
sg13
I632
sa(dp77
g24
Vcurve
p78
sg26
I01
sg12
I468
sg13
I624
sa(dp79
g26
I00
sg12
I484
sg13
I621
sa(dp80
g26
I00
sg12
I494
sg13
I627
sa(dp81
g24
Vcurve
p82
sg26
I01
sg12
I498
sg13
I643
sa(dp83
g24
Vline
p84
sg26
I01
sg12
I504
sg13
I669
sa(dp85
g26
I00
sg12
I507
sg13
I685
sa(dp86
g26
I00
sg12
I501
sg13
I696
sa(dp87
g24
Vcurve
p88
sg26
I01
sg12
I484
sg13
I699
sa(dp89
g26
I00
sg12
I438
sg13
I708
sa(dp90
g26
I00
sg12
I384
sg13
I710
sa(dp91
g24
Vcurve
p92
sg26
I01
sg12
I351
sg13
I710
sa(dp93
g26
I00
sg12
I99
sg13
I710
sa(dp94
g26
I00
sg12
I85
sg13
I524
sa(dp95
g24
Vcurve
p96
sg26
I01
sg12
I85
sg13
I370
sasasVlib
p97
(dp98
sg10
VG
p99
sVunicodes
p100
(lp101
sVwidth
p102
I575
sss."
EndChar

StartChar: Gamma
Encoding: 915 915 45
GlifName: G_amma
Width: 575
VWidth: 0
Flags: W
LayerCount: 2
Fore
SplineSet
95 700 m 258
 79 700 70 692 70 675 c 258
 70 25 l 258
 70 9 79 0 95 0 c 258
 130 0 l 258
 147 0 155 9 155 25 c 258
 155 624 l 257
 480 624 l 258
 497 624 505 632 505 649 c 258
 505 675 l 258
 505 692 497 700 480 700 c 258
 95 700 l 258
EndSplineSet
PickledDataWithLists: "(dp0
Vcom.schriftgestaltung.Glyphs.lastChange
p1
V2015-12-22 16:32:37 +0000
p2
s."
EndChar

StartChar: H
Encoding: 72 72 47
GlifName: H_
Width: 575
VWidth: 0
Flags: W
AnchorPoint: "bottom" 288 0 basechar 0
AnchorPoint: "top" 288 700 basechar 0
AnchorPoint: "topleft" 20 700 basechar 0
AnchorPoint: "center" 288 350 basechar 0
LayerCount: 2
Fore
SplineSet
447 700 m 258
 431 700 422 692 422 675 c 258
 422 410 l 257
 153 410 l 257
 153 675 l 258
 153 692 145 700 128 700 c 258
 93 700 l 258
 77 700 68 691 68 675 c 258
 68 25 l 258
 68 9 77 0 93 0 c 258
 128 0 l 258
 145 0 153 9 153 25 c 258
 153 333 l 257
 422 333 l 257
 422 25 l 258
 422 9 431 0 447 0 c 258
 482 0 l 258
 499 0 507 9 507 25 c 258
 507 675 l 258
 507 692 498 700 482 700 c 258
 447 700 l 258
EndSplineSet
PickledDataWithLists: "(dp0
Vcom.schriftgestaltung.Glyphs.lastChange
p1
V2016-06-09 18:35:33 +0000
p2
s."
EndChar

StartChar: I
Encoding: 73 73 49
GlifName: I_
Width: 575
VWidth: 0
Flags: W
AnchorPoint: "ogonek" 518 5 basechar 0
AnchorPoint: "top" 288 700 basechar 0
AnchorPoint: "topleft" 20 700 basechar 0
AnchorPoint: "bottom" 288 0 basechar 0
LayerCount: 2
Fore
SplineSet
120 700 m 258
 104 700 95 692 95 675 c 258
 95 649 l 258
 95 633 104 624 120 624 c 258
 245 624 l 257
 245 77 l 257
 110 77 l 258
 94 77 85 68 85 52 c 258
 85 25 l 258
 85 9 94 0 110 0 c 258
 465 0 l 258
 482 0 490 9 490 25 c 258
 490 52 l 258
 490 68 482 77 465 77 c 258
 330 77 l 257
 330 624 l 257
 455 624 l 258
 471 624 480 632 480 649 c 258
 480 675 l 258
 480 692 471 700 455 700 c 258
 120 700 l 258
EndSplineSet
PickledDataWithLists: "(dp0
Vcom.schriftgestaltung.Glyphs.lastChange
p1
V2016-06-09 18:35:33 +0000
p2
s."
EndChar

StartChar: IJ
Encoding: 306 306 50
GlifName: I_J_
Width: 575
VWidth: 0
Flags: W
LayerCount: 2
Fore
SplineSet
90 700 m 258
 74 700 65 692 65 675 c 258
 65 649 l 258
 65 633 74 624 90 624 c 258
 115 624 l 257
 115 77 l 257
 80 77 l 258
 64 77 55 68 55 52 c 258
 55 25 l 258
 55 9 64 0 80 0 c 258
 235 0 l 258
 252 0 260 9 260 25 c 258
 260 52 l 258
 260 68 252 77 235 77 c 258
 200 77 l 257
 200 624 l 257
 225 624 l 258
 241 624 250 632 250 649 c 258
 250 675 l 258
 250 692 241 700 225 700 c 258
 90 700 l 258
352 700 m 258
 336 700 327 691 327 675 c 258
 327 649 l 258
 327 632 336 624 352 624 c 258
 405 624 l 257
 405 125 l 258
 405 86 377 77 340 77 c 256
 324 77 315 68 315 52 c 258
 315 25 l 258
 315 9 324 1 341 1 c 256
 437 1 490 24 490 125 c 258
 490 675 l 258
 490 692 482 700 465 700 c 258
 352 700 l 258
EndSplineSet
PickledDataWithLists: "(dp0
Vcom.schriftgestaltung.Glyphs.lastChange
p1
V2016-06-09 18:35:33 +0000
p2
s."
EndChar

StartChar: J
Encoding: 74 74 58
GlifName: J_
Width: 575
VWidth: 0
Flags: W
AnchorPoint: "top" 288 700 basechar 0
LayerCount: 2
Fore
SplineSet
185 700 m 258
 169 700 160 691 160 675 c 258
 160 647 l 258
 160 631 169 622 185 622 c 258
 404 622 l 257
 404 270 l 258
 404 114 316 68 237 68 c 256
 206 68 170 75 126 91 c 256
 111 97 100 92 94 77 c 258
 84 53 l 258
 78 38 82 26 97 20 c 256
 144 0 196 -10 243 -10 c 256
 368 -10 490 60 490 270 c 258
 490 675 l 258
 490 691 481 700 465 700 c 258
 185 700 l 258
EndSplineSet
PickledDataWithLists: "(dp0
Vcom.schriftgestaltung.Glyphs.lastChange
p1
V2016-06-09 18:35:33 +0000
p2
sVcom.typemytype.robofont.layerData
p3
(dp4
VRegular Dec 25 14, 15:59
p5
(dp6
Vanchors
p7
(lp8
(dp9
Vname
p10
Vtop
p11
sVx
p12
I288
sVy
p13
I700
sasVcomponents
p14
(lp15
sVcontours
p16
(lp17
(dp18
Vpoints
p19
(lp20
(dp21
VsegmentType
p22
Vline
p23
sVsmooth
p24
I01
sg12
I147
sg13
I700
sa(dp25
g24
I00
sg12
I131
sg13
I700
sa(dp26
g24
I00
sg12
I122
sg13
I691
sa(dp27
g22
Vcurve
p28
sg24
I01
sg12
I122
sg13
I675
sa(dp29
g22
Vline
p30
sg24
I01
sg12
I122
sg13
I649
sa(dp31
g24
I00
sg12
I122
sg13
I632
sa(dp32
g24
I00
sg12
I131
sg13
I624
sa(dp33
g22
Vcurve
p34
sg24
I01
sg12
I147
sg13
I624
sa(dp35
g22
Vline
p36
sg24
I00
sg12
I405
sg13
I624
sa(dp37
g22
Vline
p38
sg24
I01
sg12
I405
sg13
I275
sa(dp39
g24
I00
sg12
I405
sg13
I153
sa(dp40
g24
I00
sg12
I361
sg13
I67
sa(dp41
g22
Vcurve
p42
sg24
I01
sg12
I205
sg13
I67
sa(dp43
g24
I00
sg12
I184
sg13
I67
sa(dp44
g24
I00
sg12
I141
sg13
I69
sa(dp45
g22
Vcurve
p46
sg24
I01
sg12
I94
sg13
I78
sa(dp47
g24
I00
sg12
I78
sg13
I81
sa(dp48
g24
I00
sg12
I67
sg13
I75
sa(dp49
g22
Vcurve
p50
sg24
I01
sg12
I63
sg13
I59
sa(dp51
g22
Vline
p52
sg24
I01
sg12
I56
sg13
I33
sa(dp53
g24
I00
sg12
I52
sg13
I17
sa(dp54
g24
I00
sg12
I59
sg13
I6
sa(dp55
g22
Vcurve
p56
sg24
I01
sg12
I75
sg13
I3
sa(dp57
g24
I00
sg12
I129
sg13
I-8
sa(dp58
g24
I00
sg12
I175
sg13
I-10
sa(dp59
g22
Vcurve
p60
sg24
I01
sg12
I205
sg13
I-10
sa(dp61
g24
I00
sg12
I369
sg13
I-10
sa(dp62
g24
I00
sg12
I490
sg13
I52
sa(dp63
g22
Vcurve
p64
sg24
I01
sg12
I490
sg13
I275
sa(dp65
g22
Vline
p66
sg24
I01
sg12
I490
sg13
I675
sa(dp67
g24
I00
sg12
I490
sg13
I692
sa(dp68
g24
I00
sg12
I482
sg13
I700
sa(dp69
g22
Vcurve
p70
sg24
I01
sg12
I465
sg13
I700
sasasVlib
p71
(dp72
sg10
VJ
p73
sVunicodes
p74
(lp75
sVwidth
p76
I575
ssVRegular Dec 30 14, 23:58
p77
(dp78
g7
(lp79
(dp80
g10
Vtop
p81
sg12
I288
sg13
I700
sasg14
(lp82
sg16
(lp83
(dp84
g19
(lp85
(dp86
g22
Vline
p87
sg24
I01
sg12
I293
sg13
I700
sa(dp88
g24
I00
sg12
I277
sg13
I700
sa(dp89
g24
I00
sg12
I268
sg13
I692
sa(dp90
g22
Vcurve
p91
sg24
I01
sg12
I268
sg13
I675
sa(dp92
g22
Vline
p93
sg24
I01
sg12
I268
sg13
I649
sa(dp94
g24
I00
sg12
I268
sg13
I633
sa(dp95
g24
I00
sg12
I277
sg13
I624
sa(dp96
g22
Vcurve
p97
sg24
I01
sg12
I293
sg13
I624
sa(dp98
g22
Vline
p99
sg24
I00
sg12
I405
sg13
I624
sa(dp100
g22
Vline
p101
sg24
I01
sg12
I405
sg13
I203
sa(dp102
g24
I00
sg12
I405
sg13
I121
sa(dp103
g24
I00
sg12
I370
sg13
I67
sa(dp104
g22
Vcurve
p105
sg24
I01
sg12
I288
sg13
I67
sa(dp106
g24
I00
sg12
I206
sg13
I67
sa(dp107
g24
I00
sg12
I170
sg13
I120
sa(dp108
g22
Vcurve
p109
sg24
I01
sg12
I170
sg13
I203
sa(dp110
g24
I00
sg12
I170
sg13
I220
sa(dp111
g24
I00
sg12
I161
sg13
I228
sa(dp112
g22
Vcurve
p113
sg24
I01
sg12
I145
sg13
I228
sa(dp114
g22
Vline
p115
sg24
I01
sg12
I110
sg13
I228
sa(dp116
g24
I00
sg12
I94
sg13
I228
sa(dp117
g24
I00
sg12
I85
sg13
I219
sa(dp118
g22
Vcurve
p119
sg24
I01
sg12
I85
sg13
I203
sa(dp120
g24
I00
sg12
I85
sg13
I67
sa(dp121
g24
I00
sg12
I153
sg13
I-10
sa(dp122
g22
Vcurve
p123
sg24
I01
sg12
I288
sg13
I-10
sa(dp124
g24
I00
sg12
I422
sg13
I-10
sa(dp125
g24
I00
sg12
I490
sg13
I66
sa(dp126
g22
Vcurve
p127
sg24
I01
sg12
I490
sg13
I203
sa(dp128
g22
Vline
p129
sg24
I01
sg12
I490
sg13
I675
sa(dp130
g24
I00
sg12
I490
sg13
I692
sa(dp131
g24
I00
sg12
I482
sg13
I700
sa(dp132
g22
Vcurve
p133
sg24
I01
sg12
I465
sg13
I700
sasasg71
(dp134
sg10
g73
sg74
(lp135
sg76
I575
ssVRegular Jan 11 15, 19:32
p136
(dp137
g7
(lp138
(dp139
g10
Vtop
p140
sg12
I288
sg13
I700
sasg14
(lp141
sg16
(lp142
(dp143
g19
(lp144
(dp145
g22
Vline
p146
sg24
I01
sg12
I165
sg13
I700
sa(dp147
g24
I00
sg12
I149
sg13
I700
sa(dp148
g24
I00
sg12
I140
sg13
I691
sa(dp149
g22
Vcurve
p150
sg24
I01
sg12
I140
sg13
I675
sa(dp151
g22
Vline
p152
sg24
I01
sg12
I140
sg13
I649
sa(dp153
g24
I00
sg12
I140
sg13
I632
sa(dp154
g24
I00
sg12
I149
sg13
I624
sa(dp155
g22
Vcurve
p156
sg24
I01
sg12
I165
sg13
I624
sa(dp157
g22
Vline
p158
sg24
I00
sg12
I405
sg13
I624
sa(dp159
g22
Vline
p160
sg24
I01
sg12
I405
sg13
I275
sa(dp161
g24
I00
sg12
I405
sg13
I153
sa(dp162
g24
I00
sg12
I361
sg13
I67
sa(dp163
g22
Vcurve
p164
sg24
I01
sg12
I205
sg13
I67
sa(dp165
g24
I00
sg12
I184
sg13
I67
sa(dp166
g24
I00
sg12
I141
sg13
I69
sa(dp167
g22
Vcurve
p168
sg24
I01
sg12
I94
sg13
I78
sa(dp169
g24
I00
sg12
I78
sg13
I81
sa(dp170
g24
I00
sg12
I67
sg13
I75
sa(dp171
g22
Vcurve
p172
sg24
I01
sg12
I63
sg13
I59
sa(dp173
g22
Vline
p174
sg24
I01
sg12
I56
sg13
I33
sa(dp175
g24
I00
sg12
I52
sg13
I17
sa(dp176
g24
I00
sg12
I59
sg13
I6
sa(dp177
g22
Vcurve
p178
sg24
I01
sg12
I75
sg13
I3
sa(dp179
g24
I00
sg12
I129
sg13
I-8
sa(dp180
g24
I00
sg12
I175
sg13
I-10
sa(dp181
g22
Vcurve
p182
sg24
I01
sg12
I205
sg13
I-10
sa(dp183
g24
I00
sg12
I369
sg13
I-10
sa(dp184
g24
I00
sg12
I490
sg13
I52
sa(dp185
g22
Vcurve
p186
sg24
I01
sg12
I490
sg13
I275
sa(dp187
g22
Vline
p188
sg24
I01
sg12
I490
sg13
I675
sa(dp189
g24
I00
sg12
I490
sg13
I692
sa(dp190
g24
I00
sg12
I482
sg13
I700
sa(dp191
g22
Vcurve
p192
sg24
I01
sg12
I465
sg13
I700
sasasg71
(dp193
sg10
g73
sg74
(lp194
sg76
I575
sss."
EndChar

StartChar: K
Encoding: 75 75 60
GlifName: K_
Width: 575
VWidth: 0
Flags: W
AnchorPoint: "top" 288 700 basechar 0
AnchorPoint: "bottom" 288 0 basechar 0
LayerCount: 2
Fore
SplineSet
495 0 m 258
 516 0 523 14 510 31 c 258
 263 360 l 257
 495 670 l 258
 508 687 501 700 480 700 c 258
 427 700 l 258
 414 700 405 696 397 685 c 258
 192 399 l 257
 170 399 l 257
 170 675 l 258
 170 692 162 700 145 700 c 258
 110 700 l 258
 94 700 85 691 85 675 c 258
 85 25 l 258
 85 9 94 0 110 0 c 258
 145 0 l 258
 162 0 170 9 170 25 c 258
 170 323 l 257
 191 323 l 257
 413 16 l 257
 420 5 429 0 443 0 c 258
 495 0 l 258
EndSplineSet
PickledDataWithLists: "(dp0
Vcom.schriftgestaltung.Glyphs.lastChange
p1
V2016-06-09 18:35:33 +0000
p2
sVcom.typemytype.robofont.layerData
p3
(dp4
VRegular Dec 28 13, 16:32
p5
(dp6
Vanchors
p7
(lp8
(dp9
Vname
p10
Vtop
p11
sVx
p12
I288
sVy
p13
I700
sa(dp14
g10
Vbottom
p15
sg12
I288
sg13
I0
sasVcomponents
p16
(lp17
sVcontours
p18
(lp19
(dp20
Vpoints
p21
(lp22
(dp23
VsegmentType
p24
Vline
p25
sVsmooth
p26
I01
sg12
I110
sg13
I700
sa(dp27
g26
I00
sg12
I94
sg13
I700
sa(dp28
g26
I00
sg12
I85
sg13
I691
sa(dp29
g24
Vcurve
p30
sg26
I01
sg12
I85
sg13
I675
sa(dp31
g24
Vline
p32
sg26
I01
sg12
I85
sg13
I25
sa(dp33
g26
I00
sg12
I85
sg13
I9
sa(dp34
g26
I00
sg12
I94
sg13
I0
sa(dp35
g24
Vcurve
p36
sg26
I01
sg12
I110
sg13
I0
sa(dp37
g24
Vline
p38
sg26
I01
sg12
I145
sg13
I0
sa(dp39
g26
I00
sg12
I162
sg13
I0
sa(dp40
g26
I00
sg12
I170
sg13
I9
sa(dp41
g24
Vcurve
p42
sg26
I01
sg12
I170
sg13
I25
sa(dp43
g24
Vline
p44
sg26
I00
sg12
I170
sg13
I307
sa(dp45
g24
Vline
p46
sg26
I01
sg12
I409
sg13
I61
sa(dp47
g26
I00
sg12
I425
sg13
I46
sa(dp48
g26
I00
sg12
I433
sg13
I35
sa(dp49
g24
Vcurve
p50
sg26
I01
sg12
I440
sg13
I18
sa(dp51
g26
I00
sg12
I444
sg13
I6
sa(dp52
g26
I00
sg12
I451
sg13
I0
sa(dp53
g24
Vcurve
p54
sg26
I01
sg12
I466
sg13
I0
sa(dp55
g24
Vline
p56
sg26
I01
sg12
I503
sg13
I0
sa(dp57
g26
I00
sg12
I520
sg13
I0
sa(dp58
g26
I00
sg12
I530
sg13
I10
sa(dp59
g24
Vcurve
p60
sg26
I01
sg12
I527
sg13
I26
sa(dp61
g26
I00
sg12
I518
sg13
I64
sa(dp62
g26
I00
sg12
I499
sg13
I86
sa(dp63
g24
Vcurve
p64
sg26
I01
sg12
I469
sg13
I115
sa(dp65
g24
Vline
p66
sg26
I00
sg12
I240
sg13
I339
sa(dp67
g26
I00
sg12
I234
sg13
I344
sa(dp68
g26
I00
sg12
I230
sg13
I349
sa(dp69
g24
Vcurve
p70
sg26
I00
sg12
I229
sg13
I357
sa(dp71
g26
I00
sg12
I229
sg13
I364
sa(dp72
g26
I00
sg12
I233
sg13
I370
sa(dp73
g24
Vcurve
p74
sg26
I01
sg12
I239
sg13
I375
sa(dp75
g24
Vline
p76
sg26
I01
sg12
I468
sg13
I584
sa(dp77
g26
I00
sg12
I500
sg13
I613
sa(dp78
g26
I00
sg12
I523
sg13
I639
sa(dp79
g24
Vcurve
p80
sg26
I01
sg12
I528
sg13
I681
sa(dp81
g26
I00
sg12
I530
sg13
I692
sa(dp82
g26
I00
sg12
I527
sg13
I699
sa(dp83
g24
Vcurve
p84
sg26
I00
sg12
I516
sg13
I700
sa(dp85
g24
Vline
p86
sg26
I01
sg12
I467
sg13
I700
sa(dp87
g26
I00
sg12
I452
sg13
I700
sa(dp88
g26
I00
sg12
I445
sg13
I693
sa(dp89
g24
Vcurve
p90
sg26
I01
sg12
I439
sg13
I679
sa(dp91
g26
I00
sg12
I434
sg13
I665
sa(dp92
g26
I00
sg12
I424
sg13
I653
sa(dp93
g24
Vcurve
p94
sg26
I01
sg12
I410
sg13
I640
sa(dp95
g24
Vline
p96
sg26
I00
sg12
I170
sg13
I408
sa(dp97
g24
Vline
p98
sg26
I01
sg12
I170
sg13
I675
sa(dp99
g26
I00
sg12
I170
sg13
I692
sa(dp100
g26
I00
sg12
I162
sg13
I700
sa(dp101
g24
Vcurve
p102
sg26
I01
sg12
I145
sg13
I700
sasasVlib
p103
(dp104
sg10
VK
p105
sVunicodes
p106
(lp107
sVwidth
p108
I575
ssVRegular Dec 28 13, 19:48
p109
(dp110
g7
(lp111
(dp112
g10
Vtop
p113
sg12
I288
sg13
I700
sa(dp114
g10
Vbottom
p115
sg12
I288
sg13
I0
sasg16
(lp116
sg18
(lp117
(dp118
g21
(lp119
(dp120
g24
Vline
p121
sg26
I00
sg12
I264
sg13
I364
sa(dp122
g24
Vline
p123
sg26
I01
sg12
I438
sg13
I538
sa(dp124
g26
I00
sg12
I494
sg13
I594
sa(dp125
g26
I00
sg12
I524
sg13
I642
sa(dp126
g24
Vcurve
p127
sg26
I01
sg12
I524
sg13
I675
sa(dp128
g26
I00
sg12
I524
sg13
I691
sa(dp129
g26
I00
sg12
I515
sg13
I700
sa(dp130
g24
Vcurve
p131
sg26
I01
sg12
I499
sg13
I700
sa(dp132
g24
Vline
p133
sg26
I01
sg12
I464
sg13
I700
sa(dp134
g26
I00
sg12
I448
sg13
I700
sa(dp135
g26
I00
sg12
I439
sg13
I691
sa(dp136
g24
Vcurve
p137
sg26
I01
sg12
I439
sg13
I675
sa(dp138
g26
I00
sg12
I439
sg13
I654
sa(dp139
g26
I00
sg12
I420
sg13
I623
sa(dp140
g24
Vcurve
p141
sg26
I01
sg12
I384
sg13
I587
sa(dp142
g24
Vline
p143
sg26
I00
sg12
I170
sg13
I373
sa(dp144
g24
Vline
p145
sg26
I01
sg12
I170
sg13
I675
sa(dp146
g26
I00
sg12
I170
sg13
I692
sa(dp147
g26
I00
sg12
I162
sg13
I700
sa(dp148
g24
Vcurve
p149
sg26
I01
sg12
I145
sg13
I700
sa(dp150
g24
Vline
p151
sg26
I01
sg12
I110
sg13
I700
sa(dp152
g26
I00
sg12
I94
sg13
I700
sa(dp153
g26
I00
sg12
I85
sg13
I691
sa(dp154
g24
Vcurve
p155
sg26
I01
sg12
I85
sg13
I675
sa(dp156
g24
Vline
p157
sg26
I01
sg12
I85
sg13
I25
sa(dp158
g26
I00
sg12
I85
sg13
I9
sa(dp159
g26
I00
sg12
I94
sg13
I0
sa(dp160
g24
Vcurve
p161
sg26
I01
sg12
I110
sg13
I0
sa(dp162
g24
Vline
p163
sg26
I01
sg12
I145
sg13
I0
sa(dp164
g26
I00
sg12
I162
sg13
I0
sa(dp165
g26
I00
sg12
I170
sg13
I9
sa(dp166
g24
Vcurve
p167
sg26
I01
sg12
I170
sg13
I25
sa(dp168
g24
Vline
p169
sg26
I00
sg12
I170
sg13
I355
sa(dp170
g24
Vline
p171
sg26
I01
sg12
I384
sg13
I147
sa(dp172
g26
I00
sg12
I419
sg13
I112
sa(dp173
g26
I00
sg12
I439
sg13
I80
sa(dp174
g24
Vcurve
p175
sg26
I01
sg12
I439
sg13
I57
sa(dp176
g24
Vline
p177
sg26
I01
sg12
I439
sg13
I25
sa(dp178
g26
I00
sg12
I439
sg13
I9
sa(dp179
g26
I00
sg12
I448
sg13
I0
sa(dp180
g24
Vcurve
p181
sg26
I01
sg12
I464
sg13
I0
sa(dp182
g24
Vline
p183
sg26
I01
sg12
I499
sg13
I0
sa(dp184
g26
I00
sg12
I516
sg13
I0
sa(dp185
g26
I00
sg12
I524
sg13
I9
sa(dp186
g24
Vcurve
p187
sg26
I01
sg12
I524
sg13
I25
sa(dp188
g24
Vline
p189
sg26
I01
sg12
I524
sg13
I57
sa(dp190
g26
I00
sg12
I524
sg13
I92
sa(dp191
g26
I00
sg12
I494
sg13
I141
sa(dp192
g24
Vcurve
p193
sg26
I01
sg12
I438
sg13
I196
sasa(dp194
g21
(lp195
(dp196
g24
Vline
p197
sg26
I00
sg12
I132
sg13
I326
sa(dp198
g24
Vline
p199
sg26
I00
sg12
I241
sg13
I326
sa(dp200
g24
Vline
p201
sg26
I00
sg12
I241
sg13
I403
sa(dp202
g24
Vline
p203
sg26
I00
sg12
I132
sg13
I403
sasasg103
(dp204
sg10
g105
sg106
(lp205
sg108
I575
ssVRegular Dec 28 13, 21:13
p206
(dp207
g7
(lp208
(dp209
g10
Vtop
p210
sg12
I288
sg13
I700
sa(dp211
g10
Vbottom
p212
sg12
I288
sg13
I0
sasg16
(lp213
sg18
(lp214
(dp215
g21
(lp216
(dp217
g24
Vline
p218
sg26
I01
sg12
I110
sg13
I700
sa(dp219
g26
I00
sg12
I94
sg13
I700
sa(dp220
g26
I00
sg12
I85
sg13
I691
sa(dp221
g24
Vcurve
p222
sg26
I01
sg12
I85
sg13
I675
sa(dp223
g24
Vline
p224
sg26
I01
sg12
I85
sg13
I25
sa(dp225
g26
I00
sg12
I85
sg13
I9
sa(dp226
g26
I00
sg12
I94
sg13
I0
sa(dp227
g24
Vcurve
p228
sg26
I01
sg12
I110
sg13
I0
sa(dp229
g24
Vline
p230
sg26
I01
sg12
I145
sg13
I0
sa(dp231
g26
I00
sg12
I162
sg13
I0
sa(dp232
g26
I00
sg12
I170
sg13
I9
sa(dp233
g24
Vcurve
p234
sg26
I01
sg12
I170
sg13
I25
sa(dp235
g24
Vline
p236
sg26
I01
sg12
I170
sg13
I675
sa(dp237
g26
I00
sg12
I170
sg13
I692
sa(dp238
g26
I00
sg12
I162
sg13
I700
sa(dp239
g24
Vcurve
p240
sg26
I01
sg12
I145
sg13
I700
sasa(dp241
g21
(lp242
(dp243
g24
Vline
p244
sg26
I00
sg12
I188
sg13
I360
sa(dp245
g24
Vline
p246
sg26
I01
sg12
I497
sg13
I669
sa(dp247
g26
I00
sg12
I513
sg13
I685
sa(dp248
g26
I00
sg12
I507
sg13
I700
sa(dp249
g24
Vcurve
p250
sg26
I01
sg12
I484
sg13
I700
sa(dp251
g24
Vline
p252
sg26
I01
sg12
I426
sg13
I700
sa(dp253
g26
I00
sg12
I413
sg13
I700
sa(dp254
g26
I00
sg12
I404
sg13
I696
sa(dp255
g24
Vcurve
p256
sg26
I01
sg12
I395
sg13
I687
sa(dp257
g24
Vline
p258
sg26
I00
sg12
I107
sg13
I399
sa(dp259
g24
Vline
p260
sg26
I00
sg12
I85
sg13
I399
sa(dp261
g24
Vline
p262
sg26
I00
sg12
I85
sg13
I323
sa(dp263
g24
Vline
p264
sg26
I00
sg12
I106
sg13
I323
sa(dp265
g24
Vline
p266
sg26
I01
sg12
I415
sg13
I13
sa(dp267
g26
I00
sg12
I424
sg13
I4
sa(dp268
g26
I00
sg12
I433
sg13
I0
sa(dp269
g24
Vcurve
p270
sg26
I01
sg12
I446
sg13
I0
sa(dp271
g24
Vline
p272
sg26
I01
sg12
I504
sg13
I0
sa(dp273
g26
I00
sg12
I527
sg13
I0
sa(dp274
g26
I00
sg12
I533
sg13
I15
sa(dp275
g24
Vcurve
p276
sg26
I01
sg12
I517
sg13
I31
sasasg103
(dp277
sg10
g105
sg106
(lp278
sg108
I575
sss."
EndChar

StartChar: L
Encoding: 76 76 62
GlifName: L_
Width: 575
VWidth: 0
Flags: W
AnchorPoint: "top" 288 700 basechar 0
AnchorPoint: "bottom" 288 0 basechar 0
LayerCount: 2
Fore
SplineSet
170 77 m 257
 170 675 l 258
 170 692 162 700 145 700 c 258
 110 700 l 258
 94 700 85 691 85 675 c 258
 85 25 l 258
 85 9 94 0 110 0 c 258
 529 0 l 258
 545 0 554 9 554 25 c 258
 554 52 l 258
 554 68 545 77 529 77 c 258
 170 77 l 257
EndSplineSet
PickledDataWithLists: "(dp0
Vcom.schriftgestaltung.Glyphs.lastChange
p1
V2016-06-09 18:35:33 +0000
p2
s."
EndChar

StartChar: Lambda
Encoding: 923 923 64
GlifName: L_ambda
Width: 575
VWidth: 0
Flags: W
LayerCount: 2
Fore
SplineSet
288 710 m 256
 223 710 180 679 165 621 c 258
 17 28 l 258
 13 11 21 0 39 0 c 258
 74 0 l 258
 89 0 99 7 102 22 c 258
 249 607 l 258
 253 624 267 634 288 634 c 256
 309 634 323 624 327 607 c 258
 473 22 l 258
 477 7 486 0 501 0 c 258
 537 0 l 258
 554 0 563 11 558 28 c 258
 410 621 l 258
 396 679 352 710 288 710 c 256
  PathStart: -2
EndSplineSet
PickledDataWithLists: "(dp0
Vcom.schriftgestaltung.Glyphs.lastChange
p1
V2015-12-22 12:18:02 +0000
p2
s."
EndChar

StartChar: Lslash
Encoding: 321 321 67
GlifName: L_slash
Width: 575
VWidth: 0
Flags: W
AnchorPoint: "top" 288 700 basechar 0
AnchorPoint: "bottom" 288 0 basechar 0
LayerCount: 2
Fore
SplineSet
170 77 m 257
 170 343 l 257
 307 446 l 258
 319 455 321 471 311 484 c 258
 292 507 l 258
 284 517 269 520 258 512 c 258
 170 446 l 257
 170 675 l 258
 170 692 162 700 145 700 c 258
 110 700 l 258
 94 700 85 691 85 675 c 258
 85 382 l 257
 19 332 l 258
 7 323 4 306 14 294 c 258
 34 271 l 257
 42 261 57 259 68 267 c 258
 85 280 l 257
 85 25 l 258
 85 9 94 0 110 0 c 258
 529 0 l 258
 545 0 554 9 554 25 c 258
 554 52 l 258
 554 68 545 77 529 77 c 258
 170 77 l 257
EndSplineSet
PickledDataWithLists: "(dp0
Vcom.schriftgestaltung.Glyphs.lastChange
p1
V2016-06-09 18:35:33 +0000
p2
s."
EndChar

StartChar: M
Encoding: 77 77 68
GlifName: M_
Width: 575
VWidth: 0
Flags: W
LayerCount: 2
Fore
SplineSet
498 705 m 258
 482 705 l 258
 454 705 435 694 423 669 c 258
 288 399 l 257
 153 669 l 258
 141 694 122 705 94 705 c 258
 78 705 l 258
 60 705 51 696 51 680 c 258
 31 26 l 258
 31 11 42 0 57 0 c 258
 91 0 l 258
 106 0 115 11 116 26 c 258
 134 540 l 257
 245 318 l 258
 251 305 260 300 274 300 c 258
 302 300 l 258
 316 300 325 305 331 318 c 258
 442 540 l 257
 460 26 l 258
 461 11 470 0 485 0 c 258
 519 0 l 258
 534 0 545 11 545 26 c 257
 525 680 l 257
 525 696 516 705 498 705 c 258
  PathStart: -2
EndSplineSet
PickledDataWithLists: "(dp0
Vcom.schriftgestaltung.Glyphs.lastChange
p1
V2016-06-09 18:35:33 +0000
p2
sVcom.typemytype.robofont.layerData
p3
(dp4
VRegular Feb 11 15, 21:00
p5
(dp6
Vanchors
p7
(lp8
sVcomponents
p9
(lp10
sVcontours
p11
(lp12
(dp13
Vpoints
p14
(lp15
(dp16
Vsmooth
p17
I00
sVx
p18
I380
sVy
p19
I700
sa(dp20
g17
I00
sg18
I342
sg19
I673
sa(dp21
VsegmentType
p22
Vcurve
p23
sg17
I01
sg18
I333
sg19
I620
sa(dp24
g22
Vline
p25
sg17
I00
sg18
I289
sg19
I358
sa(dp26
g22
Vline
p27
sg17
I01
sg18
I242
sg19
I620
sa(dp28
g17
I00
sg18
I232
sg19
I673
sa(dp29
g17
I00
sg18
I194
sg19
I700
sa(dp30
g22
Vcurve
p31
sg17
I01
sg18
I130
sg19
I700
sa(dp32
g22
Vline
p33
sg17
I01
sg18
I94
sg19
I700
sa(dp34
g17
I00
sg18
I78
sg19
I700
sa(dp35
g17
I00
sg18
I69
sg19
I692
sa(dp36
g22
Vcurve
p37
sg17
I01
sg18
I68
sg19
I676
sa(dp38
g22
Vline
p39
sg17
I01
sg18
I23
sg19
I26
sa(dp40
g17
I00
sg18
I22
sg19
I9
sa(dp41
g17
I00
sg18
I30
sg19
I0
sa(dp42
g22
Vcurve
p43
sg17
I01
sg18
I46
sg19
I0
sa(dp44
g22
Vline
p45
sg17
I01
sg18
I86
sg19
I0
sa(dp46
g17
I00
sg18
I102
sg19
I0
sa(dp47
g17
I00
sg18
I111
sg19
I8
sa(dp48
g22
Vcurve
p49
sg17
I01
sg18
I112
sg19
I24
sa(dp50
g22
Vline
p51
sg17
I00
sg18
I145
sg19
I643
sa(dp52
g17
I00
sg18
I155
sg19
I642
sa(dp53
g17
I00
sg18
I162
sg19
I637
sa(dp54
g22
Vcurve
p55
sg17
I01
sg18
I164
sg19
I627
sa(dp56
g22
Vline
p57
sg17
I01
sg18
I244
sg19
I258
sa(dp58
g17
I00
sg18
I247
sg19
I243
sa(dp59
g17
I00
sg18
I256
sg19
I236
sa(dp60
g22
Vcurve
p61
sg17
I01
sg18
I271
sg19
I236
sa(dp62
g22
Vline
p63
sg17
I01
sg18
I304
sg19
I236
sa(dp64
g17
I00
sg18
I319
sg19
I236
sa(dp65
g17
I00
sg18
I328
sg19
I243
sa(dp66
g22
Vcurve
p67
sg17
I01
sg18
I331
sg19
I258
sa(dp68
g22
Vline
p69
sg17
I01
sg18
I411
sg19
I627
sa(dp70
g17
I00
sg18
I413
sg19
I637
sa(dp71
g17
I00
sg18
I420
sg19
I642
sa(dp72
g22
Vcurve
p73
sg17
I00
sg18
I430
sg19
I643
sa(dp74
g22
Vline
p75
sg17
I01
sg18
I463
sg19
I24
sa(dp76
g17
I00
sg18
I464
sg19
I8
sa(dp77
g17
I00
sg18
I473
sg19
I0
sa(dp78
g22
Vcurve
p79
sg17
I01
sg18
I489
sg19
I0
sa(dp80
g22
Vline
p81
sg17
I01
sg18
I529
sg19
I0
sa(dp82
g17
I00
sg18
I545
sg19
I0
sa(dp83
g17
I00
sg18
I553
sg19
I9
sa(dp84
g22
Vcurve
p85
sg17
I01
sg18
I552
sg19
I26
sa(dp86
g22
Vline
p87
sg17
I01
sg18
I507
sg19
I676
sa(dp88
g17
I00
sg18
I506
sg19
I692
sa(dp89
g17
I00
sg18
I497
sg19
I700
sa(dp90
g22
Vcurve
p91
sg17
I01
sg18
I481
sg19
I700
sa(dp92
g22
Vline
p93
sg17
I01
sg18
I445
sg19
I700
sasasVlib
p94
(dp95
sVname
p96
VM
p97
sVunicodes
p98
(lp99
sVwidth
p100
I575
ssVRegular Feb 2 15, 09:14
p101
(dp102
g7
(lp103
sg9
(lp104
sg11
(lp105
(dp106
g14
(lp107
(dp108
g22
Vline
p109
sg17
I01
sg18
I295
sg19
I417
sa(dp110
g17
I00
sg18
I293
sg19
I410
sa(dp111
g17
I00
sg18
I290
sg19
I407
sa(dp112
g22
Vcurve
p113
sg17
I01
sg18
I287
sg19
I407
sa(dp114
g17
I00
sg18
I284
sg19
I407
sa(dp115
g17
I00
sg18
I281
sg19
I410
sa(dp116
g22
Vcurve
p117
sg17
I01
sg18
I279
sg19
I417
sa(dp118
g22
Vline
p119
sg17
I01
sg18
I224
sg19
I636
sa(dp120
g17
I00
sg18
I213
sg19
I680
sa(dp121
g17
I00
sg18
I180
sg19
I708
sa(dp122
g22
Vcurve
p123
sg17
I01
sg18
I140
sg19
I708
sa(dp124
g17
I00
sg18
I85
sg19
I708
sa(dp125
g17
I00
sg18
I51
sg19
I673
sa(dp126
g22
Vcurve
p127
sg17
I01
sg18
I51
sg19
I616
sa(dp128
g22
Vline
p129
sg17
I01
sg18
I51
sg19
I26
sa(dp130
g17
I00
sg18
I51
sg19
I11
sa(dp131
g17
I00
sg18
I62
sg19
I0
sa(dp132
g22
Vcurve
p133
sg17
I01
sg18
I77
sg19
I0
sa(dp134
g22
Vline
p135
sg17
I01
sg18
I111
sg19
I0
sa(dp136
g17
I00
sg18
I126
sg19
I0
sa(dp137
g17
I00
sg18
I136
sg19
I11
sa(dp138
g22
Vcurve
p139
sg17
I01
sg18
I136
sg19
I26
sa(dp140
g22
Vline
p141
sg17
I01
sg18
I136
sg19
I500
sa(dp142
g17
I00
sg18
I136
sg19
I542
sa(dp143
g17
I00
sg18
I135
sg19
I595
sa(dp144
g22
Vcurve
p145
sg17
I00
sg18
I132
sg19
I638
sa(dp146
g17
I00
sg18
I131
sg19
I646
sa(dp147
g17
I00
sg18
I134
sg19
I650
sa(dp148
g22
Vcurve
p149
sg17
I01
sg18
I138
sg19
I650
sa(dp150
g17
I00
sg18
I141
sg19
I650
sa(dp151
g17
I00
sg18
I144
sg19
I647
sa(dp152
g22
Vcurve
p153
sg17
I00
sg18
I145
sg19
I641
sa(dp154
g22
Vline
p155
sg17
I01
sg18
I195
sg19
I433
sa(dp156
g17
I00
sg18
I213
sg19
I359
sa(dp157
g17
I00
sg18
I240
sg19
I329
sa(dp158
g22
Vcurve
p159
sg17
I01
sg18
I287
sg19
I329
sa(dp160
g17
I00
sg18
I334
sg19
I329
sa(dp161
g17
I00
sg18
I361
sg19
I359
sa(dp162
g22
Vcurve
p163
sg17
I01
sg18
I379
sg19
I433
sa(dp164
g22
Vline
p165
sg17
I00
sg18
I429
sg19
I641
sa(dp166
g17
I00
sg18
I430
sg19
I647
sa(dp167
g17
I00
sg18
I433
sg19
I650
sa(dp168
g22
Vcurve
p169
sg17
I01
sg18
I436
sg19
I650
sa(dp170
g17
I00
sg18
I440
sg19
I650
sa(dp171
g17
I00
sg18
I443
sg19
I646
sa(dp172
g22
Vcurve
p173
sg17
I00
sg18
I442
sg19
I638
sa(dp174
g17
I00
sg18
I439
sg19
I595
sa(dp175
g17
I00
sg18
I438
sg19
I542
sa(dp176
g22
Vcurve
p177
sg17
I01
sg18
I438
sg19
I500
sa(dp178
g22
Vline
p179
sg17
I01
sg18
I438
sg19
I26
sa(dp180
g17
I00
sg18
I438
sg19
I11
sa(dp181
g17
I00
sg18
I448
sg19
I0
sa(dp182
g22
Vcurve
p183
sg17
I01
sg18
I463
sg19
I0
sa(dp184
g22
Vline
p185
sg17
I01
sg18
I497
sg19
I0
sa(dp186
g17
I00
sg18
I512
sg19
I0
sa(dp187
g17
I00
sg18
I523
sg19
I11
sa(dp188
g22
Vcurve
p189
sg17
I01
sg18
I523
sg19
I26
sa(dp190
g22
Vline
p191
sg17
I01
sg18
I523
sg19
I616
sa(dp192
g17
I00
sg18
I523
sg19
I673
sa(dp193
g17
I00
sg18
I489
sg19
I708
sa(dp194
g22
Vcurve
p195
sg17
I01
sg18
I434
sg19
I708
sa(dp196
g17
I00
sg18
I394
sg19
I708
sa(dp197
g17
I00
sg18
I361
sg19
I680
sa(dp198
g22
Vcurve
p199
sg17
I01
sg18
I350
sg19
I636
sasasg94
(dp200
sg96
g97
sg98
(lp201
sg100
I575
ssVRegular Feb 23 15, 17:40
p202
(dp203
g7
(lp204
sg9
(lp205
sg11
(lp206
(dp207
g14
(lp208
(dp209
g22
Vline
p210
sg17
I01
sg18
I438
sg19
I700
sa(dp211
g17
I00
sg18
I366
sg19
I700
sa(dp212
g17
I00
sg18
I339
sg19
I670
sa(dp213
g22
Vcurve
p214
sg17
I01
sg18
I331
sg19
I610
sa(dp215
g22
Vline
p216
sg17
I01
sg18
I305
sg19
I412
sa(dp217
g17
I00
sg18
I304
sg19
I404
sa(dp218
g17
I00
sg18
I298
sg19
I400
sa(dp219
g22
Vcurve
p220
sg17
I01
sg18
I288
sg19
I400
sa(dp221
g17
I00
sg18
I278
sg19
I400
sa(dp222
g17
I00
sg18
I272
sg19
I404
sa(dp223
g22
Vcurve
p224
sg17
I01
sg18
I271
sg19
I412
sa(dp225
g22
Vline
p226
sg17
I01
sg18
I245
sg19
I610
sa(dp227
g17
I00
sg18
I237
sg19
I670
sa(dp228
g17
I00
sg18
I210
sg19
I700
sa(dp229
g22
Vcurve
p230
sg17
I01
sg18
I138
sg19
I700
sa(dp231
g22
Vline
p232
sg17
I01
sg18
I80
sg19
I700
sa(dp233
g17
I00
sg18
I62
sg19
I700
sa(dp234
g17
I00
sg18
I53
sg19
I696
sa(dp235
g22
Vcurve
p236
sg17
I01
sg18
I53
sg19
I680
sa(dp237
g22
Vline
p238
sg17
I01
sg18
I53
sg19
I26
sa(dp239
g17
I00
sg18
I53
sg19
I11
sa(dp240
g17
I00
sg18
I64
sg19
I0
sa(dp241
g22
Vcurve
p242
sg17
I01
sg18
I79
sg19
I0
sa(dp243
g22
Vline
p244
sg17
I01
sg18
I113
sg19
I0
sa(dp245
g17
I00
sg18
I128
sg19
I0
sa(dp246
g17
I00
sg18
I138
sg19
I11
sa(dp247
g22
Vcurve
p248
sg17
I01
sg18
I138
sg19
I26
sa(dp249
g22
Vline
p250
sg17
I00
sg18
I138
sg19
I643
sa(dp251
g17
I00
sg18
I158
sg19
I641
sa(dp252
g17
I00
sg18
I170
sg19
I632
sa(dp253
g22
Vcurve
p254
sg17
I01
sg18
I172
sg19
I617
sa(dp255
g22
Vline
p256
sg17
I01
sg18
I201
sg19
I402
sa(dp257
g17
I00
sg18
I208
sg19
I347
sa(dp258
g17
I00
sg18
I234
sg19
I325
sa(dp259
g22
Vcurve
p260
sg17
I01
sg18
I288
sg19
I325
sa(dp261
g17
I00
sg18
I342
sg19
I325
sa(dp262
g17
I00
sg18
I368
sg19
I347
sa(dp263
g22
Vcurve
p264
sg17
I01
sg18
I375
sg19
I402
sa(dp265
g22
Vline
p266
sg17
I01
sg18
I404
sg19
I617
sa(dp267
g17
I00
sg18
I406
sg19
I632
sa(dp268
g17
I00
sg18
I418
sg19
I641
sa(dp269
g22
Vcurve
p270
sg17
I00
sg18
I438
sg19
I643
sa(dp271
g22
Vline
p272
sg17
I01
sg18
I438
sg19
I26
sa(dp273
g17
I00
sg18
I438
sg19
I11
sa(dp274
g17
I00
sg18
I448
sg19
I0
sa(dp275
g22
Vcurve
p276
sg17
I01
sg18
I463
sg19
I0
sa(dp277
g22
Vline
p278
sg17
I01
sg18
I497
sg19
I0
sa(dp279
g17
I00
sg18
I512
sg19
I0
sa(dp280
g17
I00
sg18
I523
sg19
I11
sa(dp281
g22
Vcurve
p282
sg17
I01
sg18
I523
sg19
I26
sa(dp283
g22
Vline
p284
sg17
I01
sg18
I523
sg19
I680
sa(dp285
g17
I00
sg18
I523
sg19
I696
sa(dp286
g17
I00
sg18
I514
sg19
I700
sa(dp287
g22
Vcurve
p288
sg17
I01
sg18
I496
sg19
I700
sasasg94
(dp289
sg96
g97
sg98
(lp290
sg100
I575
ssVRegular Feb 5 15, 13:38
p291
(dp292
g7
(lp293
sg9
(lp294
sg11
(lp295
(dp296
g14
(lp297
(dp298
g22
Vline
p299
sg17
I01
sg18
I476
sg19
I705
sa(dp300
g17
I00
sg18
I462
sg19
I705
sa(dp301
g17
I00
sg18
I453
sg19
I700
sa(dp302
g22
Vcurve
p303
sg17
I01
sg18
I447
sg19
I687
sa(dp304
g22
Vline
p305
sg17
I00
sg18
I288
sg19
I369
sa(dp306
g22
Vline
p307
sg17
I01
sg18
I129
sg19
I687
sa(dp308
g17
I00
sg18
I123
sg19
I700
sa(dp309
g17
I00
sg18
I113
sg19
I705
sa(dp310
g22
Vcurve
p311
sg17
I01
sg18
I99
sg19
I705
sa(dp312
g22
Vline
p313
sg17
I01
sg18
I78
sg19
I705
sa(dp314
g17
I00
sg18
I60
sg19
I705
sa(dp315
g17
I00
sg18
I51
sg19
I696
sa(dp316
g22
Vcurve
p317
sg17
I01
sg18
I51
sg19
I680
sa(dp318
g22
Vline
p319
sg17
I01
sg18
I51
sg19
I26
sa(dp320
g17
I00
sg18
I51
sg19
I11
sa(dp321
g17
I00
sg18
I62
sg19
I0
sa(dp322
g22
Vcurve
p323
sg17
I01
sg18
I77
sg19
I0
sa(dp324
g22
Vline
p325
sg17
I01
sg18
I111
sg19
I0
sa(dp326
g17
I00
sg18
I126
sg19
I0
sa(dp327
g17
I00
sg18
I136
sg19
I11
sa(dp328
g22
Vcurve
p329
sg17
I01
sg18
I136
sg19
I26
sa(dp330
g17
I00
sg18
I136
sg19
I275
sa(dp331
g17
I00
sg18
I134
sg19
I441
sa(dp332
g22
Vcurve
p333
sg17
I00
sg18
I131
sg19
I515
sa(dp334
g22
Vline
p335
sg17
I01
sg18
I245
sg19
I288
sa(dp336
g17
I00
sg18
I251
sg19
I275
sa(dp337
g17
I00
sg18
I260
sg19
I270
sa(dp338
g22
Vcurve
p339
sg17
I01
sg18
I274
sg19
I270
sa(dp340
g22
Vline
p341
sg17
I01
sg18
I301
sg19
I270
sa(dp342
g17
I00
sg18
I315
sg19
I270
sa(dp343
g17
I00
sg18
I325
sg19
I275
sa(dp344
g22
Vcurve
p345
sg17
I01
sg18
I331
sg19
I288
sa(dp346
g22
Vline
p347
sg17
I00
sg18
I444
sg19
I515
sa(dp348
g17
I00
sg18
I441
sg19
I441
sa(dp349
g17
I00
sg18
I439
sg19
I275
sa(dp350
g22
Vcurve
p351
sg17
I01
sg18
I439
sg19
I26
sa(dp352
g17
I00
sg18
I439
sg19
I11
sa(dp353
g17
I00
sg18
I450
sg19
I0
sa(dp354
g22
Vcurve
p355
sg17
I01
sg18
I465
sg19
I0
sa(dp356
g22
Vline
p357
sg17
I01
sg18
I499
sg19
I0
sa(dp358
g17
I00
sg18
I514
sg19
I0
sa(dp359
g17
I00
sg18
I524
sg19
I11
sa(dp360
g22
Vcurve
p361
sg17
I01
sg18
I524
sg19
I26
sa(dp362
g22
Vline
p363
sg17
I01
sg18
I524
sg19
I680
sa(dp364
g17
I00
sg18
I524
sg19
I696
sa(dp365
g17
I00
sg18
I515
sg19
I705
sa(dp366
g22
Vcurve
p367
sg17
I01
sg18
I498
sg19
I705
sasasg94
(dp368
sg96
g97
sg98
(lp369
sg100
I575
ssVRegular Feb 6 15, 10:36
p370
(dp371
g7
(lp372
sg9
(lp373
sg11
(lp374
(dp375
g14
(lp376
(dp377
g22
Vline
p378
sg17
I01
sg18
I465
sg19
I700
sa(dp379
g17
I00
sg18
I397
sg19
I700
sa(dp380
g17
I00
sg18
I356
sg19
I673
sa(dp381
g22
Vcurve
p382
sg17
I01
sg18
I343
sg19
I620
sa(dp383
g22
Vline
p384
sg17
I00
sg18
F287.5
sg19
F398.421
sa(dp385
g22
Vline
p386
sg17
I01
sg18
I232
sg19
I620
sa(dp387
g17
I00
sg18
I219
sg19
I673
sa(dp388
g17
I00
sg18
I178
sg19
I700
sa(dp389
g22
Vcurve
p390
sg17
I01
sg18
I110
sg19
I700
sa(dp391
g22
Vline
p392
sg17
I01
sg18
I77
sg19
I700
sa(dp393
g17
I00
sg18
I59
sg19
I700
sa(dp394
g17
I00
sg18
I50
sg19
I696
sa(dp395
g22
Vcurve
p396
sg17
I01
sg18
I50
sg19
I680
sa(dp397
g22
Vline
p398
sg17
I01
sg18
I50
sg19
I26
sa(dp399
g17
I00
sg18
I50
sg19
I11
sa(dp400
g17
I00
sg18
I61
sg19
I0
sa(dp401
g22
Vcurve
p402
sg17
I01
sg18
I76
sg19
I0
sa(dp403
g22
Vline
p404
sg17
I01
sg18
I110
sg19
I0
sa(dp405
g17
I00
sg18
I125
sg19
I0
sa(dp406
g17
I00
sg18
I135
sg19
I11
sa(dp407
g22
Vcurve
p408
sg17
I01
sg18
I135
sg19
I26
sa(dp409
g22
Vline
p410
sg17
I00
sg18
I135
sg19
I643
sa(dp411
g17
I00
sg18
I145
sg19
I642
sa(dp412
g17
I00
sg18
I152
sg19
I636
sa(dp413
g22
Vcurve
p414
sg17
I01
sg18
I154
sg19
I627
sa(dp415
g22
Vline
p416
sg17
I00
sg18
F249.377
sg19
F246.216
sa(dp417
g22
Vline
p418
sg17
I00
sg18
F325.623
sg19
F246.216
sa(dp419
g22
Vline
p420
sg17
I01
sg18
I421
sg19
I627
sa(dp421
g17
I00
sg18
I423
sg19
I636
sa(dp422
g17
I00
sg18
I430
sg19
I642
sa(dp423
g22
Vcurve
p424
sg17
I00
sg18
I440
sg19
I643
sa(dp425
g22
Vline
p426
sg17
I01
sg18
I440
sg19
I26
sa(dp427
g17
I00
sg18
I440
sg19
I11
sa(dp428
g17
I00
sg18
I450
sg19
I0
sa(dp429
g22
Vcurve
p430
sg17
I01
sg18
I465
sg19
I0
sa(dp431
g22
Vline
p432
sg17
I01
sg18
I499
sg19
I0
sa(dp433
g17
I00
sg18
I514
sg19
I0
sa(dp434
g17
I00
sg18
I525
sg19
I11
sa(dp435
g22
Vcurve
p436
sg17
I01
sg18
I525
sg19
I26
sa(dp437
g22
Vline
p438
sg17
I01
sg18
I525
sg19
I680
sa(dp439
g17
I00
sg18
I525
sg19
I696
sa(dp440
g17
I00
sg18
I516
sg19
I700
sa(dp441
g22
Vcurve
p442
sg17
I01
sg18
I498
sg19
I700
sasasg94
(dp443
sg96
g97
sg98
(lp444
sg100
I575
ssVRegular Jan 21 14, 20:24
p445
(dp446
g7
(lp447
sg9
(lp448
sg11
(lp449
(dp450
g14
(lp451
(dp452
g22
Vline
p453
sg17
I01
sg18
I496
sg19
I705
sa(dp454
g17
I00
sg18
I482
sg19
I705
sa(dp455
g17
I00
sg18
I473
sg19
I700
sa(dp456
g22
Vcurve
p457
sg17
I01
sg18
I467
sg19
I687
sa(dp458
g22
Vline
p459
sg17
I01
sg18
I313
sg19
I380
sa(dp460
g17
I00
sg18
I307
sg19
I368
sa(dp461
g17
I00
sg18
I301
sg19
I359
sa(dp462
g22
Vcurve
p463
sg17
I01
sg18
I288
sg19
I359
sa(dp464
g17
I00
sg18
I275
sg19
I359
sa(dp465
g17
I00
sg18
I268
sg19
I368
sa(dp466
g22
Vcurve
p467
sg17
I01
sg18
I262
sg19
I380
sa(dp468
g22
Vline
p469
sg17
I01
sg18
I109
sg19
I687
sa(dp470
g17
I00
sg18
I103
sg19
I700
sa(dp471
g17
I00
sg18
I93
sg19
I705
sa(dp472
g22
Vcurve
p473
sg17
I01
sg18
I79
sg19
I705
sa(dp474
g22
Vline
p475
sg17
I01
sg18
I78
sg19
I705
sa(dp476
g17
I00
sg18
I60
sg19
I705
sa(dp477
g17
I00
sg18
I51
sg19
I696
sa(dp478
g22
Vcurve
p479
sg17
I01
sg18
I51
sg19
I680
sa(dp480
g22
Vline
p481
sg17
I01
sg18
I51
sg19
I26
sa(dp482
g17
I00
sg18
I51
sg19
I11
sa(dp483
g17
I00
sg18
I62
sg19
I0
sa(dp484
g22
Vcurve
p485
sg17
I01
sg18
I77
sg19
I0
sa(dp486
g22
Vline
p487
sg17
I01
sg18
I111
sg19
I0
sa(dp488
g17
I00
sg18
I126
sg19
I0
sa(dp489
g17
I00
sg18
I136
sg19
I11
sa(dp490
g22
Vcurve
p491
sg17
I01
sg18
I136
sg19
I26
sa(dp492
g17
I00
sg18
I136
sg19
I275
sa(dp493
g17
I00
sg18
I134
sg19
I401
sa(dp494
g22
Vcurve
p495
sg17
I00
sg18
I131
sg19
I475
sa(dp496
g22
Vline
p497
sg17
I01
sg18
I194
sg19
I350
sa(dp498
g17
I00
sg18
I215
sg19
I307
sa(dp499
g17
I00
sg18
I240
sg19
I271
sa(dp500
g22
Vcurve
p501
sg17
I01
sg18
I288
sg19
I271
sa(dp502
g17
I00
sg18
I336
sg19
I271
sa(dp503
g17
I00
sg18
I360
sg19
I307
sa(dp504
g22
Vcurve
p505
sg17
I01
sg18
I382
sg19
I350
sa(dp506
g22
Vline
p507
sg17
I00
sg18
I444
sg19
I475
sa(dp508
g17
I00
sg18
I441
sg19
I401
sa(dp509
g17
I00
sg18
I439
sg19
I275
sa(dp510
g22
Vcurve
p511
sg17
I01
sg18
I439
sg19
I26
sa(dp512
g17
I00
sg18
I439
sg19
I11
sa(dp513
g17
I00
sg18
I450
sg19
I0
sa(dp514
g22
Vcurve
p515
sg17
I01
sg18
I465
sg19
I0
sa(dp516
g22
Vline
p517
sg17
I01
sg18
I499
sg19
I0
sa(dp518
g17
I00
sg18
I514
sg19
I0
sa(dp519
g17
I00
sg18
I524
sg19
I11
sa(dp520
g22
Vcurve
p521
sg17
I01
sg18
I524
sg19
I26
sa(dp522
g22
Vline
p523
sg17
I01
sg18
I524
sg19
I680
sa(dp524
g17
I00
sg18
I524
sg19
I696
sa(dp525
g17
I00
sg18
I515
sg19
I705
sa(dp526
g22
Vcurve
p527
sg17
I01
sg18
I498
sg19
I705
sasasg94
(dp528
sg96
g97
sg98
(lp529
sg100
I575
ssVRegular Jan 31 15, 15:08
p530
(dp531
g7
(lp532
sg9
(lp533
sg11
(lp534
(dp535
g14
(lp536
(dp537
g22
Vline
p538
sg17
I01
sg18
I476
sg19
I705
sa(dp539
g17
I00
sg18
I462
sg19
I705
sa(dp540
g17
I00
sg18
I453
sg19
I700
sa(dp541
g22
Vcurve
p542
sg17
I01
sg18
I447
sg19
I687
sa(dp543
g22
Vline
p544
sg17
I00
sg18
I288
sg19
I369
sa(dp545
g22
Vline
p546
sg17
I01
sg18
I129
sg19
I687
sa(dp547
g17
I00
sg18
I123
sg19
I700
sa(dp548
g17
I00
sg18
I113
sg19
I705
sa(dp549
g22
Vcurve
p550
sg17
I01
sg18
I99
sg19
I705
sa(dp551
g22
Vline
p552
sg17
I01
sg18
I78
sg19
I705
sa(dp553
g17
I00
sg18
I60
sg19
I705
sa(dp554
g17
I00
sg18
I51
sg19
I696
sa(dp555
g22
Vcurve
p556
sg17
I01
sg18
I51
sg19
I680
sa(dp557
g22
Vline
p558
sg17
I01
sg18
I51
sg19
I26
sa(dp559
g17
I00
sg18
I51
sg19
I11
sa(dp560
g17
I00
sg18
I62
sg19
I0
sa(dp561
g22
Vcurve
p562
sg17
I01
sg18
I77
sg19
I0
sa(dp563
g22
Vline
p564
sg17
I01
sg18
I111
sg19
I0
sa(dp565
g17
I00
sg18
I126
sg19
I0
sa(dp566
g17
I00
sg18
I136
sg19
I11
sa(dp567
g22
Vcurve
p568
sg17
I01
sg18
I136
sg19
I26
sa(dp569
g17
I00
sg18
I136
sg19
I275
sa(dp570
g17
I00
sg18
I134
sg19
I441
sa(dp571
g22
Vcurve
p572
sg17
I00
sg18
I131
sg19
I515
sa(dp573
g22
Vline
p574
sg17
I01
sg18
I245
sg19
I288
sa(dp575
g17
I00
sg18
I251
sg19
I275
sa(dp576
g17
I00
sg18
I260
sg19
I270
sa(dp577
g22
Vcurve
p578
sg17
I01
sg18
I274
sg19
I270
sa(dp579
g22
Vline
p580
sg17
I01
sg18
I301
sg19
I270
sa(dp581
g17
I00
sg18
I315
sg19
I270
sa(dp582
g17
I00
sg18
I325
sg19
I275
sa(dp583
g22
Vcurve
p584
sg17
I01
sg18
I331
sg19
I288
sa(dp585
g22
Vline
p586
sg17
I00
sg18
I444
sg19
I515
sa(dp587
g17
I00
sg18
I441
sg19
I441
sa(dp588
g17
I00
sg18
I439
sg19
I275
sa(dp589
g22
Vcurve
p590
sg17
I01
sg18
I439
sg19
I26
sa(dp591
g17
I00
sg18
I439
sg19
I11
sa(dp592
g17
I00
sg18
I450
sg19
I0
sa(dp593
g22
Vcurve
p594
sg17
I01
sg18
I465
sg19
I0
sa(dp595
g22
Vline
p596
sg17
I01
sg18
I499
sg19
I0
sa(dp597
g17
I00
sg18
I514
sg19
I0
sa(dp598
g17
I00
sg18
I524
sg19
I11
sa(dp599
g22
Vcurve
p600
sg17
I01
sg18
I524
sg19
I26
sa(dp601
g22
Vline
p602
sg17
I01
sg18
I524
sg19
I680
sa(dp603
g17
I00
sg18
I524
sg19
I696
sa(dp604
g17
I00
sg18
I515
sg19
I705
sa(dp605
g22
Vcurve
p606
sg17
I01
sg18
I498
sg19
I705
sasasg94
(dp607
sg96
g97
sg98
(lp608
sg100
I575
ssVRegular Jan 31 15, 16:43
p609
(dp610
g7
(lp611
sg9
(lp612
sg11
(lp613
(dp614
g14
(lp615
(dp616
g22
Vline
p617
sg17
I00
sg18
I288
sg19
I490
sa(dp618
g22
Vline
p619
sg17
I01
sg18
I208
sg19
I650
sa(dp620
g17
I00
sg18
I188
sg19
I690
sa(dp621
g17
I00
sg18
I154
sg19
I710
sa(dp622
g22
Vcurve
p623
sg17
I01
sg18
I123
sg19
I710
sa(dp624
g17
I00
sg18
I85
sg19
I710
sa(dp625
g17
I00
sg18
I51
sg19
I680
sa(dp626
g22
Vcurve
p627
sg17
I01
sg18
I51
sg19
I620
sa(dp628
g22
Vline
p629
sg17
I01
sg18
I51
sg19
I26
sa(dp630
g17
I00
sg18
I51
sg19
I11
sa(dp631
g17
I00
sg18
I62
sg19
I0
sa(dp632
g22
Vcurve
p633
sg17
I01
sg18
I77
sg19
I0
sa(dp634
g22
Vline
p635
sg17
I01
sg18
I111
sg19
I0
sa(dp636
g17
I00
sg18
I126
sg19
I0
sa(dp637
g17
I00
sg18
I136
sg19
I11
sa(dp638
g22
Vcurve
p639
sg17
I01
sg18
I136
sg19
I26
sa(dp640
g22
Vline
p641
sg17
I00
sg18
I136
sg19
I625
sa(dp642
g22
Vline
p643
sg17
I00
sg18
I254
sg19
I389
sa(dp644
g17
I00
sg18
I264
sg19
I371
sa(dp645
g17
I00
sg18
I276
sg19
I361
sa(dp646
g22
Vcurve
p647
sg17
I01
sg18
I288
sg19
I361
sa(dp648
g17
I00
sg18
I300
sg19
I361
sa(dp649
g17
I00
sg18
I313
sg19
I371
sa(dp650
g22
Vcurve
p651
sg17
I01
sg18
I322
sg19
I389
sa(dp652
g22
Vline
p653
sg17
I00
sg18
I440
sg19
I625
sa(dp654
g22
Vline
p655
sg17
I01
sg18
I440
sg19
I26
sa(dp656
g17
I00
sg18
I440
sg19
I11
sa(dp657
g17
I00
sg18
I450
sg19
I0
sa(dp658
g22
Vcurve
p659
sg17
I01
sg18
I465
sg19
I0
sa(dp660
g22
Vline
p661
sg17
I01
sg18
I499
sg19
I0
sa(dp662
g17
I00
sg18
I514
sg19
I0
sa(dp663
g17
I00
sg18
I525
sg19
I11
sa(dp664
g22
Vcurve
p665
sg17
I01
sg18
I525
sg19
I26
sa(dp666
g22
Vline
p667
sg17
I01
sg18
I525
sg19
I620
sa(dp668
g17
I00
sg18
I525
sg19
I680
sa(dp669
g17
I00
sg18
I491
sg19
I710
sa(dp670
g22
Vcurve
p671
sg17
I01
sg18
I453
sg19
I710
sa(dp672
g17
I00
sg18
I422
sg19
I710
sa(dp673
g17
I00
sg18
I388
sg19
I690
sa(dp674
g22
Vcurve
p675
sg17
I01
sg18
I368
sg19
I650
sasasg94
(dp676
sg96
g97
sg98
(lp677
sg100
I575
ssVRegular Jan 31 15, 16:55
p678
(dp679
g7
(lp680
sg9
(lp681
sg11
(lp682
(dp683
g14
(lp684
(dp685
g22
Vline
p686
sg17
I00
sg18
I288
sg19
I380
sa(dp687
g22
Vline
p688
sg17
I01
sg18
I224
sg19
I636
sa(dp689
g17
I00
sg18
I213
sg19
I680
sa(dp690
g17
I00
sg18
I180
sg19
I708
sa(dp691
g22
Vcurve
p692
sg17
I01
sg18
I140
sg19
I708
sa(dp693
g17
I00
sg18
I85
sg19
I708
sa(dp694
g17
I00
sg18
I51
sg19
I673
sa(dp695
g22
Vcurve
p696
sg17
I01
sg18
I51
sg19
I616
sa(dp697
g22
Vline
p698
sg17
I01
sg18
I51
sg19
I26
sa(dp699
g17
I00
sg18
I51
sg19
I11
sa(dp700
g17
I00
sg18
I62
sg19
I0
sa(dp701
g22
Vcurve
p702
sg17
I01
sg18
I77
sg19
I0
sa(dp703
g22
Vline
p704
sg17
I01
sg18
I111
sg19
I0
sa(dp705
g17
I00
sg18
I126
sg19
I0
sa(dp706
g17
I00
sg18
I136
sg19
I11
sa(dp707
g22
Vcurve
p708
sg17
I01
sg18
I136
sg19
I26
sa(dp709
g22
Vline
p710
sg17
I00
sg18
I136
sg19
I640
sa(dp711
g22
Vline
p712
sg17
I01
sg18
I195
sg19
I403
sa(dp713
g17
I00
sg18
I210
sg19
I343
sa(dp714
g17
I00
sg18
I241
sg19
I313
sa(dp715
g22
Vcurve
p716
sg17
I01
sg18
I288
sg19
I313
sa(dp717
g17
I00
sg18
I335
sg19
I313
sa(dp718
g17
I00
sg18
I365
sg19
I343
sa(dp719
g22
Vcurve
p720
sg17
I01
sg18
I380
sg19
I403
sa(dp721
g22
Vline
p722
sg17
I00
sg18
I439
sg19
I640
sa(dp723
g22
Vline
p724
sg17
I01
sg18
I439
sg19
I26
sa(dp725
g17
I00
sg18
I439
sg19
I11
sa(dp726
g17
I00
sg18
I449
sg19
I0
sa(dp727
g22
Vcurve
p728
sg17
I01
sg18
I464
sg19
I0
sa(dp729
g22
Vline
p730
sg17
I01
sg18
I498
sg19
I0
sa(dp731
g17
I00
sg18
I513
sg19
I0
sa(dp732
g17
I00
sg18
I524
sg19
I11
sa(dp733
g22
Vcurve
p734
sg17
I01
sg18
I524
sg19
I26
sa(dp735
g22
Vline
p736
sg17
I01
sg18
I524
sg19
I616
sa(dp737
g17
I00
sg18
I524
sg19
I673
sa(dp738
g17
I00
sg18
I490
sg19
I708
sa(dp739
g22
Vcurve
p740
sg17
I01
sg18
I435
sg19
I708
sa(dp741
g17
I00
sg18
I395
sg19
I708
sa(dp742
g17
I00
sg18
I362
sg19
I680
sa(dp743
g22
Vcurve
p744
sg17
I01
sg18
I351
sg19
I636
sasasg94
(dp745
sg96
g97
sg98
(lp746
sg100
I575
ssVbackground
p747
(dp748
g7
(lp749
sg9
(lp750
sg11
(lp751
(dp752
g14
(lp753
(dp754
g22
Vline
p755
sg17
I01
sg18
I426
sg19
I705
sa(dp756
g17
I00
sg18
I412
sg19
I705
sa(dp757
g17
I00
sg18
I403
sg19
I699
sa(dp758
g22
Vcurve
p759
sg17
I01
sg18
I397
sg19
I687
sa(dp760
g22
Vline
p761
sg17
I00
sg18
I288
sg19
I469
sa(dp762
g22
Vline
p763
sg17
I01
sg18
I179
sg19
I687
sa(dp764
g17
I00
sg18
I173
sg19
I699
sa(dp765
g17
I00
sg18
I164
sg19
I705
sa(dp766
g22
Vcurve
p767
sg17
I01
sg18
I150
sg19
I705
sa(dp768
g22
Vline
p769
sg17
I01
sg18
I78
sg19
I705
sa(dp770
g17
I00
sg18
I60
sg19
I705
sa(dp771
g17
I00
sg18
I51
sg19
I696
sa(dp772
g22
Vcurve
p773
sg17
I01
sg18
I51
sg19
I680
sa(dp774
g22
Vline
p775
sg17
I01
sg18
I51
sg19
I26
sa(dp776
g17
I00
sg18
I51
sg19
I11
sa(dp777
g17
I00
sg18
I62
sg19
I0
sa(dp778
g22
Vcurve
p779
sg17
I01
sg18
I77
sg19
I0
sa(dp780
g22
Vline
p781
sg17
I01
sg18
I111
sg19
I0
sa(dp782
g17
I00
sg18
I126
sg19
I0
sa(dp783
g17
I00
sg18
I136
sg19
I11
sa(dp784
g22
Vcurve
p785
sg17
I01
sg18
I136
sg19
I26
sa(dp786
g17
I00
sg18
I136
sg19
I275
sa(dp787
g17
I00
sg18
I134
sg19
I541
sa(dp788
g22
Vcurve
p789
sg17
I00
sg18
I131
sg19
I615
sa(dp790
g22
Vline
p791
sg17
I01
sg18
I245
sg19
I388
sa(dp792
g17
I00
sg18
I251
sg19
I375
sa(dp793
g17
I00
sg18
I260
sg19
I370
sa(dp794
g22
Vcurve
p795
sg17
I01
sg18
I274
sg19
I370
sa(dp796
g22
Vline
p797
sg17
I01
sg18
I301
sg19
I370
sa(dp798
g17
I00
sg18
I315
sg19
I370
sa(dp799
g17
I00
sg18
I325
sg19
I375
sa(dp800
g22
Vcurve
p801
sg17
I01
sg18
I331
sg19
I388
sa(dp802
g22
Vline
p803
sg17
I00
sg18
I444
sg19
I615
sa(dp804
g17
I00
sg18
I441
sg19
I541
sa(dp805
g17
I00
sg18
I439
sg19
I275
sa(dp806
g22
Vcurve
p807
sg17
I01
sg18
I439
sg19
I26
sa(dp808
g17
I00
sg18
I439
sg19
I11
sa(dp809
g17
I00
sg18
I450
sg19
I0
sa(dp810
g22
Vcurve
p811
sg17
I01
sg18
I465
sg19
I0
sa(dp812
g22
Vline
p813
sg17
I01
sg18
I499
sg19
I0
sa(dp814
g17
I00
sg18
I514
sg19
I0
sa(dp815
g17
I00
sg18
I524
sg19
I11
sa(dp816
g22
Vcurve
p817
sg17
I01
sg18
I524
sg19
I26
sa(dp818
g22
Vline
p819
sg17
I01
sg18
I524
sg19
I680
sa(dp820
g17
I00
sg18
I524
sg19
I696
sa(dp821
g17
I00
sg18
I515
sg19
I705
sa(dp822
g22
Vcurve
p823
sg17
I01
sg18
I498
sg19
I705
sasasg94
(dp824
sg96
g97
sg98
(lp825
sg100
I575
sss."
EndChar

StartChar: N
Encoding: 78 78 70
GlifName: N_
Width: 575
VWidth: 0
Flags: W
LayerCount: 2
Fore
SplineSet
446 700 m 258
 431 700 421 689 421 674 c 258
 421 169 l 257
 171 669 l 258
 159 694 140 700 112 700 c 258
 96 700 l 258
 78 700 69 691 69 675 c 258
 69 26 l 258
 69 11 80 0 95 0 c 258
 129 0 l 258
 144 0 154 11 154 26 c 258
 154 527 l 257
 404 36 l 258
 417 11 435 0 463 0 c 258
 479 0 l 258
 497 0 506 9 506 25 c 258
 506 674 l 258
 506 689 495 700 480 700 c 258
 446 700 l 258
EndSplineSet
PickledDataWithLists: "(dp0
Vcom.schriftgestaltung.Glyphs.lastChange
p1
V2016-06-09 18:35:33 +0000
p2
sVcom.typemytype.robofont.layerData
p3
(dp4
VRegular Dec 27 13, 23:18
p5
(dp6
Vanchors
p7
(lp8
(dp9
Vname
p10
Vtop
p11
sVx
p12
I288
sVy
p13
I700
sa(dp14
g10
Vbottom
p15
sg12
I288
sg13
I0
sasVcomponents
p16
(lp17
sVcontours
p18
(lp19
(dp20
Vpoints
p21
(lp22
(dp23
VsegmentType
p24
Vline
p25
sVsmooth
p26
I01
sg12
I447
sg13
I700
sa(dp27
g26
I00
sg12
I431
sg13
I700
sa(dp28
g26
I00
sg12
I422
sg13
I691
sa(dp29
g24
Vcurve
p30
sg26
I01
sg12
I422
sg13
I675
sa(dp31
g26
I00
sg12
I422
sg13
I497
sa(dp32
g26
I00
sg12
I423
sg13
I330
sa(dp33
g24
Vcurve
p34
sg26
I00
sg12
I427
sg13
I166
sa(dp35
g24
Vline
p36
sg26
I00
sg12
I160
sg13
I658
sa(dp37
g26
I00
sg12
I142
sg13
I691
sa(dp38
g26
I00
sg12
I130
sg13
I705
sa(dp39
g24
Vcurve
p40
sg26
I01
sg12
I88
sg13
I705
sa(dp41
g26
I00
sg12
I75
sg13
I705
sa(dp42
g26
I00
sg12
I68
sg13
I697
sa(dp43
g24
Vcurve
p44
sg26
I01
sg12
I68
sg13
I680
sa(dp45
g24
Vline
p46
sg26
I01
sg12
I68
sg13
I25
sa(dp47
g26
I00
sg12
I68
sg13
I9
sa(dp48
g26
I00
sg12
I77
sg13
I0
sa(dp49
g24
Vcurve
p50
sg26
I01
sg12
I93
sg13
I0
sa(dp51
g24
Vline
p52
sg26
I01
sg12
I128
sg13
I0
sa(dp53
g26
I00
sg12
I144
sg13
I0
sa(dp54
g26
I00
sg12
I153
sg13
I9
sa(dp55
g24
Vcurve
p56
sg26
I01
sg12
I153
sg13
I25
sa(dp57
g26
I00
sg12
I153
sg13
I199
sa(dp58
g26
I00
sg12
I152
sg13
I362
sa(dp59
g24
Vcurve
p60
sg26
I00
sg12
I149
sg13
I522
sa(dp61
g24
Vline
p62
sg26
I00
sg12
I415
sg13
I30
sa(dp63
g26
I00
sg12
I433
sg13
I-2
sa(dp64
g26
I00
sg12
I447
sg13
I-5
sa(dp65
g24
Vcurve
p66
sg26
I01
sg12
I487
sg13
I-5
sa(dp67
g26
I00
sg12
I500
sg13
I-5
sa(dp68
g26
I00
sg12
I507
sg13
I4
sa(dp69
g24
Vcurve
p70
sg26
I01
sg12
I507
sg13
I20
sa(dp71
g24
Vline
p72
sg26
I01
sg12
I507
sg13
I675
sa(dp73
g26
I00
sg12
I507
sg13
I691
sa(dp74
g26
I00
sg12
I499
sg13
I700
sa(dp75
g24
Vcurve
p76
sg26
I01
sg12
I482
sg13
I700
sasasVlib
p77
(dp78
sg10
VN
p79
sVunicodes
p80
(lp81
sVwidth
p82
I575
ssVRegular Feb 2 15, 09:16
p83
(dp84
g7
(lp85
sg16
(lp86
sg18
(lp87
(dp88
g21
(lp89
(dp90
g24
Vline
p91
sg26
I01
sg12
I449
sg13
I704
sa(dp92
g26
I00
sg12
I434
sg13
I704
sa(dp93
g26
I00
sg12
I424
sg13
I693
sa(dp94
g24
Vcurve
p95
sg26
I01
sg12
I424
sg13
I678
sa(dp96
g24
Vline
p97
sg26
I01
sg12
I424
sg13
I83
sa(dp98
g26
I00
sg12
I424
sg13
I67
sa(dp99
g26
I00
sg12
I419
sg13
I59
sa(dp100
g24
Vcurve
p101
sg26
I01
sg12
I414
sg13
I59
sa(dp102
g26
I00
sg12
I409
sg13
I59
sa(dp103
g26
I00
sg12
I403
sg13
I66
sa(dp104
g24
Vcurve
p105
sg26
I01
sg12
I399
sg13
I81
sa(dp106
g24
Vline
p107
sg26
I01
sg12
I260
sg13
I636
sa(dp108
g26
I00
sg12
I248
sg13
I683
sa(dp109
g26
I00
sg12
I205
sg13
I706
sa(dp110
g24
Vcurve
p111
sg26
I01
sg12
I163
sg13
I706
sa(dp112
g26
I00
sg12
I115
sg13
I706
sa(dp113
g26
I00
sg12
I68
sg13
I676
sa(dp114
g24
Vcurve
p115
sg26
I01
sg12
I68
sg13
I616
sa(dp116
g24
Vline
p117
sg26
I01
sg12
I68
sg13
I26
sa(dp118
g26
I00
sg12
I68
sg13
I11
sa(dp119
g26
I00
sg12
I79
sg13
I0
sa(dp120
g24
Vcurve
p121
sg26
I01
sg12
I94
sg13
I0
sa(dp122
g24
Vline
p123
sg26
I01
sg12
I128
sg13
I0
sa(dp124
g26
I00
sg12
I143
sg13
I0
sa(dp125
g26
I00
sg12
I153
sg13
I11
sa(dp126
g24
Vcurve
p127
sg26
I01
sg12
I153
sg13
I26
sa(dp128
g24
Vline
p129
sg26
I01
sg12
I153
sg13
I617
sa(dp130
g26
I00
sg12
I153
sg13
I633
sa(dp131
g26
I00
sg12
I158
sg13
I641
sa(dp132
g24
Vcurve
p133
sg26
I01
sg12
I163
sg13
I641
sa(dp134
g26
I00
sg12
I168
sg13
I641
sa(dp135
g26
I00
sg12
I174
sg13
I634
sa(dp136
g24
Vcurve
p137
sg26
I01
sg12
I178
sg13
I619
sa(dp138
g24
Vline
p139
sg26
I01
sg12
I317
sg13
I64
sa(dp140
g26
I00
sg12
I329
sg13
I17
sa(dp141
g26
I00
sg12
I372
sg13
I-6
sa(dp142
g24
Vcurve
p143
sg26
I01
sg12
I414
sg13
I-6
sa(dp144
g26
I00
sg12
I462
sg13
I-6
sa(dp145
g26
I00
sg12
I509
sg13
I24
sa(dp146
g24
Vcurve
p147
sg26
I01
sg12
I509
sg13
I84
sa(dp148
g24
Vline
p149
sg26
I01
sg12
I509
sg13
I678
sa(dp150
g26
I00
sg12
I509
sg13
I693
sa(dp151
g26
I00
sg12
I498
sg13
I704
sa(dp152
g24
Vcurve
p153
sg26
I01
sg12
I483
sg13
I704
sasasg77
(dp154
sg10
g79
sg80
(lp155
sg82
I575
ssVRegular Feb 5 15, 12:02
p156
(dp157
g7
(lp158
sg16
(lp159
sg18
(lp160
(dp161
g21
(lp162
(dp163
g24
Vline
p164
sg26
I01
sg12
I451
sg13
I700
sa(dp165
g26
I00
sg12
I436
sg13
I700
sa(dp166
g26
I00
sg12
I425
sg13
I690
sa(dp167
g24
Vcurve
p168
sg26
I01
sg12
I425
sg13
I675
sa(dp169
g26
I00
sg12
I425
sg13
F435.347
sa(dp170
g26
I00
sg12
F427.454
sg13
F241.493
sa(dp171
g24
Vcurve
p172
sg26
I00
sg12
F430.881
sg13
F156.308
sa(dp173
g24
Vline
p174
sg26
I01
sg12
I166
sg13
I687
sa(dp175
g26
I00
sg12
I160
sg13
I700
sa(dp176
g26
I00
sg12
I150
sg13
I705
sa(dp177
g24
Vcurve
p178
sg26
I01
sg12
I136
sg13
I705
sa(dp179
g24
Vline
p180
sg26
I01
sg12
I92
sg13
I705
sa(dp181
g26
I00
sg12
I74
sg13
I705
sa(dp182
g26
I00
sg12
I65
sg13
I696
sa(dp183
g24
Vcurve
p184
sg26
I01
sg12
I65
sg13
I680
sa(dp185
g24
Vline
p186
sg26
I01
sg12
I65
sg13
I26
sa(dp187
g26
I00
sg12
I65
sg13
I11
sa(dp188
g26
I00
sg12
I76
sg13
I0
sa(dp189
g24
Vcurve
p190
sg26
I01
sg12
I91
sg13
I0
sa(dp191
g24
Vline
p192
sg26
I01
sg12
I125
sg13
I0
sa(dp193
g26
I00
sg12
I140
sg13
I0
sa(dp194
g26
I00
sg12
I150
sg13
I11
sa(dp195
g24
Vcurve
p196
sg26
I01
sg12
I150
sg13
I26
sa(dp197
g26
I00
sg12
I150
sg13
F250.393
sa(dp198
g26
I00
sg12
F148.237
sg13
F424.539
sa(dp199
g24
Vcurve
p200
sg26
I00
sg12
F143.883
sg13
F544.303
sa(dp201
g24
Vline
p202
sg26
I01
sg12
I410
sg13
I13
sa(dp203
g26
I00
sg12
I416
sg13
I1
sa(dp204
g26
I00
sg12
I425
sg13
I-5
sa(dp205
g24
Vcurve
p206
sg26
I01
sg12
I439
sg13
I-5
sa(dp207
g24
Vline
p208
sg26
I01
sg12
I484
sg13
I-5
sa(dp209
g26
I00
sg12
I501
sg13
I-5
sa(dp210
g26
I00
sg12
I510
sg13
I4
sa(dp211
g24
Vcurve
p212
sg26
I01
sg12
I510
sg13
I20
sa(dp213
g24
Vline
p214
sg26
I01
sg12
I510
sg13
I675
sa(dp215
g26
I00
sg12
I510
sg13
I690
sa(dp216
g26
I00
sg12
I500
sg13
I700
sa(dp217
g24
Vcurve
p218
sg26
I01
sg12
I485
sg13
I700
sasasg77
(dp219
sg10
g79
sg80
(lp220
sg82
I575
ssVRegular Jan 31 15, 16:21
p221
(dp222
g7
(lp223
(dp224
g10
Vtop
p225
sg12
I288
sg13
I700
sa(dp226
g10
Vbottom
p227
sg12
I288
sg13
I0
sasg16
(lp228
sg18
(lp229
(dp230
g21
(lp231
(dp232
g24
Vline
p233
sg26
I01
sg12
I451
sg13
I700
sa(dp234
g26
I00
sg12
I436
sg13
I700
sa(dp235
g26
I00
sg12
I425
sg13
I690
sa(dp236
g24
Vcurve
p237
sg26
I01
sg12
I425
sg13
I675
sa(dp238
g26
I00
sg12
I425
sg13
F435.347
sa(dp239
g26
I00
sg12
F427.454
sg13
F241.493
sa(dp240
g24
Vcurve
p241
sg26
I00
sg12
F430.881
sg13
F156.308
sa(dp242
g24
Vline
p243
sg26
I01
sg12
I166
sg13
I687
sa(dp244
g26
I00
sg12
I160
sg13
I700
sa(dp245
g26
I00
sg12
I150
sg13
I705
sa(dp246
g24
Vcurve
p247
sg26
I01
sg12
I136
sg13
I705
sa(dp248
g24
Vline
p249
sg26
I01
sg12
I92
sg13
I705
sa(dp250
g26
I00
sg12
I74
sg13
I705
sa(dp251
g26
I00
sg12
I65
sg13
I696
sa(dp252
g24
Vcurve
p253
sg26
I01
sg12
I65
sg13
I680
sa(dp254
g24
Vline
p255
sg26
I01
sg12
I65
sg13
I26
sa(dp256
g26
I00
sg12
I65
sg13
I11
sa(dp257
g26
I00
sg12
I76
sg13
I0
sa(dp258
g24
Vcurve
p259
sg26
I01
sg12
I91
sg13
I0
sa(dp260
g24
Vline
p261
sg26
I01
sg12
I125
sg13
I0
sa(dp262
g26
I00
sg12
I140
sg13
I0
sa(dp263
g26
I00
sg12
I150
sg13
I11
sa(dp264
g24
Vcurve
p265
sg26
I01
sg12
I150
sg13
I26
sa(dp266
g26
I00
sg12
I150
sg13
F250.393
sa(dp267
g26
I00
sg12
F148.237
sg13
F424.539
sa(dp268
g24
Vcurve
p269
sg26
I00
sg12
F143.883
sg13
F544.303
sa(dp270
g24
Vline
p271
sg26
I01
sg12
I410
sg13
I13
sa(dp272
g26
I00
sg12
I416
sg13
I1
sa(dp273
g26
I00
sg12
I425
sg13
I-5
sa(dp274
g24
Vcurve
p275
sg26
I01
sg12
I439
sg13
I-5
sa(dp276
g24
Vline
p277
sg26
I01
sg12
I484
sg13
I-5
sa(dp278
g26
I00
sg12
I501
sg13
I-5
sa(dp279
g26
I00
sg12
I510
sg13
I4
sa(dp280
g24
Vcurve
p281
sg26
I01
sg12
I510
sg13
I20
sa(dp282
g24
Vline
p283
sg26
I01
sg12
I510
sg13
I675
sa(dp284
g26
I00
sg12
I510
sg13
I690
sa(dp285
g26
I00
sg12
I500
sg13
I700
sa(dp286
g24
Vcurve
p287
sg26
I01
sg12
I485
sg13
I700
sasasg77
(dp288
sg10
g79
sg80
(lp289
sg82
I575
ssVRegular Jan 6 14, 22:39
p290
(dp291
g7
(lp292
(dp293
g10
Vtop
p294
sg12
I288
sg13
I700
sa(dp295
g10
Vbottom
p296
sg12
I288
sg13
I0
sasg16
(lp297
sg18
(lp298
(dp299
g21
(lp300
(dp301
g24
Vline
p302
sg26
I01
sg12
I434
sg13
I700
sa(dp303
g26
I00
sg12
I418
sg13
I700
sa(dp304
g26
I00
sg12
I409
sg13
I693
sa(dp305
g24
Vcurve
p306
sg26
I01
sg12
I409
sg13
I680
sa(dp307
g26
I00
sg12
I409
sg13
I521
sa(dp308
g26
I00
sg12
I415
sg13
I342
sa(dp309
g24
Vcurve
p310
sg26
I00
sg12
I424
sg13
I176
sa(dp311
g24
Vline
p312
sg26
I01
sg12
I178
sg13
I669
sa(dp313
g26
I00
sg12
I166
sg13
I692
sa(dp314
g26
I00
sg12
I149
sg13
I705
sa(dp315
g24
Vcurve
p316
sg26
I01
sg12
I131
sg13
I705
sa(dp317
g24
Vline
p318
sg26
I01
sg12
I108
sg13
I705
sa(dp319
g26
I00
sg12
I90
sg13
I705
sa(dp320
g26
I00
sg12
I81
sg13
I696
sa(dp321
g24
Vcurve
p322
sg26
I01
sg12
I81
sg13
I680
sa(dp323
g24
Vline
p324
sg26
I01
sg12
I81
sg13
I25
sa(dp325
g26
I00
sg12
I81
sg13
I9
sa(dp326
g26
I00
sg12
I90
sg13
I0
sa(dp327
g24
Vcurve
p328
sg26
I01
sg12
I106
sg13
I0
sa(dp329
g24
Vline
p330
sg26
I01
sg12
I141
sg13
I0
sa(dp331
g26
I00
sg12
I157
sg13
I0
sa(dp332
g26
I00
sg12
I166
sg13
I7
sa(dp333
g24
Vcurve
p334
sg26
I01
sg12
I166
sg13
I20
sa(dp335
g26
I00
sg12
I166
sg13
I235
sa(dp336
g26
I00
sg12
I163
sg13
I414
sa(dp337
g24
Vcurve
p338
sg26
I00
sg12
I156
sg13
I525
sa(dp339
g24
Vline
p340
sg26
I00
sg12
I398
sg13
I32
sa(dp341
g26
I00
sg12
I408
sg13
I8
sa(dp342
g26
I00
sg12
I426
sg13
I-5
sa(dp343
g24
Vcurve
p344
sg26
I01
sg12
I444
sg13
I-5
sa(dp345
g24
Vline
p346
sg26
I01
sg12
I468
sg13
I-5
sa(dp347
g26
I00
sg12
I485
sg13
I-5
sa(dp348
g26
I00
sg12
I494
sg13
I4
sa(dp349
g24
Vcurve
p350
sg26
I01
sg12
I494
sg13
I20
sa(dp351
g24
Vline
p352
sg26
I01
sg12
I494
sg13
I675
sa(dp353
g26
I00
sg12
I494
sg13
I691
sa(dp354
g26
I00
sg12
I486
sg13
I700
sa(dp355
g24
Vcurve
p356
sg26
I01
sg12
I469
sg13
I700
sasasg77
(dp357
sg10
g79
sg80
(lp358
sg82
I575
ssVRegular Jun 9 15, 16:51
p359
(dp360
g7
(lp361
sg16
(lp362
sg18
(lp363
(dp364
g21
(lp365
(dp366
g24
Vline
p367
sg26
I01
sg12
I457
sg13
I700
sa(dp368
g26
I00
sg12
I442
sg13
I700
sa(dp369
g26
I00
sg12
I432
sg13
I689
sa(dp370
g24
Vcurve
p371
sg26
I01
sg12
I432
sg13
I674
sa(dp372
g24
Vline
p373
sg26
I00
sg12
I432
sg13
I57
sa(dp374
g26
I00
sg12
I414
sg13
I59
sa(dp375
g26
I00
sg12
I402
sg13
I67
sa(dp376
g24
Vcurve
p377
sg26
I01
sg12
I398
sg13
I83
sa(dp378
g24
Vline
p379
sg26
I01
sg12
I266
sg13
I610
sa(dp380
g26
I00
sg12
I252
sg13
I667
sa(dp381
g26
I00
sg12
I208
sg13
I700
sa(dp382
g24
Vcurve
p383
sg26
I01
sg12
I144
sg13
I700
sa(dp384
g24
Vline
p385
sg26
I01
sg12
I86
sg13
I700
sa(dp386
g26
I00
sg12
I68
sg13
I700
sa(dp387
g26
I00
sg12
I59
sg13
I696
sa(dp388
g24
Vcurve
p389
sg26
I01
sg12
I59
sg13
I680
sa(dp390
g24
Vline
p391
sg26
I01
sg12
I59
sg13
I26
sa(dp392
g26
I00
sg12
I59
sg13
I11
sa(dp393
g26
I00
sg12
I70
sg13
I0
sa(dp394
g24
Vcurve
p395
sg26
I01
sg12
I85
sg13
I0
sa(dp396
g24
Vline
p397
sg26
I01
sg12
I119
sg13
I0
sa(dp398
g26
I00
sg12
I134
sg13
I0
sa(dp399
g26
I00
sg12
I144
sg13
I11
sa(dp400
g24
Vcurve
p401
sg26
I01
sg12
I144
sg13
I26
sa(dp402
g24
Vline
p403
sg26
I00
sg12
I144
sg13
I643
sa(dp404
g26
I00
sg12
I162
sg13
I641
sa(dp405
g26
I00
sg12
I174
sg13
I633
sa(dp406
g24
Vcurve
p407
sg26
I01
sg12
I178
sg13
I617
sa(dp408
g24
Vline
p409
sg26
I01
sg12
I310
sg13
I90
sa(dp410
g26
I00
sg12
I324
sg13
I33
sa(dp411
g26
I00
sg12
I368
sg13
I0
sa(dp412
g24
Vcurve
p413
sg26
I01
sg12
I432
sg13
I0
sa(dp414
g24
Vline
p415
sg26
I01
sg12
I490
sg13
I0
sa(dp416
g26
I00
sg12
I508
sg13
I0
sa(dp417
g26
I00
sg12
I517
sg13
I4
sa(dp418
g24
Vcurve
p419
sg26
I01
sg12
I517
sg13
I20
sa(dp420
g24
Vline
p421
sg26
I01
sg12
I517
sg13
I674
sa(dp422
g26
I00
sg12
I517
sg13
I689
sa(dp423
g26
I00
sg12
I506
sg13
I700
sa(dp424
g24
Vcurve
p425
sg26
I01
sg12
I491
sg13
I700
sasasg77
(dp426
sg10
g79
sg80
(lp427
sg82
I575
ssVbackground
p428
(dp429
g7
(lp430
sg16
(lp431
sg18
(lp432
(dp433
g21
(lp434
(dp435
g24
Vline
p436
sg26
I00
sg12
I262
sg13
I380
sa(dp437
g24
Vline
p438
sg26
I01
sg12
I109
sg13
I687
sa(dp439
g26
I00
sg12
I103
sg13
I700
sa(dp440
g26
I00
sg12
I93
sg13
I705
sa(dp441
g24
Vcurve
p442
sg26
I01
sg12
I79
sg13
I705
sa(dp443
g24
Vline
p444
sg26
I01
sg12
I78
sg13
I705
sa(dp445
g26
I00
sg12
I60
sg13
I705
sa(dp446
g26
I00
sg12
I51
sg13
I696
sa(dp447
g24
Vcurve
p448
sg26
I01
sg12
I51
sg13
I680
sa(dp449
g24
Vline
p450
sg26
I01
sg12
I51
sg13
I26
sa(dp451
g26
I00
sg12
I51
sg13
I11
sa(dp452
g26
I00
sg12
I62
sg13
I0
sa(dp453
g24
Vcurve
p454
sg26
I01
sg12
I77
sg13
I0
sa(dp455
g24
Vline
p456
sg26
I01
sg12
I111
sg13
I0
sa(dp457
g26
I00
sg12
I126
sg13
I0
sa(dp458
g26
I00
sg12
I136
sg13
I11
sa(dp459
g24
Vcurve
p460
sg26
I01
sg12
I136
sg13
I26
sa(dp461
g26
I00
sg12
I136
sg13
I275
sa(dp462
g26
I00
sg12
I134
sg13
I401
sa(dp463
g24
Vcurve
p464
sg26
I00
sg12
I131
sg13
I475
sa(dp465
g24
Vline
p466
sg26
I00
sg12
I194
sg13
I350
sasa(dp467
g21
(lp468
(dp469
g24
Vline
p470
sg26
I00
sg12
I299
sg13
I121
sa(dp471
g24
Vline
p472
sg26
I00
sg12
I373
sg13
I158
sa(dp473
g24
Vline
p474
sg26
I00
sg12
I262
sg13
I380
sa(dp475
g24
Vline
p476
sg26
I00
sg12
I188
sg13
I343
sasasg77
(dp477
sg10
g79
sg80
(lp478
sg82
I575
sss."
EndChar

StartChar: O
Encoding: 79 79 75
GlifName: O_
Width: 575
VWidth: 0
Flags: W
AnchorPoint: "top" 288 700 basechar 0
LayerCount: 2
Fore
SplineSet
85 457 m 258
 85 243 l 258
 85 76 170 -10 288 -10 c 256
 406 -10 490 78 490 243 c 258
 490 457 l 258
 490 622 406 710 288 710 c 256
 170 710 85 624 85 457 c 258
  PathStart: -2
170 243 m 258
 170 457 l 258
 170 569 223 634 288 634 c 256
 353 634 405 569 405 457 c 258
 405 243 l 258
 405 131 353 66 288 66 c 256
 223 66 170 131 170 243 c 258
  PathStart: -2
EndSplineSet
PickledDataWithLists: "(dp0
Vcom.schriftgestaltung.Glyphs.lastChange
p1
V2016-06-09 18:35:33 +0000
p2
s."
EndChar

StartChar: OE
Encoding: 338 338 76
GlifName: O_E_
Width: 575
VWidth: 0
Flags: W
LayerCount: 2
Fore
SplineSet
373 77 m 257
 373 326 l 257
 475 326 l 258
 491 326 500 335 500 351 c 258
 500 378 l 258
 500 394 491 403 475 403 c 258
 373 403 l 257
 373 624 l 257
 482 624 l 258
 498 624 507 632 507 649 c 258
 507 675 l 258
 507 692 498 700 482 700 c 258
 288 700 l 258
 146 700 85 594 85 447 c 258
 85 253 l 258
 85 109 144 0 288 0 c 258
 493 0 l 258
 510 0 518 9 518 25 c 258
 518 52 l 258
 518 68 510 77 493 77 c 258
 373 77 l 257
288 77 m 257
 196 77 170 161 170 253 c 258
 170 447 l 258
 170 539 196 624 288 624 c 257
 288 77 l 257
EndSplineSet
PickledDataWithLists: "(dp0
Vcom.schriftgestaltung.Glyphs.lastChange
p1
V2016-06-09 18:35:33 +0000
p2
s."
EndChar

StartChar: Oslash
Encoding: 216 216 84
GlifName: O_slash
Width: 575
VWidth: 0
Flags: W
AnchorPoint: "top" 288 700 basechar 0
LayerCount: 2
Fore
SplineSet
488 783 m 258
 474 790 462 786 455 772 c 258
 405 672 l 257
 373 697 333 710 288 710 c 256
 170 710 85 624 85 457 c 258
 85 243 l 258
 85 183 96 133 116 94 c 257
 42 -54 l 258
 35 -68 39 -80 53 -87 c 258
 85 -103 l 258
 99 -110 111 -106 118 -92 c 258
 176 23 l 257
 207 1 245 -10 288 -10 c 256
 406 -10 490 78 490 243 c 258
 490 457 l 258
 490 513 480 560 463 598 c 257
 531 734 l 258
 538 748 534 760 520 767 c 258
 488 783 l 258
170 457 m 258
 170 569 223 634 288 634 c 256
 318 634 345 620 366 594 c 257
 172 206 l 257
 171 218 170 230 170 243 c 258
 170 457 l 258
405 243 m 258
 405 131 353 66 288 66 c 256
 260 66 234 78 214 100 c 257
 404 480 l 257
 405 473 405 465 405 457 c 258
 405 243 l 258
EndSplineSet
PickledDataWithLists: "(dp0
Vcom.schriftgestaltung.Glyphs.lastChange
p1
V2016-06-09 18:35:33 +0000
p2
s."
EndChar

StartChar: P
Encoding: 80 80 86
GlifName: P_
Width: 575
VWidth: 0
Flags: W
LayerCount: 2
Fore
SplineSet
110 700 m 258
 94 700 85 691 85 675 c 258
 85 25 l 258
 85 9 94 0 110 0 c 258
 145 0 l 258
 162 0 170 9 170 25 c 258
 170 260 l 257
 245 260 l 258
 425 260 517 361 517 480 c 256
 517 596 427 700 245 700 c 258
 110 700 l 258
170 336 m 257
 170 624 l 257
 245 624 l 258
 372 624 432 556 432 480 c 256
 432 404 373 336 245 336 c 258
 170 336 l 257
EndSplineSet
PickledDataWithLists: "(dp0
Vcom.schriftgestaltung.Glyphs.lastChange
p1
V2016-06-09 18:35:33 +0000
p2
s."
EndChar

StartChar: Phi
Encoding: 934 934 87
GlifName: P_hi
Width: 575
VWidth: 0
Flags: W
LayerCount: 2
Fore
SplineSet
554 649 m 258
 554 675 l 258
 554 692 545 700 529 700 c 258
 47 700 l 258
 30 700 22 691 22 675 c 258
 22 649 l 258
 22 633 30 624 46 624 c 258
 245 624 l 257
 245 549 l 257
 120 535 45 461 45 350 c 256
 45 238 121 163 245 150 c 257
 245 76 l 257
 46 76 l 258
 30 76 22 67 22 51 c 258
 22 25 l 258
 22 9 30 0 47 0 c 258
 529 0 l 258
 545 0 554 8 554 25 c 258
 554 51 l 258
 554 67 545 76 529 76 c 258
 330 76 l 257
 330 150 l 257
 454 165 530 239 530 350 c 256
 530 463 454 537 330 550 c 257
 330 624 l 257
 529 624 l 258
 545 624 554 633 554 649 c 258
  PathStart: -2
245 472 m 257
 245 228 l 257
 173 240 130 285 130 350 c 256
 130 415 173 459 245 472 c 257
  PathStart: -2
330 228 m 257
 330 472 l 257
 402 460 445 415 445 350 c 256
 445 285 402 241 330 228 c 257
  PathStart: -2
EndSplineSet
PickledDataWithLists: "(dp0
Vcom.schriftgestaltung.Glyphs.lastChange
p1
V2015-12-22 12:22:42 +0000
p2
s."
EndChar

StartChar: Pi
Encoding: 928 928 88
GlifName: P_i
Width: 575
VWidth: 0
Flags: W
LayerCount: 2
Fore
SplineSet
110 700 m 258
 94 700 85 692 85 675 c 258
 85 25 l 258
 85 9 94 0 110 0 c 258
 145 0 l 258
 162 0 170 9 170 25 c 258
 170 624 l 257
 405 624 l 257
 405 25 l 258
 405 9 414 0 430 0 c 258
 465 0 l 258
 482 0 490 9 490 25 c 258
 490 675 l 258
 490 692 482 700 465 700 c 258
 110 700 l 258
EndSplineSet
PickledDataWithLists: "(dp0
Vcom.schriftgestaltung.Glyphs.lastChange
p1
V2015-12-22 12:20:26 +0000
p2
s."
EndChar

StartChar: Psi
Encoding: 936 936 89
GlifName: P_si
Width: 575
VWidth: 0
Flags: W
LayerCount: 2
Fore
SplineSet
460 700 m 258
 444 700 435 691 435 675 c 258
 435 433 l 258
 435 363 402 314 330 301 c 257
 330 675 l 258
 330 691 322 700 305 700 c 258
 270 700 l 258
 254 700 245 691 245 675 c 258
 245 301 l 257
 173 314 140 363 140 433 c 258
 140 675 l 258
 140 692 131 700 115 700 c 258
 80 700 l 258
 64 700 55 691 55 675 c 258
 55 433 l 258
 55 310 119 236 245 222 c 257
 245 25 l 258
 245 9 254 0 270 0 c 258
 305 0 l 258
 322 0 330 9 330 25 c 258
 330 222 l 257
 456 235 520 309 520 433 c 258
 520 675 l 258
 520 692 512 700 495 700 c 258
 460 700 l 258
EndSplineSet
PickledDataWithLists: "(dp0
Vcom.schriftgestaltung.Glyphs.lastChange
p1
V2015-12-22 12:24:48 +0000
p2
s."
EndChar

StartChar: Q
Encoding: 81 81 90
GlifName: Q_
Width: 575
VWidth: 0
Flags: W
AnchorPoint: "top" 288 700 basechar 0
LayerCount: 2
Fore
SplineSet
535 -142 m 257
 528 -127 517 -122 502 -128 c 256
 475 -138 452 -142 427 -142 c 256
 369 -142 331 -114 331 -6 c 257
 426 13 490 99 490 243 c 258
 490 457 l 258
 490 622 406 710 288 710 c 256
 170 710 85 624 85 457 c 258
 85 243 l 258
 85 97 150 13 245 -6 c 257
 245 -167 332 -220 427 -220 c 256
 462 -220 499 -212 532 -200 c 257
 548 -195 552 -183 546 -168 c 258
 535 -142 l 257
170 457 m 258
 170 569 223 634 288 634 c 256
 353 634 405 569 405 457 c 258
 405 243 l 258
 405 131 353 66 288 66 c 256
 223 66 170 131 170 243 c 258
 170 457 l 258
EndSplineSet
PickledDataWithLists: "(dp0
Vcom.schriftgestaltung.Glyphs.lastChange
p1
V2016-06-09 18:35:33 +0000
p2
sVcom.typemytype.robofont.layerData
p3
(dp4
VRegular Dec 30 14, 23:49
p5
(dp6
Vanchors
p7
(lp8
sVcomponents
p9
(lp10
sVcontours
p11
(lp12
(dp13
Vpoints
p14
(lp15
(dp16
VsegmentType
p17
Vline
p18
sVsmooth
p19
I01
sVx
p20
I447
sVy
p21
I-171
sa(dp22
g19
I00
sg20
I346
sg21
I-171
sa(dp23
g19
I00
sg20
I328
sg21
I-123
sa(dp24
g17
Vcurve
p25
sg19
I00
sg20
I330
sg21
I-6
sa(dp26
g17
Vline
p27
sg19
I00
sg20
I245
sg21
I-6
sa(dp28
g19
I00
sg20
I246
sg21
I-165
sa(dp29
g19
I00
sg20
I286
sg21
I-248
sa(dp30
g17
Vcurve
p31
sg19
I01
sg20
I447
sg21
I-248
sa(dp32
g17
Vline
p33
sg19
I01
sg20
I508
sg21
I-248
sa(dp34
g19
I00
sg20
I524
sg21
I-248
sa(dp35
g19
I00
sg20
I533
sg21
I-239
sa(dp36
g17
Vcurve
p37
sg19
I01
sg20
I533
sg21
I-223
sa(dp38
g17
Vline
p39
sg19
I01
sg20
I533
sg21
I-196
sa(dp40
g19
I00
sg20
I533
sg21
I-180
sa(dp41
g19
I00
sg20
I524
sg21
I-171
sa(dp42
g17
Vcurve
p43
sg19
I01
sg20
I508
sg21
I-171
sasa(dp44
g14
(lp45
(dp46
g17
Vline
p47
sg19
I01
sg20
I85
sg21
I243
sa(dp48
g19
I00
sg20
I85
sg21
I99
sa(dp49
g19
I00
sg20
I144
sg21
I-10
sa(dp50
g17
Vcurve
p51
sg19
I01
sg20
I288
sg21
I-10
sa(dp52
g19
I00
sg20
I429
sg21
I-10
sa(dp53
g19
I00
sg20
I490
sg21
I97
sa(dp54
g17
Vcurve
p55
sg19
I01
sg20
I490
sg21
I243
sa(dp56
g17
Vline
p57
sg19
I01
sg20
I490
sg21
I457
sa(dp58
g19
I00
sg20
I490
sg21
I602
sa(dp59
g19
I00
sg20
I431
sg21
I710
sa(dp60
g17
Vcurve
p61
sg19
I01
sg20
I288
sg21
I710
sa(dp62
g19
I00
sg20
I146
sg21
I710
sa(dp63
g19
I00
sg20
I85
sg21
I604
sa(dp64
g17
Vcurve
p65
sg19
I01
sg20
I85
sg21
I457
sasa(dp66
g14
(lp67
(dp68
g17
Vline
p69
sg19
I01
sg20
I405
sg21
I243
sa(dp70
g19
I00
sg20
I405
sg21
I151
sa(dp71
g19
I00
sg20
I380
sg21
I67
sa(dp72
g17
Vcurve
p73
sg19
I01
sg20
I288
sg21
I67
sa(dp74
g19
I00
sg20
I196
sg21
I67
sa(dp75
g19
I00
sg20
I170
sg21
I151
sa(dp76
g17
Vcurve
p77
sg19
I01
sg20
I170
sg21
I243
sa(dp78
g17
Vline
p79
sg19
I01
sg20
I170
sg21
I457
sa(dp80
g19
I00
sg20
I170
sg21
I549
sa(dp81
g19
I00
sg20
I196
sg21
I634
sa(dp82
g17
Vcurve
p83
sg19
I01
sg20
I288
sg21
I634
sa(dp84
g19
I00
sg20
I380
sg21
I634
sa(dp85
g19
I00
sg20
I405
sg21
I549
sa(dp86
g17
Vcurve
p87
sg19
I01
sg20
I405
sg21
I457
sasasVlib
p88
(dp89
sVname
p90
VQ
p91
sVunicodes
p92
(lp93
sVwidth
p94
I575
sss."
EndChar

StartChar: R
Encoding: 82 82 91
GlifName: R_
Width: 575
VWidth: 0
Flags: W
AnchorPoint: "top" 288 700 basechar 0
AnchorPoint: "bottom" 288 0 basechar 0
LayerCount: 2
Fore
SplineSet
398 335 m 257
 463 367 500 434 500 506 c 256
 500 615 421 700 268 700 c 258
 110 700 l 258
 94 700 85 692 85 675 c 258
 85 25 l 258
 85 9 94 0 110 0 c 258
 145 0 l 258
 161 0 170 9 170 25 c 258
 170 312 l 257
 315 312 l 257
 462 18 l 258
 468 6 477 0 491 0 c 258
 533 0 l 258
 552 0 560 12 551 30 c 258
 398 335 l 257
170 389 m 257
 170 624 l 257
 268 624 l 258
 367 624 415 565 415 506 c 256
 415 448 369 389 268 389 c 258
 170 389 l 257
EndSplineSet
PickledDataWithLists: "(dp0
Vcom.schriftgestaltung.Glyphs.lastChange
p1
V2016-06-09 18:35:33 +0000
p2
sVcom.typemytype.robofont.layerData
p3
(dp4
VRegular Jan 23 14, 23:00
p5
(dp6
Vanchors
p7
(lp8
(dp9
Vname
p10
Vtop
p11
sVx
p12
I288
sVy
p13
I700
sa(dp14
g10
Vbottom
p15
sg12
I288
sg13
I0
sasVcomponents
p16
(lp17
sVcontours
p18
(lp19
(dp20
Vpoints
p21
(lp22
(dp23
VsegmentType
p24
Vline
p25
sVsmooth
p26
I01
sg12
I533
sg13
I0
sa(dp27
g26
I00
sg12
I552
sg13
I0
sa(dp28
g26
I00
sg12
I560
sg13
I12
sa(dp29
g24
Vcurve
p30
sg26
I01
sg12
I551
sg13
I30
sa(dp31
g24
Vline
p32
sg26
I00
sg12
I401
sg13
I330
sa(dp33
g26
I00
sg12
I459
sg13
I358
sa(dp34
g26
I00
sg12
I500
sg13
I421
sa(dp35
g24
Vcurve
p36
sg26
I01
sg12
I500
sg13
I506
sa(dp37
g26
I00
sg12
I500
sg13
I635
sa(dp38
g26
I00
sg12
I421
sg13
I700
sa(dp39
g24
Vcurve
p40
sg26
I01
sg12
I288
sg13
I700
sa(dp41
g24
Vline
p42
sg26
I01
sg12
I110
sg13
I700
sa(dp43
g26
I00
sg12
I94
sg13
I700
sa(dp44
g26
I00
sg12
I85
sg13
I692
sa(dp45
g24
Vcurve
p46
sg26
I01
sg12
I85
sg13
I675
sa(dp47
g24
Vline
p48
sg26
I01
sg12
I85
sg13
I25
sa(dp49
g26
I00
sg12
I85
sg13
I9
sa(dp50
g26
I00
sg12
I94
sg13
I0
sa(dp51
g24
Vcurve
p52
sg26
I01
sg12
I110
sg13
I0
sa(dp53
g24
Vline
p54
sg26
I01
sg12
I145
sg13
I0
sa(dp55
g26
I00
sg12
I161
sg13
I0
sa(dp56
g26
I00
sg12
I170
sg13
I9
sa(dp57
g24
Vcurve
p58
sg26
I01
sg12
I170
sg13
I25
sa(dp59
g24
Vline
p60
sg26
I00
sg12
I170
sg13
I312
sa(dp61
g24
Vline
p62
sg26
I00
sg12
I315
sg13
I312
sa(dp63
g24
Vline
p64
sg26
I01
sg12
I462
sg13
I18
sa(dp65
g26
I00
sg12
I468
sg13
I6
sa(dp66
g26
I00
sg12
I477
sg13
I0
sa(dp67
g24
Vcurve
p68
sg26
I01
sg12
I491
sg13
I0
sasa(dp69
g21
(lp70
(dp71
g24
Vline
p72
sg26
I00
sg12
I170
sg13
I389
sa(dp73
g24
Vline
p74
sg26
I00
sg12
I170
sg13
I624
sa(dp75
g24
Vline
p76
sg26
I01
sg12
I288
sg13
I624
sa(dp77
g26
I00
sg12
I367
sg13
I624
sa(dp78
g26
I00
sg12
I415
sg13
I585
sa(dp79
g24
Vcurve
p80
sg26
I01
sg12
I415
sg13
I506
sa(dp81
g26
I00
sg12
I415
sg13
I430
sa(dp82
g26
I00
sg12
I369
sg13
I389
sa(dp83
g24
Vcurve
p84
sg26
I01
sg12
I288
sg13
I389
sasasVlib
p85
(dp86
sg10
VR
p87
sVunicodes
p88
(lp89
sVwidth
p90
I575
sss."
EndChar

StartChar: S
Encoding: 83 83 95
GlifName: S_
Width: 575
VWidth: 0
Flags: W
AnchorPoint: "top" 288 696 basechar 0
AnchorPoint: "bottom" 288 0 basechar 0
LayerCount: 2
Fore
SplineSet
467 652 m 258
 472 668 471 676 456 683 c 256
 415 701 359 710 316 710 c 256
 196 710 82 646 82 521 c 256
 82 434 138 349 284 318 c 256
 385 297 428 246 428 190 c 256
 428 113 348 69 255 69 c 256
 221 69 169 75 130 91 c 256
 115 97 104 92 98 77 c 258
 88 53 l 258
 82 38 86 26 101 20 c 256
 147 0 202 -10 250 -10 c 256
 387 -10 514 69 514 195 c 256
 514 291 441 372 292 403 c 256
 206 421 168 474 168 524 c 256
 168 593 239 634 316 634 c 256
 354 634 392 624 427 611 c 256
 442 605 453 610 458 625 c 258
 467 652 l 258
EndSplineSet
PickledDataWithLists: "(dp0
Vcom.schriftgestaltung.Glyphs.lastChange
p1
V2016-06-09 18:35:33 +0000
p2
sVcom.typemytype.robofont.layerData
p3
(dp4
VRegular Dec 14 13, 11:16
p5
(dp6
Vanchors
p7
(lp8
sVcomponents
p9
(lp10
sVcontours
p11
(lp12
(dp13
Vpoints
p14
(lp15
(dp16
VsegmentType
p17
Vline
p18
sVsmooth
p19
I01
sVx
p20
I453
sVy
p21
I667
sa(dp22
g19
I00
sg20
I457
sg21
I683
sa(dp23
g19
I00
sg20
I450
sg21
I694
sa(dp24
g17
Vcurve
p25
sg19
I01
sg20
I434
sg21
I698
sa(dp26
g19
I00
sg20
I376
sg21
I708
sa(dp27
g19
I00
sg20
I330
sg21
I710
sa(dp28
g17
Vcurve
p29
sg19
I01
sg20
I297
sg21
I710
sa(dp30
g19
I00
sg20
I174
sg21
I710
sa(dp31
g19
I00
sg20
I85
sg21
I653
sa(dp32
g17
Vcurve
p33
sg19
I01
sg20
I85
sg21
I538
sa(dp34
g19
I00
sg20
I85
sg21
I424
sa(dp35
g19
I00
sg20
I164
sg21
I365
sa(dp36
g17
Vcurve
p37
sg19
I01
sg20
I268
sg21
I316
sa(dp38
g19
I00
sg20
I334
sg21
I287
sa(dp39
g19
I00
sg20
I407
sg21
I250
sa(dp40
g17
Vcurve
p41
sg19
I01
sg20
I407
sg21
I172
sa(dp42
g19
I00
sg20
I407
sg21
I103
sa(dp43
g19
I00
sg20
I357
sg21
I67
sa(dp44
g17
Vcurve
p45
sg19
I01
sg20
I259
sg21
I67
sa(dp46
g19
I00
sg20
I230
sg21
I67
sa(dp47
g19
I00
sg20
I179
sg21
I68
sa(dp48
g17
Vcurve
p49
sg19
I01
sg20
I118
sg21
I79
sa(dp50
g19
I00
sg20
I102
sg21
I81
sa(dp51
g19
I00
sg20
I92
sg21
I75
sa(dp52
g17
Vcurve
p53
sg19
I01
sg20
I88
sg21
I59
sa(dp54
g17
Vline
p55
sg19
I01
sg20
I82
sg21
I33
sa(dp56
g19
I00
sg20
I79
sg21
I17
sa(dp57
g19
I00
sg20
I86
sg21
I6
sa(dp58
g17
Vcurve
p59
sg19
I01
sg20
I102
sg21
I3
sa(dp60
g19
I00
sg20
I168
sg21
I-8
sa(dp61
g19
I00
sg20
I223
sg21
I-10
sa(dp62
g17
Vcurve
p63
sg19
I01
sg20
I259
sg21
I-10
sa(dp64
g19
I00
sg20
I416
sg21
I-10
sa(dp65
g19
I00
sg20
I493
sg21
I62
sa(dp66
g17
Vcurve
p67
sg19
I01
sg20
I493
sg21
I166
sa(dp68
g19
I00
sg20
I493
sg21
I280
sa(dp69
g19
I00
sg20
I407
sg21
I333
sa(dp70
g17
Vcurve
p71
sg19
I01
sg20
I307
sg21
I384
sa(dp72
g19
I00
sg20
I238
sg21
I420
sa(dp73
g19
I00
sg20
I170
sg21
I461
sa(dp74
g17
Vcurve
p75
sg19
I01
sg20
I170
sg21
I537
sa(dp76
g19
I00
sg20
I170
sg21
I607
sa(dp77
g19
I00
sg20
I224
sg21
I634
sa(dp78
g17
Vcurve
p79
sg19
I01
sg20
I297
sg21
I634
sa(dp80
g19
I00
sg20
I321
sg21
I634
sa(dp81
g19
I00
sg20
I365
sg21
I632
sa(dp82
g17
Vcurve
p83
sg19
I01
sg20
I416
sg21
I623
sa(dp84
g19
I00
sg20
I432
sg21
I620
sa(dp85
g19
I00
sg20
I442
sg21
I626
sa(dp86
g17
Vcurve
p87
sg19
I01
sg20
I446
sg21
I641
sasasVlib
p88
(dp89
sVname
p90
VS
p91
sVunicodes
p92
(lp93
sVwidth
p94
I575
ssVRegular Jan 12 15, 17:10
p95
(dp96
g7
(lp97
(dp98
g90
Vtop
p99
sg20
I288
sg21
I700
sa(dp100
g90
Vbottom
p101
sg20
I288
sg21
I0
sasg9
(lp102
sg11
(lp103
(dp104
g14
(lp105
(dp106
g17
Vline
p107
sg19
I01
sg20
I453
sg21
I667
sa(dp108
g19
I00
sg20
I457
sg21
I683
sa(dp109
g19
I00
sg20
I450
sg21
I694
sa(dp110
g17
Vcurve
p111
sg19
I01
sg20
I434
sg21
I698
sa(dp112
g19
I00
sg20
I376
sg21
I708
sa(dp113
g19
I00
sg20
I330
sg21
I710
sa(dp114
g17
Vcurve
p115
sg19
I01
sg20
I297
sg21
I710
sa(dp116
g19
I00
sg20
I174
sg21
I710
sa(dp117
g19
I00
sg20
I85
sg21
I653
sa(dp118
g17
Vcurve
p119
sg19
I01
sg20
I85
sg21
I538
sa(dp120
g19
I00
sg20
I85
sg21
I424
sa(dp121
g19
I00
sg20
I164
sg21
I365
sa(dp122
g17
Vcurve
p123
sg19
I01
sg20
I268
sg21
I316
sa(dp124
g19
I00
sg20
I334
sg21
I287
sa(dp125
g19
I00
sg20
I407
sg21
I250
sa(dp126
g17
Vcurve
p127
sg19
I01
sg20
I407
sg21
I172
sa(dp128
g19
I00
sg20
I407
sg21
I103
sa(dp129
g19
I00
sg20
I357
sg21
I67
sa(dp130
g17
Vcurve
p131
sg19
I01
sg20
I259
sg21
I67
sa(dp132
g19
I00
sg20
I230
sg21
I67
sa(dp133
g19
I00
sg20
I179
sg21
I68
sa(dp134
g17
Vcurve
p135
sg19
I01
sg20
I118
sg21
I79
sa(dp136
g19
I00
sg20
I102
sg21
I81
sa(dp137
g19
I00
sg20
I92
sg21
I75
sa(dp138
g17
Vcurve
p139
sg19
I01
sg20
I88
sg21
I59
sa(dp140
g17
Vline
p141
sg19
I01
sg20
I82
sg21
I33
sa(dp142
g19
I00
sg20
I79
sg21
I17
sa(dp143
g19
I00
sg20
I86
sg21
I6
sa(dp144
g17
Vcurve
p145
sg19
I01
sg20
I102
sg21
I3
sa(dp146
g19
I00
sg20
I168
sg21
I-8
sa(dp147
g19
I00
sg20
I223
sg21
I-10
sa(dp148
g17
Vcurve
p149
sg19
I01
sg20
I259
sg21
I-10
sa(dp150
g19
I00
sg20
I416
sg21
I-10
sa(dp151
g19
I00
sg20
I493
sg21
I62
sa(dp152
g17
Vcurve
p153
sg19
I01
sg20
I493
sg21
I166
sa(dp154
g19
I00
sg20
I493
sg21
I280
sa(dp155
g19
I00
sg20
I407
sg21
I333
sa(dp156
g17
Vcurve
p157
sg19
I01
sg20
I307
sg21
I384
sa(dp158
g19
I00
sg20
I238
sg21
I420
sa(dp159
g19
I00
sg20
I170
sg21
I461
sa(dp160
g17
Vcurve
p161
sg19
I01
sg20
I170
sg21
I537
sa(dp162
g19
I00
sg20
I170
sg21
I607
sa(dp163
g19
I00
sg20
I224
sg21
I634
sa(dp164
g17
Vcurve
p165
sg19
I01
sg20
I297
sg21
I634
sa(dp166
g19
I00
sg20
I321
sg21
I634
sa(dp167
g19
I00
sg20
I365
sg21
I632
sa(dp168
g17
Vcurve
p169
sg19
I01
sg20
I416
sg21
I623
sa(dp170
g19
I00
sg20
I432
sg21
I620
sa(dp171
g19
I00
sg20
I442
sg21
I626
sa(dp172
g17
Vcurve
p173
sg19
I01
sg20
I446
sg21
I641
sasasg88
(dp174
sg90
g91
sg92
(lp175
sg94
I575
ssVRegular Jan 27 15, 08:58
p176
(dp177
g7
(lp178
(dp179
g90
Vtop
p180
sg20
I288
sg21
I700
sa(dp181
g90
Vbottom
p182
sg20
I288
sg21
I0
sasg9
(lp183
sg11
(lp184
(dp185
g14
(lp186
(dp187
g19
I00
sg20
I165
sg21
I3
sa(dp188
g19
I00
sg20
I234
sg21
I-10
sa(dp189
g17
Vcurve
p190
sg19
I01
sg20
I295
sg21
I-10
sa(dp191
g19
I00
sg20
F405.766
sg21
I-10
sa(dp192
g19
I00
sg20
I513
sg21
F34.472
sa(dp193
g17
Vcurve
p194
sg19
I01
sg20
I513
sg21
I170
sa(dp195
g19
I00
sg20
I513
sg21
F294.397
sa(dp196
g19
I00
sg20
F403.681
sg21
F347.127
sa(dp197
g17
Vcurve
p198
sg19
I01
sg20
F318.681
sg21
F388.127
sa(dp199
g19
I00
sg20
F234.347
sg21
F428.326
sa(dp200
g19
I00
sg20
I172
sg21
F460.447
sa(dp201
g17
Vcurve
p202
sg19
I01
sg20
I172
sg21
I536
sa(dp203
g19
I00
sg20
I172
sg21
F609.005
sa(dp204
g19
I00
sg20
F213.993
sg21
I632
sa(dp205
g17
Vcurve
p206
sg19
I01
sg20
I289
sg21
I632
sa(dp207
g19
I00
sg20
I333
sg21
I632
sa(dp208
g19
I00
sg20
I381
sg21
I623
sa(dp209
g17
Vcurve
p210
sg19
I01
sg20
I432
sg21
I609
sa(dp211
g19
I00
sg20
I447
sg21
I605
sa(dp212
g19
I00
sg20
I458
sg21
I610
sa(dp213
g17
Vcurve
p214
sg19
I01
sg20
I463
sg21
I625
sa(dp215
g17
Vline
p216
sg19
I01
sg20
I474
sg21
I652
sa(dp217
g19
I00
sg20
I480
sg21
I668
sa(dp218
g19
I00
sg20
I474
sg21
I680
sa(dp219
g17
Vcurve
p220
sg19
I01
sg20
I458
sg21
I684
sa(dp221
g19
I00
sg20
I401
sg21
I699
sa(dp222
g19
I00
sg20
I341
sg21
I710
sa(dp223
g17
Vcurve
p224
sg19
I01
sg20
I289
sg21
I710
sa(dp225
g19
I00
sg20
F183.965
sg21
I710
sa(dp226
g19
I00
sg20
I86
sg21
F663.03
sa(dp227
g17
Vcurve
p228
sg19
I01
sg20
I86
sg21
I536
sa(dp229
g19
I00
sg20
I86
sg21
F411.603
sa(dp230
g19
I00
sg20
F195.319
sg21
F358.873
sa(dp231
g17
Vcurve
p232
sg19
I01
sg20
F281.495
sg21
F317.796
sa(dp233
g19
I00
sg20
F364.48
sg21
F277.76
sa(dp234
g19
I00
sg20
I427
sg21
F245.553
sa(dp235
g17
Vcurve
p236
sg19
I01
sg20
I427
sg21
I170
sa(dp237
g19
I00
sg20
I427
sg21
F91.495
sa(dp238
g19
I00
sg20
F378.273
sg21
I68
sa(dp239
g17
Vcurve
p240
sg19
I01
sg20
I295
sg21
I68
sa(dp241
g19
I00
sg20
I242
sg21
I68
sa(dp242
g19
I00
sg20
I184
sg21
I79
sa(dp243
g17
Vcurve
p244
sg19
I01
sg20
I129
sg21
I93
sa(dp245
g19
I00
sg20
I114
sg21
I97
sa(dp246
g19
I00
sg20
I103
sg21
I92
sa(dp247
g17
Vcurve
p248
sg19
I01
sg20
I97
sg21
I77
sa(dp249
g17
Vline
p250
sg19
I01
sg20
I87
sg21
I50
sa(dp251
g19
I00
sg20
I80
sg21
I34
sa(dp252
g19
I00
sg20
I86
sg21
I22
sa(dp253
g17
Vcurve
p254
sg19
I01
sg20
I103
sg21
I18
sasasg88
(dp255
sg90
g91
sg92
(lp256
sg94
I575
ssVbackground
p257
(dp258
g7
(lp259
sg9
(lp260
sg11
(lp261
(dp262
g14
(lp263
(dp264
g19
I00
sg20
I171
sg21
I360
sa(dp265
g17
Vcurve
p266
sg19
I01
sg20
I171
sg21
I530
sa(dp267
g19
I00
sg20
I171
sg21
I593
sa(dp268
g19
I00
sg20
I231
sg21
I632
sa(dp269
g17
Vcurve
p270
sg19
I01
sg20
I328
sg21
I632
sa(dp271
g19
I00
sg20
I369
sg21
I632
sa(dp272
g19
I00
sg20
I405
sg21
I625
sa(dp273
g17
Vcurve
p274
sg19
I01
sg20
I449
sg21
I609
sa(dp275
g19
I00
sg20
I464
sg21
I603
sa(dp276
g19
I00
sg20
I475
sg21
I608
sa(dp277
g17
Vcurve
p278
sg19
I01
sg20
I481
sg21
I623
sa(dp279
g17
Vline
p280
sg19
I01
sg20
I491
sg21
I647
sa(dp281
g19
I00
sg20
I497
sg21
I662
sa(dp282
g19
I00
sg20
I493
sg21
I674
sa(dp283
g17
Vcurve
p284
sg19
I01
sg20
I478
sg21
I680
sa(dp285
g19
I00
sg20
I431
sg21
I700
sa(dp286
g19
I00
sg20
I379
sg21
I710
sa(dp287
g17
Vcurve
p288
sg19
I01
sg20
I328
sg21
I710
sa(dp289
g19
I00
sg20
I178
sg21
I710
sa(dp290
g19
I00
sg20
I85
sg21
I641
sa(dp291
g17
Vcurve
p292
sg19
I01
sg20
I85
sg21
I530
sa(dp293
g19
I00
sg20
I85
sg21
I290
sa(dp294
g19
I00
sg20
I428
sg21
I360
sa(dp295
g17
Vcurve
p296
sg19
I01
sg20
I428
sg21
I190
sa(dp297
g19
I00
sg20
I428
sg21
I123
sa(dp298
g19
I00
sg20
I368
sg21
I68
sa(dp299
g17
Vcurve
p300
sg19
I01
sg20
I251
sg21
I68
sa(dp301
g19
I00
sg20
I210
sg21
I68
sa(dp302
g19
I00
sg20
I155
sg21
I78
sa(dp303
g17
Vcurve
p304
sg19
I00
sg20
I110
sg21
I94
sa(dp305
g19
I00
sg20
I95
sg21
I100
sa(dp306
g19
I00
sg20
I84
sg21
I95
sa(dp307
g17
Vcurve
p308
sg19
I01
sg20
I78
sg21
I80
sa(dp309
g17
Vline
p310
sg19
I01
sg20
I68
sg21
I56
sa(dp311
g19
I00
sg20
I62
sg21
I41
sa(dp312
g19
I00
sg20
I66
sg21
I29
sa(dp313
g17
Vcurve
p314
sg19
I01
sg20
I81
sg21
I23
sa(dp315
g19
I00
sg20
I128
sg21
I3
sa(dp316
g19
I00
sg20
I200
sg21
I-10
sa(dp317
g17
Vcurve
p318
sg19
I01
sg20
I251
sg21
I-10
sa(dp319
g19
I00
sg20
I425
sg21
I-10
sa(dp320
g19
I00
sg20
I514
sg21
I71
sa(dp321
g17
Vcurve
p322
sg19
I01
sg20
I514
sg21
I190
sa(dp323
g19
I00
sg20
I514
sg21
I430
sasasg88
(dp324
sg90
g91
sg92
(lp325
sg94
I575
sss."
EndChar

StartChar: T
Encoding: 84 84 101
GlifName: T_
Width: 575
VWidth: 0
Flags: W
AnchorPoint: "center" 288 350 basechar 0
AnchorPoint: "bottom" 288 0 basechar 0
AnchorPoint: "top" 288 700 basechar 0
LayerCount: 2
Fore
SplineSet
554 675 m 258
 554 692 545 700 529 700 c 258
 47 700 l 258
 30 700 22 691 22 675 c 258
 22 649 l 258
 22 633 30 624 46 624 c 258
 245 624 l 257
 245 25 l 258
 245 9 254 0 270 0 c 258
 305 0 l 258
 322 0 330 9 330 25 c 258
 330 624 l 257
 529 624 l 258
 545 624 554 633 554 649 c 258
 554 675 l 258
EndSplineSet
PickledDataWithLists: "(dp0
Vcom.schriftgestaltung.Glyphs.lastChange
p1
V2016-06-09 18:35:33 +0000
p2
s."
EndChar

StartChar: Theta
Encoding: 920 920 105
GlifName: T_heta
Width: 575
VWidth: 0
Flags: W
LayerCount: 2
Fore
SplineSet
226 337 m 258
 226 321 235 312 251 312 c 258
 320 312 l 258
 336 312 345 321 345 337 c 258
 345 364 l 258
 345 380 336 389 320 389 c 258
 251 389 l 258
 235 389 226 380 226 364 c 258
 226 337 l 258
EndSplineSet
Refer: 75 79 N 1 0 0 1 0 0 2
PickledDataWithLists: "(dp0
Vcom.schriftgestaltung.Glyphs.lastChange
p1
V2016-05-30 08:32:14 +0000
p2
s."
EndChar

StartChar: Thorn
Encoding: 222 222 106
GlifName: T_horn
Width: 575
VWidth: 0
Flags: W
LayerCount: 2
Fore
SplineSet
170 675 m 258
 170 691 161 700 145 700 c 258
 110 700 l 258
 94 700 85 691 85 675 c 258
 85 25 l 258
 85 9 94 0 110 0 c 258
 145 0 l 258
 161 0 170 9 170 25 c 258
 170 126 l 257
 208 122 239 121 259 121 c 256
 426 121 490 197 490 382 c 256
 490 567 425 642 259 642 c 256
 237 642 206 641 170 637 c 257
 170 675 l 258
170 562 m 257
 209 565 241 565 259 565 c 256
 373 565 405 514 405 382 c 256
 405 247 371 198 259 198 c 256
 239 198 207 199 170 202 c 257
 170 562 l 257
EndSplineSet
PickledDataWithLists: "(dp0
Vcom.schriftgestaltung.Glyphs.lastChange
p1
V2016-06-09 18:35:33 +0000
p2
s."
EndChar

StartChar: U
Encoding: 85 85 107
GlifName: U_
Width: 575
VWidth: 0
Flags: W
AnchorPoint: "ogonek" 355 5 basechar 0
AnchorPoint: "top" 288 700 basechar 0
AnchorPoint: "topright" 555 700 basechar 0
AnchorPoint: "bottom" 288 0 basechar 0
LayerCount: 2
Fore
SplineSet
405 213 m 258
 405 103 372 66 288 66 c 256
 203 66 170 103 170 213 c 258
 170 675 l 258
 170 691 161 700 145 700 c 258
 110 700 l 258
 94 700 85 691 85 675 c 258
 85 213 l 258
 85 46 170 -10 288 -10 c 256
 406 -10 490 46 490 213 c 258
 490 675 l 258
 490 691 481 700 465 700 c 258
 430 700 l 258
 414 700 405 691 405 675 c 258
 405 213 l 258
EndSplineSet
PickledDataWithLists: "(dp0
Vcom.schriftgestaltung.Glyphs.lastChange
p1
V2016-06-09 18:35:33 +0000
p2
sVcom.typemytype.robofont.layerData
p3
(dp4
VRegular Dec 21 15, 18:29
p5
(dp6
Vanchors
p7
(lp8
(dp9
Vname
p10
Vogonek
p11
sVx
p12
I355
sVy
p13
I5
sa(dp14
g10
Vtop
p15
sg12
I288
sg13
I700
sasVcomponents
p16
(lp17
sVcontours
p18
(lp19
(dp20
Vpoints
p21
(lp22
(dp23
VsegmentType
p24
Vline
p25
sVsmooth
p26
I01
sg12
I430
sg13
I700
sa(dp27
g26
I00
sg12
I414
sg13
I700
sa(dp28
g26
I00
sg12
I405
sg13
I691
sa(dp29
g24
Vcurve
p30
sg26
I01
sg12
I405
sg13
I675
sa(dp31
g24
Vline
p32
sg26
I01
sg12
I405
sg13
I213
sa(dp33
g26
I00
sg12
I405
sg13
I110
sa(dp34
g26
I00
sg12
I353
sg13
I66
sa(dp35
g24
Vcurve
p36
sg26
I01
sg12
I288
sg13
I66
sa(dp37
g26
I00
sg12
I223
sg13
I66
sa(dp38
g26
I00
sg12
I170
sg13
I110
sa(dp39
g24
Vcurve
p40
sg26
I01
sg12
I170
sg13
I213
sa(dp41
g24
Vline
p42
sg26
I01
sg12
I170
sg13
I675
sa(dp43
g26
I00
sg12
I170
sg13
I692
sa(dp44
g26
I00
sg12
I161
sg13
I700
sa(dp45
g24
Vcurve
p46
sg26
I01
sg12
I145
sg13
I700
sa(dp47
g24
Vline
p48
sg26
I01
sg12
I110
sg13
I700
sa(dp49
g26
I00
sg12
I94
sg13
I700
sa(dp50
g26
I00
sg12
I85
sg13
I691
sa(dp51
g24
Vcurve
p52
sg26
I01
sg12
I85
sg13
I675
sa(dp53
g24
Vline
p54
sg26
I01
sg12
I85
sg13
I213
sa(dp55
g26
I00
sg12
I85
sg13
I46
sa(dp56
g26
I00
sg12
I170
sg13
I-10
sa(dp57
g24
Vcurve
p58
sg26
I01
sg12
I288
sg13
I-10
sa(dp59
g26
I00
sg12
I406
sg13
I-10
sa(dp60
g26
I00
sg12
I490
sg13
I48
sa(dp61
g24
Vcurve
p62
sg26
I01
sg12
I490
sg13
I213
sa(dp63
g24
Vline
p64
sg26
I01
sg12
I490
sg13
I675
sa(dp65
g26
I00
sg12
I490
sg13
I692
sa(dp66
g26
I00
sg12
I482
sg13
I700
sa(dp67
g24
Vcurve
p68
sg26
I01
sg12
I465
sg13
I700
sasasVlib
p69
(dp70
sg10
VU
p71
sVunicodes
p72
(lp73
sVwidth
p74
I575
sss."
EndChar

StartChar: V
Encoding: 86 86 118
GlifName: V_
Width: 575
VWidth: 0
Flags: W
AnchorPoint: "ogonek" 517 690 basechar 0
AnchorPoint: "top" 288 0 basechar 0
LayerCount: 2
Fore
SplineSet
558 672 m 257
 563 689 554 700 537 700 c 258
 501 700 l 258
 486 700 477 693 473 678 c 258
 327 93 l 258
 323 75 305 66 288 66 c 256
 271 66 253 75 249 93 c 258
 102 678 l 257
 99 693 89 700 74 700 c 258
 39 700 l 258
 21 700 13 689 17 672 c 258
 165 79 l 258
 180 21 229 -10 288 -10 c 256
 347 -10 396 21 410 79 c 258
 558 672 l 257
EndSplineSet
PickledDataWithLists: "(dp0
Vcom.schriftgestaltung.Glyphs.lastChange
p1
V2016-06-09 18:35:33 +0000
p2
sVcom.typemytype.robofont.layerData
p3
(dp4
VRegular Dec 27 13, 23:35
p5
(dp6
Vanchors
p7
(lp8
sVcomponents
p9
(lp10
sVcontours
p11
(lp12
(dp13
Vpoints
p14
(lp15
(dp16
VsegmentType
p17
Vline
p18
sVsmooth
p19
I01
sVx
p20
I36
sVy
p21
I700
sa(dp22
g19
I00
sg20
I18
sg21
I700
sa(dp23
g19
I00
sg20
I10
sg21
I690
sa(dp24
g17
Vcurve
p25
sg19
I01
sg20
I15
sg21
I672
sa(dp26
g17
Vline
p27
sg19
I01
sg20
I181
sg21
I64
sa(dp28
g19
I00
sg20
I196
sg21
I8
sa(dp29
g19
I00
sg20
I228
sg21
I-10
sa(dp30
g17
Vcurve
p31
sg19
I01
sg20
I288
sg21
I-10
sa(dp32
g19
I00
sg20
I346
sg21
I-10
sa(dp33
g19
I00
sg20
I379
sg21
I7
sa(dp34
g17
Vcurve
p35
sg19
I01
sg20
I395
sg21
I64
sa(dp36
g17
Vline
p37
sg19
I01
sg20
I561
sg21
I672
sa(dp38
g19
I00
sg20
I565
sg21
I690
sa(dp39
g19
I00
sg20
I557
sg21
I700
sa(dp40
g17
Vcurve
p41
sg19
I01
sg20
I539
sg21
I700
sa(dp42
g17
Vline
p43
sg19
I01
sg20
I502
sg21
I700
sa(dp44
g19
I00
sg20
I487
sg21
I700
sa(dp45
g19
I00
sg20
I478
sg21
I693
sa(dp46
g17
Vcurve
p47
sg19
I01
sg20
I474
sg21
I679
sa(dp48
g17
Vline
p49
sg19
I01
sg20
I313
sg21
I84
sa(dp50
g19
I00
sg20
I310
sg21
I71
sa(dp51
g19
I00
sg20
I304
sg21
I67
sa(dp52
g17
Vcurve
p53
sg19
I01
sg20
I288
sg21
I67
sa(dp54
g19
I00
sg20
I277
sg21
I67
sa(dp55
g19
I00
sg20
I266
sg21
I68
sa(dp56
g17
Vcurve
p57
sg19
I00
sg20
I263
sg21
I84
sa(dp58
g17
Vline
p59
sg19
I01
sg20
I101
sg21
I679
sa(dp60
g19
I00
sg20
I97
sg21
I693
sa(dp61
g19
I00
sg20
I88
sg21
I700
sa(dp62
g17
Vcurve
p63
sg19
I01
sg20
I73
sg21
I700
sasasVlib
p64
(dp65
sVname
p66
VV
p67
sVunicodes
p68
(lp69
sVwidth
p70
I575
sss."
EndChar

StartChar: W
Encoding: 87 87 119
GlifName: W_
Width: 575
VWidth: 0
Flags: W
AnchorPoint: "top" 288 700 basechar 0
LayerCount: 2
Fore
SplineSet
545 674 m 258
 545 689 534 700 519 700 c 258
 485 700 l 258
 470 700 461 689 460 674 c 258
 442 160 l 257
 331 382 l 258
 325 395 316 400 302 400 c 258
 274 400 l 258
 260 400 251 395 245 382 c 258
 134 160 l 257
 116 674 l 258
 115 689 106 700 91 700 c 258
 57 700 l 258
 42 700 31 689 31 674 c 258
 51 20 l 258
 51 4 60 -5 78 -5 c 258
 94 -5 l 258
 122 -5 141 6 153 31 c 258
 288 301 l 257
 423 31 l 258
 435 6 454 -5 482 -5 c 258
 498 -5 l 258
 516 -5 525 4 525 20 c 258
 545 674 l 258
EndSplineSet
PickledDataWithLists: "(dp0
Vcom.schriftgestaltung.Glyphs.lastChange
p1
V2016-06-09 18:35:33 +0000
p2
sVcom.typemytype.robofont.layerData
p3
(dp4
VRegular Feb 23 15, 17:43
p5
(dp6
Vanchors
p7
(lp8
(dp9
Vname
p10
Vtop
p11
sVx
p12
I288
sVy
p13
I700
sasVcomponents
p14
(lp15
sVcontours
p16
(lp17
(dp18
Vpoints
p19
(lp20
(dp21
VsegmentType
p22
Vline
p23
sVsmooth
p24
I01
sg12
I466
sg13
I700
sa(dp25
g24
I00
sg12
I450
sg13
I700
sa(dp26
g24
I00
sg12
I441
sg13
I692
sa(dp27
g22
Vcurve
p28
sg24
I01
sg12
I441
sg13
I675
sa(dp29
g22
Vline
p30
sg24
I01
sg12
I441
sg13
I153
sa(dp31
g24
I00
sg12
I441
sg13
I96
sa(dp32
g24
I00
sg12
I422
sg13
I67
sa(dp33
g22
Vcurve
p34
sg24
I01
sg12
I386
sg13
I67
sa(dp35
g24
I00
sg12
I350
sg13
I67
sa(dp36
g24
I00
sg12
I331
sg13
I96
sa(dp37
g22
Vcurve
p38
sg24
I01
sg12
I331
sg13
I153
sa(dp39
g22
Vline
p40
sg24
I01
sg12
I331
sg13
I475
sa(dp41
g24
I00
sg12
I331
sg13
I492
sa(dp42
g24
I00
sg12
I323
sg13
I500
sa(dp43
g22
Vcurve
p44
sg24
I01
sg12
I306
sg13
I500
sa(dp45
g22
Vline
p46
sg24
I01
sg12
I271
sg13
I500
sa(dp47
g24
I00
sg12
I254
sg13
I500
sa(dp48
g24
I00
sg12
I246
sg13
I492
sa(dp49
g22
Vcurve
p50
sg24
I01
sg12
I246
sg13
I475
sa(dp51
g22
Vline
p52
sg24
I01
sg12
I246
sg13
I153
sa(dp53
g24
I00
sg12
I246
sg13
I96
sa(dp54
g24
I00
sg12
I227
sg13
I67
sa(dp55
g22
Vcurve
p56
sg24
I01
sg12
I191
sg13
I67
sa(dp57
g24
I00
sg12
I155
sg13
I67
sa(dp58
g24
I00
sg12
I136
sg13
I96
sa(dp59
g22
Vcurve
p60
sg24
I01
sg12
I136
sg13
I153
sa(dp61
g22
Vline
p62
sg24
I01
sg12
I136
sg13
I675
sa(dp63
g24
I00
sg12
I136
sg13
I692
sa(dp64
g24
I00
sg12
I127
sg13
I700
sa(dp65
g22
Vcurve
p66
sg24
I01
sg12
I111
sg13
I700
sa(dp67
g22
Vline
p68
sg24
I01
sg12
I76
sg13
I700
sa(dp69
g24
I00
sg12
I60
sg13
I700
sa(dp70
g24
I00
sg12
I51
sg13
I691
sa(dp71
g22
Vcurve
p72
sg24
I01
sg12
I51
sg13
I675
sa(dp73
g22
Vline
p74
sg24
I01
sg12
I51
sg13
I153
sa(dp75
g24
I00
sg12
I51
sg13
I45
sa(dp76
g24
I00
sg12
I94
sg13
I-10
sa(dp77
g22
Vcurve
p78
sg24
I01
sg12
I177
sg13
I-10
sa(dp79
g24
I00
sg12
F233.108
sg13
I-10
sa(dp80
g24
I00
sg12
F270.488
sg13
F15.75
sa(dp81
g22
Vcurve
p82
sg24
I00
sg12
F288.5
sg13
F66.61
sa(dp83
g24
I00
sg12
F306.512
sg13
F15.75
sa(dp84
g24
I00
sg12
F343.892
sg13
I-10
sa(dp85
g22
Vcurve
p86
sg24
I01
sg12
I400
sg13
I-10
sa(dp87
g24
I00
sg12
I483
sg13
I-10
sa(dp88
g24
I00
sg12
I526
sg13
I45
sa(dp89
g22
Vcurve
p90
sg24
I01
sg12
I526
sg13
I153
sa(dp91
g22
Vline
p92
sg24
I01
sg12
I526
sg13
I675
sa(dp93
g24
I00
sg12
I526
sg13
I691
sa(dp94
g24
I00
sg12
I517
sg13
I700
sa(dp95
g22
Vcurve
p96
sg24
I01
sg12
I501
sg13
I700
sasasVlib
p97
(dp98
sg10
VW
p99
sVunicodes
p100
(lp101
sVwidth
p102
I575
ssVRegular Jan 21 14, 20:25
p103
(dp104
g7
(lp105
(dp106
g10
Vtop
p107
sg12
I288
sg13
I700
sasg14
(lp108
sg16
(lp109
(dp110
g19
(lp111
(dp112
g24
I00
sg12
I515
sg13
I-5
sa(dp113
g24
I00
sg12
I524
sg13
I4
sa(dp114
g22
Vcurve
p115
sg24
I01
sg12
I524
sg13
I20
sa(dp116
g22
Vline
p117
sg24
I01
sg12
I524
sg13
I675
sa(dp118
g24
I00
sg12
I524
sg13
I690
sa(dp119
g24
I00
sg12
I514
sg13
I700
sa(dp120
g22
Vcurve
p121
sg24
I01
sg12
I499
sg13
I700
sa(dp122
g22
Vline
p123
sg24
I01
sg12
I465
sg13
I700
sa(dp124
g24
I00
sg12
I450
sg13
I700
sa(dp125
g24
I00
sg12
I439
sg13
I690
sa(dp126
g22
Vcurve
p127
sg24
I01
sg12
I439
sg13
I675
sa(dp128
g24
I00
sg12
I439
sg13
I426
sa(dp129
g24
I00
sg12
I441
sg13
I299
sa(dp130
g22
Vcurve
p131
sg24
I00
sg12
I444
sg13
I226
sa(dp132
g22
Vline
p133
sg24
I01
sg12
I382
sg13
I351
sa(dp134
g24
I00
sg12
I360
sg13
I394
sa(dp135
g24
I00
sg12
I336
sg13
I430
sa(dp136
g22
Vcurve
p137
sg24
I01
sg12
I288
sg13
I430
sa(dp138
g24
I00
sg12
I240
sg13
I430
sa(dp139
g24
I00
sg12
I215
sg13
I394
sa(dp140
g22
Vcurve
p141
sg24
I01
sg12
I194
sg13
I351
sa(dp142
g22
Vline
p143
sg24
I00
sg12
I131
sg13
I226
sa(dp144
g24
I00
sg12
I134
sg13
I299
sa(dp145
g24
I00
sg12
I136
sg13
I426
sa(dp146
g22
Vcurve
p147
sg24
I01
sg12
I136
sg13
I675
sa(dp148
g24
I00
sg12
I136
sg13
I690
sa(dp149
g24
I00
sg12
I126
sg13
I700
sa(dp150
g22
Vcurve
p151
sg24
I01
sg12
I111
sg13
I700
sa(dp152
g22
Vline
p153
sg24
I01
sg12
I77
sg13
I700
sa(dp154
g24
I00
sg12
I62
sg13
I700
sa(dp155
g24
I00
sg12
I51
sg13
I690
sa(dp156
g22
Vcurve
p157
sg24
I01
sg12
I51
sg13
I675
sa(dp158
g22
Vline
p159
sg24
I01
sg12
I51
sg13
I20
sa(dp160
g24
I00
sg12
I51
sg13
I4
sa(dp161
g24
I00
sg12
I60
sg13
I-5
sa(dp162
g22
Vcurve
p163
sg24
I01
sg12
I78
sg13
I-5
sa(dp164
g22
Vline
p165
sg24
I01
sg12
I79
sg13
I-5
sa(dp166
g24
I00
sg12
I93
sg13
I-5
sa(dp167
g24
I00
sg12
I103
sg13
I1
sa(dp168
g22
Vcurve
p169
sg24
I01
sg12
I109
sg13
I13
sa(dp170
g22
Vline
p171
sg24
I01
sg12
I262
sg13
I320
sa(dp172
g24
I00
sg12
I268
sg13
I332
sa(dp173
g24
I00
sg12
I275
sg13
I342
sa(dp174
g22
Vcurve
p175
sg24
I01
sg12
I288
sg13
I342
sa(dp176
g24
I00
sg12
I301
sg13
I342
sa(dp177
g24
I00
sg12
I307
sg13
I332
sa(dp178
g22
Vcurve
p179
sg24
I01
sg12
I313
sg13
I320
sa(dp180
g22
Vline
p181
sg24
I01
sg12
I467
sg13
I13
sa(dp182
g24
I00
sg12
I473
sg13
I1
sa(dp183
g24
I00
sg12
I482
sg13
I-5
sa(dp184
g22
Vcurve
p185
sg24
I01
sg12
I496
sg13
I-5
sa(dp186
g22
Vline
p187
sg24
I01
sg12
I498
sg13
I-5
sasasg97
(dp188
sg10
g99
sg100
(lp189
sg102
I575
sss."
EndChar

StartChar: X
Encoding: 88 88 124
GlifName: X_
Width: 575
VWidth: 0
Flags: W
LayerCount: 2
Fore
SplineSet
528 671 m 257
 537 688 529 700 510 700 c 258
 479 700 l 258
 465 700 455 695 449 682 c 258
 318 419 l 258
 308 399 298 390 288 390 c 256
 277 390 267 400 258 419 c 258
 126 682 l 258
 120 695 111 700 97 700 c 258
 66 700 l 258
 46 700 39 688 47 671 c 258
 183 390 l 257
 189 376 204 364 220 357 c 257
 204 351 189 338 183 325 c 258
 40 30 l 258
 32 12 40 0 59 0 c 258
 90 0 l 258
 104 0 113 6 119 18 c 258
 258 295 l 257
 267 315 277 325 288 325 c 256
 298 325 308 315 318 295 c 258
 456 18 l 258
 462 6 472 0 486 0 c 258
 517 0 l 258
 536 0 543 12 535 30 c 258
 393 325 l 257
 386 338 372 351 355 357 c 257
 372 364 386 376 393 390 c 258
 528 671 l 257
EndSplineSet
PickledDataWithLists: "(dp0
Vcom.schriftgestaltung.Glyphs.lastChange
p1
V2016-06-09 18:35:33 +0000
p2
sVcom.typemytype.robofont.layerData
p3
(dp4
VRegular Aug 23 14, 16:56
p5
(dp6
Vanchors
p7
(lp8
sVcomponents
p9
(lp10
sVcontours
p11
(lp12
(dp13
Vpoints
p14
(lp15
(dp16
VsegmentType
p17
Vline
p18
sVsmooth
p19
I01
sVx
p20
I510
sVy
p21
I675
sa(dp22
g19
I00
sg20
I510
sg21
I691
sa(dp23
g19
I00
sg20
I502
sg21
I700
sa(dp24
g17
Vcurve
p25
sg19
I01
sg20
I486
sg21
I700
sa(dp26
g17
Vline
p27
sg19
I01
sg20
I450
sg21
I700
sa(dp28
g19
I00
sg20
I434
sg21
I700
sa(dp29
g19
I00
sg20
I425
sg21
I692
sa(dp30
g17
Vcurve
p31
sg19
I01
sg20
I425
sg21
I676
sa(dp32
g17
Vline
p33
sg19
I01
sg20
I425
sg21
I615
sa(dp34
g19
I00
sg20
I425
sg21
I573
sa(dp35
g19
I00
sg20
I409
sg21
I533
sa(dp36
g17
Vcurve
p37
sg19
I01
sg20
I380
sg21
I504
sa(dp38
g17
Vline
p39
sg19
I00
sg20
I288
sg21
I412
sa(dp40
g17
Vline
p41
sg19
I01
sg20
I196
sg21
I504
sa(dp42
g19
I00
sg20
I166
sg21
I533
sa(dp43
g19
I00
sg20
I150
sg21
I573
sa(dp44
g17
Vcurve
p45
sg19
I01
sg20
I150
sg21
I615
sa(dp46
g17
Vline
p47
sg19
I01
sg20
I150
sg21
I676
sa(dp48
g19
I00
sg20
I150
sg21
I692
sa(dp49
g19
I00
sg20
I141
sg21
I700
sa(dp50
g17
Vcurve
p51
sg19
I01
sg20
I125
sg21
I700
sa(dp52
g17
Vline
p53
sg19
I01
sg20
I90
sg21
I700
sa(dp54
g19
I00
sg20
I74
sg21
I700
sa(dp55
g19
I00
sg20
I65
sg21
I691
sa(dp56
g17
Vcurve
p57
sg19
I01
sg20
I65
sg21
I675
sa(dp58
g17
Vline
p59
sg19
I01
sg20
I65
sg21
I615
sa(dp60
g19
I00
sg20
I65
sg21
I561
sa(dp61
g19
I00
sg20
I92
sg21
I504
sa(dp62
g17
Vcurve
p63
sg19
I01
sg20
I141
sg21
I455
sa(dp64
g17
Vline
p65
sg19
I00
sg20
I236
sg21
I360
sa(dp66
g17
Vline
p67
sg19
I01
sg20
I141
sg21
I265
sa(dp68
g19
I00
sg20
I92
sg21
I216
sa(dp69
g19
I00
sg20
I65
sg21
I160
sa(dp70
g17
Vcurve
p71
sg19
I01
sg20
I65
sg21
I107
sa(dp72
g17
Vline
p73
sg19
I01
sg20
I65
sg21
I25
sa(dp74
g19
I00
sg20
I65
sg21
I9
sa(dp75
g19
I00
sg20
I74
sg21
I0
sa(dp76
g17
Vcurve
p77
sg19
I01
sg20
I90
sg21
I0
sa(dp78
g17
Vline
p79
sg19
I01
sg20
I125
sg21
I0
sa(dp80
g19
I00
sg20
I141
sg21
I0
sa(dp81
g19
I00
sg20
I150
sg21
I9
sa(dp82
g17
Vcurve
p83
sg19
I01
sg20
I150
sg21
I25
sa(dp84
g17
Vline
p85
sg19
I01
sg20
I150
sg21
I107
sa(dp86
g19
I00
sg20
I150
sg21
I148
sa(dp87
g19
I00
sg20
I166
sg21
I187
sa(dp88
g17
Vcurve
p89
sg19
I01
sg20
I196
sg21
I217
sa(dp90
g17
Vline
p91
sg19
I00
sg20
I288
sg21
I309
sa(dp92
g17
Vline
p93
sg19
I01
sg20
I380
sg21
I217
sa(dp94
g19
I00
sg20
I409
sg21
I187
sa(dp95
g19
I00
sg20
I425
sg21
I148
sa(dp96
g17
Vcurve
p97
sg19
I01
sg20
I425
sg21
I107
sa(dp98
g17
Vline
p99
sg19
I01
sg20
I425
sg21
I25
sa(dp100
g19
I00
sg20
I425
sg21
I9
sa(dp101
g19
I00
sg20
I434
sg21
I0
sa(dp102
g17
Vcurve
p103
sg19
I01
sg20
I450
sg21
I0
sa(dp104
g17
Vline
p105
sg19
I01
sg20
I486
sg21
I0
sa(dp106
g19
I00
sg20
I502
sg21
I0
sa(dp107
g19
I00
sg20
I510
sg21
I9
sa(dp108
g17
Vcurve
p109
sg19
I01
sg20
I510
sg21
I25
sa(dp110
g17
Vline
p111
sg19
I01
sg20
I510
sg21
I107
sa(dp112
g19
I00
sg20
I510
sg21
I160
sa(dp113
g19
I00
sg20
I483
sg21
I216
sa(dp114
g17
Vcurve
p115
sg19
I01
sg20
I434
sg21
I265
sa(dp116
g17
Vline
p117
sg19
I00
sg20
I339
sg21
I360
sa(dp118
g17
Vline
p119
sg19
I01
sg20
I434
sg21
I455
sa(dp120
g19
I00
sg20
I483
sg21
I504
sa(dp121
g19
I00
sg20
I510
sg21
I561
sa(dp122
g17
Vcurve
p123
sg19
I01
sg20
I510
sg21
I615
sasasVlib
p124
(dp125
sVname
p126
VX
p127
sVunicodes
p128
(lp129
sVwidth
p130
I575
ssVRegular Dec 28 13, 19:42
p131
(dp132
g7
(lp133
sg9
(lp134
sg11
(lp135
sg124
(dp136
sg126
g127
sg128
(lp137
sg130
I575
ssVRegular Jan 7 14, 14:49
p138
(dp139
g7
(lp140
sg9
(lp141
sg11
(lp142
(dp143
g14
(lp144
(dp145
g17
Vline
p146
sg19
I00
sg20
I339
sg21
I360
sa(dp147
g17
Vline
p148
sg19
I01
sg20
I434
sg21
I455
sa(dp149
g19
I00
sg20
I483
sg21
I504
sa(dp150
g19
I00
sg20
I510
sg21
I572
sa(dp151
g17
Vcurve
p152
sg19
I01
sg20
I510
sg21
I645
sa(dp153
g17
Vline
p154
sg19
I01
sg20
I510
sg21
I675
sa(dp155
g19
I00
sg20
I510
sg21
I692
sa(dp156
g19
I00
sg20
I502
sg21
I700
sa(dp157
g17
Vcurve
p158
sg19
I01
sg20
I485
sg21
I700
sa(dp159
g17
Vline
p160
sg19
I01
sg20
I450
sg21
I700
sa(dp161
g19
I00
sg20
I434
sg21
I700
sa(dp162
g19
I00
sg20
I425
sg21
I692
sa(dp163
g17
Vcurve
p164
sg19
I01
sg20
I425
sg21
I675
sa(dp165
g17
Vline
p166
sg19
I01
sg20
I425
sg21
I646
sa(dp167
g19
I00
sg20
I425
sg21
I583
sa(dp168
g19
I00
sg20
I409
sg21
I533
sa(dp169
g17
Vcurve
p170
sg19
I01
sg20
I380
sg21
I504
sa(dp171
g17
Vline
p172
sg19
I00
sg20
I288
sg21
I412
sa(dp173
g17
Vline
p174
sg19
I01
sg20
I196
sg21
I504
sa(dp175
g19
I00
sg20
I165
sg21
I535
sa(dp176
g19
I00
sg20
I149
sg21
I585
sa(dp177
g17
Vcurve
p178
sg19
I01
sg20
I150
sg21
I646
sa(dp179
g17
Vline
p180
sg19
I01
sg20
I150
sg21
I675
sa(dp181
g19
I00
sg20
I150
sg21
I692
sa(dp182
g19
I00
sg20
I142
sg21
I700
sa(dp183
g17
Vcurve
p184
sg19
I01
sg20
I125
sg21
I700
sa(dp185
g17
Vline
p186
sg19
I01
sg20
I90
sg21
I700
sa(dp187
g19
I00
sg20
I74
sg21
I700
sa(dp188
g19
I00
sg20
I65
sg21
I691
sa(dp189
g17
Vcurve
p190
sg19
I01
sg20
I65
sg21
I675
sa(dp191
g17
Vline
p192
sg19
I01
sg20
I65
sg21
I645
sa(dp193
g19
I00
sg20
I65
sg21
I572
sa(dp194
g19
I00
sg20
I92
sg21
I504
sa(dp195
g17
Vcurve
p196
sg19
I01
sg20
I141
sg21
I455
sa(dp197
g17
Vline
p198
sg19
I00
sg20
I236
sg21
I360
sa(dp199
g17
Vline
p200
sg19
I01
sg20
I141
sg21
I265
sa(dp201
g19
I00
sg20
I92
sg21
I216
sa(dp202
g19
I00
sg20
I65
sg21
I142
sa(dp203
g17
Vcurve
p204
sg19
I01
sg20
I65
sg21
I55
sa(dp205
g17
Vline
p206
sg19
I01
sg20
I65
sg21
I25
sa(dp207
g19
I00
sg20
I65
sg21
I9
sa(dp208
g19
I00
sg20
I74
sg21
I0
sa(dp209
g17
Vcurve
p210
sg19
I01
sg20
I90
sg21
I0
sa(dp211
g17
Vline
p212
sg19
I01
sg20
I125
sg21
I0
sa(dp213
g19
I00
sg20
I142
sg21
I0
sa(dp214
g19
I00
sg20
I150
sg21
I9
sa(dp215
g17
Vcurve
p216
sg19
I01
sg20
I150
sg21
I25
sa(dp217
g17
Vline
p218
sg19
I01
sg20
I150
sg21
I55
sa(dp219
g19
I00
sg20
I150
sg21
I130
sa(dp220
g19
I00
sg20
I166
sg21
I187
sa(dp221
g17
Vcurve
p222
sg19
I01
sg20
I196
sg21
I217
sa(dp223
g17
Vline
p224
sg19
I00
sg20
I288
sg21
I309
sa(dp225
g17
Vline
p226
sg19
I01
sg20
I380
sg21
I217
sa(dp227
g19
I00
sg20
I409
sg21
I187
sa(dp228
g19
I00
sg20
I425
sg21
I130
sa(dp229
g17
Vcurve
p230
sg19
I01
sg20
I425
sg21
I55
sa(dp231
g17
Vline
p232
sg19
I01
sg20
I425
sg21
I25
sa(dp233
g19
I00
sg20
I425
sg21
I9
sa(dp234
g19
I00
sg20
I434
sg21
I0
sa(dp235
g17
Vcurve
p236
sg19
I01
sg20
I450
sg21
I0
sa(dp237
g17
Vline
p238
sg19
I01
sg20
I485
sg21
I0
sa(dp239
g19
I00
sg20
I502
sg21
I0
sa(dp240
g19
I00
sg20
I510
sg21
I9
sa(dp241
g17
Vcurve
p242
sg19
I01
sg20
I510
sg21
I25
sa(dp243
g17
Vline
p244
sg19
I01
sg20
I510
sg21
I55
sa(dp245
g19
I00
sg20
I510
sg21
I116
sa(dp246
g19
I00
sg20
I503
sg21
I164
sa(dp247
g17
Vcurve
p248
sg19
I01
sg20
I490
sg21
I192
sa(dp249
g19
I00
sg20
I477
sg21
I220
sa(dp250
g19
I00
sg20
I456
sg21
I243
sa(dp251
g17
Vcurve
p252
sg19
I01
sg20
I434
sg21
I265
sasasg124
(dp253
sg126
g127
sg128
(lp254
sg130
I575
ssVbackground
p255
(dp256
g7
(lp257
sg9
(lp258
sg11
(lp259
(dp260
g14
(lp261
(dp262
g17
Vline
p263
sg19
I00
sg20
I190
sg21
I77
sa(dp264
g17
Vline
p265
sg19
I01
sg20
I419
sg21
I534
sa(dp266
g19
I00
sg20
I458
sg21
I611
sa(dp267
g19
I00
sg20
I472
sg21
I649
sa(dp268
g17
Vcurve
p269
sg19
I01
sg20
I472
sg21
I675
sa(dp270
g19
I00
sg20
I473
sg21
I691
sa(dp271
g19
I00
sg20
I464
sg21
I700
sa(dp272
g17
Vcurve
p273
sg19
I01
sg20
I447
sg21
I700
sa(dp274
g17
Vline
p275
sg19
I01
sg20
I126
sg21
I700
sa(dp276
g19
I00
sg20
I110
sg21
I700
sa(dp277
g19
I00
sg20
I101
sg21
I692
sa(dp278
g17
Vcurve
p279
sg19
I01
sg20
I101
sg21
I675
sa(dp280
g17
Vline
p281
sg19
I01
sg20
I101
sg21
I649
sa(dp282
g19
I00
sg20
I101
sg21
I633
sa(dp283
g19
I00
sg20
I110
sg21
I624
sa(dp284
g17
Vcurve
p285
sg19
I01
sg20
I126
sg21
I624
sa(dp286
g17
Vline
p287
sg19
I00
sg20
I371
sg21
I624
sa(dp288
g17
Vline
p289
sg19
I01
sg20
I142
sg21
I167
sa(dp290
g19
I00
sg20
I103
sg21
I89
sa(dp291
g19
I00
sg20
I89
sg21
I51
sa(dp292
g17
Vcurve
p293
sg19
I01
sg20
I89
sg21
I25
sa(dp294
g19
I00
sg20
I88
sg21
I9
sa(dp295
g19
I00
sg20
I97
sg21
I0
sa(dp296
g17
Vcurve
p297
sg19
I01
sg20
I114
sg21
I0
sa(dp298
g17
Vline
p299
sg19
I01
sg20
I465
sg21
I0
sa(dp300
g19
I00
sg20
I481
sg21
I0
sa(dp301
g19
I00
sg20
I490
sg21
I9
sa(dp302
g17
Vcurve
p303
sg19
I01
sg20
I490
sg21
I25
sa(dp304
g17
Vline
p305
sg19
I01
sg20
I490
sg21
I52
sa(dp306
g19
I00
sg20
I490
sg21
I68
sa(dp307
g19
I00
sg20
I481
sg21
I77
sa(dp308
g17
Vcurve
p309
sg19
I01
sg20
I465
sg21
I77
sasasg124
(dp310
sg126
g127
sg128
(lp311
sg130
I575
sss."
EndChar

StartChar: Xi
Encoding: 926 926 125
GlifName: X_i
Width: 575
VWidth: 0
Flags: W
LayerCount: 2
Fore
SplineSet
469 624 m 258
 485 624 494 632 494 649 c 258
 494 675 l 258
 494 692 485 700 469 700 c 258
 106 700 l 258
 90 700 81 692 81 675 c 258
 81 649 l 258
 81 632 90 624 106 624 c 258
 469 624 l 258
127 403 m 258
 111 403 102 394 102 378 c 258
 102 351 l 258
 102 335 111 326 127 326 c 258
 448 326 l 258
 464 326 473 335 473 351 c 258
 473 378 l 258
 473 394 464 403 448 403 c 258
 127 403 l 258
84 77 m 258
 68 77 59 68 59 52 c 258
 59 25 l 258
 59 9 68 0 84 0 c 258
 491 0 l 258
 507 0 516 9 516 25 c 258
 516 52 l 258
 516 68 507 77 491 77 c 258
 84 77 l 258
EndSplineSet
PickledDataWithLists: "(dp0
Vcom.schriftgestaltung.Glyphs.lastChange
p1
V2015-12-22 12:18:54 +0000
p2
s."
EndChar

StartChar: Y
Encoding: 89 89 126
GlifName: Y_
Width: 575
VWidth: 0
Flags: W
AnchorPoint: "top" 288 700 basechar 0
LayerCount: 2
Fore
SplineSet
496 700 m 258
 482 700 472 695 466 682 c 258
 330 410 l 258
 321 391 306 380 288 380 c 256
 270 380 255 391 245 410 c 258
 109 682 l 258
 103 695 94 700 80 700 c 258
 43 700 l 258
 24 700 16 688 25 671 c 258
 170 380 l 258
 186 347 212 325 245 315 c 257
 245 25 l 258
 245 9 254 0 270 0 c 258
 305 0 l 258
 321 0 330 9 330 25 c 258
 330 315 l 257
 363 325 389 347 405 380 c 258
 550 671 l 258
 559 688 552 700 532 700 c 258
 496 700 l 258
EndSplineSet
PickledDataWithLists: "(dp0
Vcom.schriftgestaltung.Glyphs.lastChange
p1
V2016-06-09 18:35:33 +0000
p2
sVcom.typemytype.robofont.layerData
p3
(dp4
VRegular Dec 27 13, 23:47
p5
(dp6
Vanchors
p7
(lp8
(dp9
Vname
p10
Vtop
p11
sVx
p12
I288
sVy
p13
I700
sasVcomponents
p14
(lp15
sVcontours
p16
(lp17
(dp18
Vpoints
p19
(lp20
(dp21
VsegmentType
p22
Vline
p23
sVsmooth
p24
I01
sg12
I477
sg13
I700
sa(dp25
g24
I00
sg12
I462
sg13
I700
sa(dp26
g24
I00
sg12
I455
sg13
I693
sa(dp27
g22
Vcurve
p28
sg24
I01
sg12
I448
sg13
I679
sa(dp29
g22
Vline
p30
sg24
I01
sg12
I309
sg13
I402
sa(dp31
g24
I00
sg12
I304
sg13
I391
sa(dp32
g24
I00
sg12
I299
sg13
I385
sa(dp33
g22
Vcurve
p34
sg24
I01
sg12
I288
sg13
I385
sa(dp35
g24
I00
sg12
I277
sg13
I385
sa(dp36
g24
I00
sg12
I272
sg13
I391
sa(dp37
g22
Vcurve
p38
sg24
I01
sg12
I266
sg13
I402
sa(dp39
g22
Vline
p40
sg24
I01
sg12
I127
sg13
I679
sa(dp41
g24
I00
sg12
I120
sg13
I693
sa(dp42
g24
I00
sg12
I114
sg13
I700
sa(dp43
g22
Vcurve
p44
sg24
I01
sg12
I99
sg13
I700
sa(dp45
g22
Vline
p46
sg24
I01
sg12
I60
sg13
I700
sa(dp47
g24
I00
sg12
I42
sg13
I700
sa(dp48
g24
I00
sg12
I32
sg13
I688
sa(dp49
g22
Vcurve
p50
sg24
I01
sg12
I40
sg13
I672
sa(dp51
g22
Vline
p52
sg24
I01
sg12
I184
sg13
I379
sa(dp53
g24
I00
sg12
I203
sg13
I342
sa(dp54
g24
I00
sg12
I219
sg13
I322
sa(dp55
g22
Vcurve
p56
sg24
I00
sg12
I245
sg13
I314
sa(dp57
g22
Vline
p58
sg24
I01
sg12
I245
sg13
I25
sa(dp59
g24
I00
sg12
I245
sg13
I9
sa(dp60
g24
I00
sg12
I254
sg13
I0
sa(dp61
g22
Vcurve
p62
sg24
I01
sg12
I270
sg13
I0
sa(dp63
g22
Vline
p64
sg24
I01
sg12
I305
sg13
I0
sa(dp65
g24
I00
sg12
I321
sg13
I0
sa(dp66
g24
I00
sg12
I330
sg13
I9
sa(dp67
g22
Vcurve
p68
sg24
I01
sg12
I330
sg13
I25
sa(dp69
g22
Vline
p70
sg24
I00
sg12
I330
sg13
I313
sa(dp71
g24
I00
sg12
I357
sg13
I322
sa(dp72
g24
I00
sg12
I373
sg13
I341
sa(dp73
g22
Vcurve
p74
sg24
I01
sg12
I391
sg13
I379
sa(dp75
g22
Vline
p76
sg24
I01
sg12
I536
sg13
I672
sa(dp77
g24
I00
sg12
I544
sg13
I688
sa(dp78
g24
I00
sg12
I533
sg13
I700
sa(dp79
g22
Vcurve
p80
sg24
I01
sg12
I515
sg13
I700
sasasVlib
p81
(dp82
sg10
VY
p83
sVunicodes
p84
(lp85
sVwidth
p86
I575
ssVbackground
p87
(dp88
g7
(lp89
sg14
(lp90
sg16
(lp91
(dp92
g19
(lp93
(dp94
g22
Vline
p95
sg24
I01
sg12
I451
sg13
I825
sa(dp96
g24
I00
sg12
I436
sg13
I825
sa(dp97
g24
I00
sg12
I427
sg13
I818
sa(dp98
g22
Vcurve
p99
sg24
I01
sg12
I423
sg13
I804
sa(dp100
g22
Vline
p101
sg24
I01
sg12
I327
sg13
I418
sa(dp102
g24
I00
sg12
I323
sg13
I401
sa(dp103
g24
I00
sg12
I309
sg13
I392
sa(dp104
g22
Vcurve
p105
sg24
I01
sg12
I288
sg13
I392
sa(dp106
g24
I00
sg12
I267
sg13
I392
sa(dp107
g24
I00
sg12
I253
sg13
I401
sa(dp108
g22
Vcurve
p109
sg24
I01
sg12
I249
sg13
I418
sa(dp110
g22
Vline
p111
sg24
I01
sg12
I152
sg13
I804
sa(dp112
g24
I00
sg12
I149
sg13
I818
sa(dp113
g24
I00
sg12
I140
sg13
I825
sa(dp114
g22
Vcurve
p115
sg24
I01
sg12
I125
sg13
I825
sa(dp116
g22
Vline
p117
sg24
I01
sg12
I89
sg13
I825
sa(dp118
g24
I00
sg12
I71
sg13
I825
sa(dp119
g24
I00
sg12
I63
sg13
I815
sa(dp120
g22
Vcurve
p121
sg24
I01
sg12
I67
sg13
I797
sa(dp122
g22
Vline
p123
sg24
I01
sg12
I165
sg13
I405
sa(dp124
g24
I00
sg12
I180
sg13
I347
sa(dp125
g24
I00
sg12
I223
sg13
I315
sa(dp126
g22
Vcurve
p127
sg24
I01
sg12
I288
sg13
I315
sa(dp128
g24
I00
sg12
I352
sg13
I315
sa(dp129
g24
I00
sg12
I396
sg13
I347
sa(dp130
g22
Vcurve
p131
sg24
I01
sg12
I410
sg13
I405
sa(dp132
g22
Vline
p133
sg24
I01
sg12
I508
sg13
I797
sa(dp134
g24
I00
sg12
I513
sg13
I815
sa(dp135
g24
I00
sg12
I504
sg13
I825
sa(dp136
g22
Vcurve
p137
sg24
I01
sg12
I487
sg13
I825
sasasg81
(dp138
sg10
g83
sg84
(lp139
sg86
I575
sss."
EndChar

StartChar: Z
Encoding: 90 90 131
GlifName: Z_
Width: 575
VWidth: 0
Flags: W
LayerCount: 2
Fore
SplineSet
434 455 m 258
 483 504 510 572 510 645 c 258
 510 675 l 258
 510 692 502 700 485 700 c 258
 121 700 l 258
 105 700 96 692 96 675 c 258
 96 649 l 258
 96 633 105 624 121 624 c 258
 424 624 l 257
 421 571 405 529 380 504 c 258
 141 265 l 258
 92 216 65 142 65 55 c 258
 65 25 l 258
 65 9 74 0 90 0 c 258
 485 0 l 258
 501 0 510 9 510 25 c 258
 510 52 l 258
 510 68 501 77 485 77 c 258
 150 77 l 257
 153 141 169 190 196 217 c 258
 434 455 l 258
EndSplineSet
PickledDataWithLists: "(dp0
Vcom.schriftgestaltung.Glyphs.lastChange
p1
V2016-06-09 18:35:33 +0000
p2
sVcom.typemytype.robofont.layerData
p3
(dp4
VRegular Dec 28 13, 19:17
p5
(dp6
Vanchors
p7
(lp8
(dp9
Vname
p10
Vtop
p11
sVx
p12
I288
sVy
p13
I700
sasVcomponents
p14
(lp15
sVcontours
p16
(lp17
(dp18
Vpoints
p19
(lp20
(dp21
VsegmentType
p22
Vline
p23
sVsmooth
p24
I01
sg12
I414
sg13
I439
sa(dp25
g24
I00
sg12
I475
sg13
I500
sa(dp26
g24
I00
sg12
I490
sg13
I547
sa(dp27
g22
Vcurve
p28
sg24
I01
sg12
I490
sg13
I658
sa(dp29
g22
Vline
p30
sg24
I01
sg12
I490
sg13
I675
sa(dp31
g24
I00
sg12
I490
sg13
I691
sa(dp32
g24
I00
sg12
I481
sg13
I700
sa(dp33
g22
Vcurve
p34
sg24
I01
sg12
I465
sg13
I700
sa(dp35
g22
Vline
p36
sg24
I01
sg12
I130
sg13
I700
sa(dp37
g24
I00
sg12
I114
sg13
I700
sa(dp38
g24
I00
sg12
I105
sg13
I692
sa(dp39
g22
Vcurve
p40
sg24
I01
sg12
I105
sg13
I675
sa(dp41
g22
Vline
p42
sg24
I01
sg12
I105
sg13
I649
sa(dp43
g24
I00
sg12
I105
sg13
I632
sa(dp44
g24
I00
sg12
I114
sg13
I624
sa(dp45
g22
Vcurve
p46
sg24
I01
sg12
I131
sg13
I624
sa(dp47
g22
Vline
p48
sg24
I00
sg12
I405
sg13
I624
sa(dp49
g24
I00
sg12
I403
sg13
I573
sa(dp50
g24
I00
sg12
I396
sg13
I524
sa(dp51
g22
Vcurve
p52
sg24
I01
sg12
I360
sg13
I488
sa(dp53
g22
Vline
p54
sg24
I01
sg12
I161
sg13
I289
sa(dp55
g24
I00
sg12
I90
sg13
I217
sa(dp56
g24
I00
sg12
I86
sg13
I175
sa(dp57
g22
Vcurve
p58
sg24
I01
sg12
I85
sg13
I26
sa(dp59
g24
I00
sg12
I85
sg13
I9
sa(dp60
g24
I00
sg12
I94
sg13
I0
sa(dp61
g22
Vcurve
p62
sg24
I01
sg12
I110
sg13
I0
sa(dp63
g22
Vline
p64
sg24
I01
sg12
I465
sg13
I0
sa(dp65
g24
I00
sg12
I481
sg13
I0
sa(dp66
g24
I00
sg12
I490
sg13
I9
sa(dp67
g22
Vcurve
p68
sg24
I01
sg12
I490
sg13
I25
sa(dp69
g22
Vline
p70
sg24
I01
sg12
I490
sg13
I52
sa(dp71
g24
I00
sg12
I490
sg13
I68
sa(dp72
g24
I00
sg12
I481
sg13
I77
sa(dp73
g22
Vcurve
p74
sg24
I01
sg12
I465
sg13
I77
sa(dp75
g22
Vline
p76
sg24
I00
sg12
I170
sg13
I77
sa(dp77
g24
I00
sg12
I170
sg13
I157
sa(dp78
g24
I00
sg12
I175
sg13
I201
sa(dp79
g22
Vcurve
p80
sg24
I01
sg12
I216
sg13
I241
sasasVlib
p81
(dp82
sg10
VZ
p83
sVunicodes
p84
(lp85
sVwidth
p86
I575
ssVRegular Dec 30 13, 22:13
p87
(dp88
g7
(lp89
(dp90
g10
Vtop
p91
sg12
I288
sg13
I700
sasg14
(lp92
sg16
(lp93
(dp94
g19
(lp95
(dp96
g22
Vline
p97
sg24
I00
sg12
I190
sg13
I77
sa(dp98
g22
Vline
p99
sg24
I01
sg12
I419
sg13
I534
sa(dp100
g24
I00
sg12
I458
sg13
I611
sa(dp101
g24
I00
sg12
I472
sg13
I649
sa(dp102
g22
Vcurve
p103
sg24
I01
sg12
I472
sg13
I675
sa(dp104
g24
I00
sg12
I473
sg13
I691
sa(dp105
g24
I00
sg12
I464
sg13
I700
sa(dp106
g22
Vcurve
p107
sg24
I01
sg12
I447
sg13
I700
sa(dp108
g22
Vline
p109
sg24
I01
sg12
I126
sg13
I700
sa(dp110
g24
I00
sg12
I110
sg13
I700
sa(dp111
g24
I00
sg12
I101
sg13
I692
sa(dp112
g22
Vcurve
p113
sg24
I01
sg12
I101
sg13
I675
sa(dp114
g22
Vline
p115
sg24
I01
sg12
I101
sg13
I649
sa(dp116
g24
I00
sg12
I101
sg13
I633
sa(dp117
g24
I00
sg12
I110
sg13
I624
sa(dp118
g22
Vcurve
p119
sg24
I01
sg12
I126
sg13
I624
sa(dp120
g22
Vline
p121
sg24
I00
sg12
I371
sg13
I624
sa(dp122
g22
Vline
p123
sg24
I01
sg12
I142
sg13
I167
sa(dp124
g24
I00
sg12
I103
sg13
I89
sa(dp125
g24
I00
sg12
I89
sg13
I51
sa(dp126
g22
Vcurve
p127
sg24
I01
sg12
I89
sg13
I25
sa(dp128
g24
I00
sg12
I88
sg13
I9
sa(dp129
g24
I00
sg12
I97
sg13
I0
sa(dp130
g22
Vcurve
p131
sg24
I01
sg12
I114
sg13
I0
sa(dp132
g22
Vline
p133
sg24
I01
sg12
I465
sg13
I0
sa(dp134
g24
I00
sg12
I481
sg13
I0
sa(dp135
g24
I00
sg12
I490
sg13
I9
sa(dp136
g22
Vcurve
p137
sg24
I01
sg12
I490
sg13
I25
sa(dp138
g22
Vline
p139
sg24
I01
sg12
I490
sg13
I52
sa(dp140
g24
I00
sg12
I490
sg13
I68
sa(dp141
g24
I00
sg12
I481
sg13
I77
sa(dp142
g22
Vcurve
p143
sg24
I01
sg12
I465
sg13
I77
sasasg81
(dp144
sg10
g83
sg84
(lp145
sg86
I575
ssVbackground
p146
(dp147
g7
(lp148
sg14
(lp149
sg16
(lp150
(dp151
g19
(lp152
(dp153
g22
Vline
p154
sg24
I00
sg12
I141
sg13
I153
sa(dp155
g22
Vline
p156
sg24
I00
sg12
I214
sg13
I116
sa(dp157
g22
Vline
p158
sg24
I00
sg12
I434
sg13
I547
sa(dp159
g22
Vline
p160
sg24
I00
sg12
I362
sg13
I585
sasasg81
(dp161
sg10
g83
sg84
(lp162
sg86
I575
sss."
EndChar

StartChar: a
Encoding: 97 97 136
GlifName: a
Width: 575
VWidth: 0
Flags: HWO
AnchorPoint: "ogonek" 518 5 basechar 0
AnchorPoint: "top" 288 550 basechar 0
LayerCount: 2
Fore
SplineSet
470 319 m 258
 470 457 399 512 273 512 c 256
 236 512 194 508 149 499 c 256
 133 496 128 486 130 470 c 258
 133 443 l 258
 135 428 147 422 163 425 c 256
 193 431 223 435 254 435 c 256
 336 435 385 407 385 319 c 258
 385 314 l 257
 288 314 l 258
 148 314 77 232 77 154 c 256
 77 76 149 -10 285 -10 c 256
 334 -10 388 -5 446 2 c 256
 462 4 470 13 470 29 c 258
 470 319 l 258
385 237 m 257
 385 71 l 257
 352 68 320 65 291 65 c 256
 205 65 163 114 163 153 c 256
 163 192 205 237 288 237 c 258
 385 237 l 257
EndSplineSet
PickledDataWithLists: "(dp0
Vcom.schriftgestaltung.Glyphs.lastChange
p1
V2016-06-09 18:35:33 +0000
p2
sVcom.typemytype.robofont.layerData
p3
(dp4
VRegular Nov 25 14, 08:27
p5
(dp6
Vanchors
p7
(lp8
(dp9
Vname
p10
Vogonek
p11
sVx
p12
I518
sVy
p13
I5
sa(dp14
g10
Vtop
p15
sg12
I288
sg13
I550
sasVcomponents
p16
(lp17
sVcontours
p18
(lp19
(dp20
Vpoints
p21
(lp22
(dp23
VsegmentType
p24
Vline
p25
sVsmooth
p26
I01
sg12
I458
sg13
I319
sa(dp27
g26
I00
sg12
I458
sg13
I456
sa(dp28
g26
I00
sg12
I400
sg13
I510
sa(dp29
g24
Vcurve
p30
sg26
I01
sg12
I262
sg13
I510
sa(dp31
g26
I00
sg12
I216
sg13
I510
sa(dp32
g26
I00
sg12
I174
sg13
I506
sa(dp33
g24
Vcurve
p34
sg26
I01
sg12
I137
sg13
I499
sa(dp35
g26
I00
sg12
I121
sg13
I496
sa(dp36
g26
I00
sg12
I114
sg13
I486
sa(dp37
g24
Vcurve
p38
sg26
I01
sg12
I118
sg13
I470
sa(dp39
g24
Vline
p40
sg26
I01
sg12
I125
sg13
I443
sa(dp41
g26
I00
sg12
I129
sg13
I428
sa(dp42
g26
I00
sg12
I139
sg13
I422
sa(dp43
g24
Vcurve
p44
sg26
I01
sg12
I155
sg13
I425
sa(dp45
g26
I00
sg12
I197
sg13
I432
sa(dp46
g26
I00
sg12
I239
sg13
I434
sa(dp47
g24
Vcurve
p48
sg26
I01
sg12
I262
sg13
I434
sa(dp49
g26
I00
sg12
I329
sg13
I434
sa(dp50
g26
I00
sg12
I373
sg13
I407
sa(dp51
g24
Vcurve
p52
sg26
I00
sg12
I373
sg13
I309
sa(dp53
g24
Vline
p54
sg26
I01
sg12
I276
sg13
I309
sa(dp55
g26
I00
sg12
I139
sg13
I309
sa(dp56
g26
I00
sg12
I65
sg13
I253
sa(dp57
g24
Vcurve
p58
sg26
I01
sg12
I65
sg13
I149
sa(dp59
g26
I00
sg12
I67
sg13
I46
sa(dp60
g26
I00
sg12
I125
sg13
I-10
sa(dp61
g24
Vcurve
p62
sg26
I01
sg12
I229
sg13
I-10
sa(dp63
g26
I00
sg12
I318
sg13
I-10
sa(dp64
g26
I00
sg12
I375
sg13
I24
sa(dp65
g24
Vcurve
p66
sg26
I00
sg12
I392
sg13
I85
sa(dp67
g26
I00
sg12
I414
sg13
I19
sa(dp68
g26
I00
sg12
I454
sg13
I0
sa(dp69
g24
Vcurve
p70
sg26
I01
sg12
I523
sg13
I0
sa(dp71
g26
I00
sg12
I536
sg13
I0
sa(dp72
g26
I00
sg12
I543
sg13
I9
sa(dp73
g24
Vcurve
p74
sg26
I01
sg12
I543
sg13
I25
sa(dp75
g24
Vline
p76
sg26
I01
sg12
I543
sg13
I52
sa(dp77
g26
I00
sg12
I543
sg13
I68
sa(dp78
g26
I00
sg12
I538
sg13
I77
sa(dp79
g24
Vcurve
p80
sg26
I01
sg12
I530
sg13
I77
sa(dp81
g26
I00
sg12
I468
sg13
I77
sa(dp82
g26
I00
sg12
I458
sg13
I101
sa(dp83
g24
Vcurve
p84
sg26
I01
sg12
I458
sg13
I162
sasa(dp85
g21
(lp86
(dp87
g24
Vline
p88
sg26
I00
sg12
I373
sg13
I232
sa(dp89
g24
Vline
p90
sg26
I01
sg12
I373
sg13
I182
sa(dp91
g26
I00
sg12
I373
sg13
I107
sa(dp92
g26
I00
sg12
I322
sg13
I67
sa(dp93
g24
Vcurve
p94
sg26
I01
sg12
I229
sg13
I67
sa(dp95
g26
I00
sg12
I177
sg13
I67
sa(dp96
g26
I00
sg12
I150
sg13
I93
sa(dp97
g24
Vcurve
p98
sg26
I01
sg12
I150
sg13
I140
sa(dp99
g26
I00
sg12
I151
sg13
I200
sa(dp100
g26
I00
sg12
I195
sg13
I232
sa(dp101
g24
Vcurve
p102
sg26
I01
sg12
I276
sg13
I232
sasasVlib
p103
(dp104
sg10
Va
p105
sVunicodes
p106
(lp107
sVwidth
p108
I575
ssVbackground
p109
(dp110
g7
(lp111
sg16
(lp112
sg18
(lp113
(dp114
g21
(lp115
(dp116
g24
Vline
p117
sg26
I01
sg12
I430
sg13
I750
sa(dp118
g26
I00
sg12
I414
sg13
I750
sa(dp119
g26
I00
sg12
I405
sg13
I741
sa(dp120
g24
Vcurve
p121
sg26
I01
sg12
I405
sg13
I725
sa(dp122
g24
Vline
p123
sg26
I00
sg12
I405
sg13
I506
sa(dp124
g26
I00
sg12
I369
sg13
I509
sa(dp125
g26
I00
sg12
I337
sg13
I510
sa(dp126
g24
Vcurve
p127
sg26
I01
sg12
I317
sg13
I510
sa(dp128
g26
I00
sg12
I176
sg13
I510
sa(dp129
g26
I00
sg12
I85
sg13
I464
sa(dp130
g24
Vcurve
p131
sg26
I01
sg12
I85
sg13
I250
sa(dp132
g26
I00
sg12
I85
sg13
I39
sa(dp133
g26
I00
sg12
I174
sg13
I-10
sa(dp134
g24
Vcurve
p135
sg26
I01
sg12
I317
sg13
I-10
sa(dp136
g26
I00
sg12
I348
sg13
I-10
sa(dp137
g26
I00
sg12
I402
sg13
I-9
sa(dp138
g24
Vcurve
p139
sg26
I01
sg12
I467
sg13
I3
sa(dp140
g26
I00
sg12
I483
sg13
I5
sa(dp141
g26
I00
sg12
I490
sg13
I14
sa(dp142
g24
Vcurve
p143
sg26
I01
sg12
I490
sg13
I30
sa(dp144
g24
Vline
p145
sg26
I01
sg12
I490
sg13
I725
sa(dp146
g26
I00
sg12
I490
sg13
I741
sa(dp147
g26
I00
sg12
I481
sg13
I750
sa(dp148
g24
Vcurve
p149
sg26
I01
sg12
I465
sg13
I750
sasa(dp150
g21
(lp151
(dp152
g24
Vline
p153
sg26
I00
sg12
I405
sg13
I71
sa(dp154
g26
I00
sg12
I368
sg13
I68
sa(dp155
g26
I00
sg12
I337
sg13
I67
sa(dp156
g24
Vcurve
p157
sg26
I01
sg12
I317
sg13
I67
sa(dp158
g26
I00
sg12
I221
sg13
I67
sa(dp159
g26
I00
sg12
I170
sg13
I96
sa(dp160
g24
Vcurve
p161
sg26
I01
sg12
I170
sg13
I250
sa(dp162
g26
I00
sg12
I170
sg13
I402
sa(dp163
g26
I00
sg12
I218
sg13
I434
sa(dp164
g24
Vcurve
p165
sg26
I01
sg12
I317
sg13
I434
sa(dp166
g26
I00
sg12
I335
sg13
I434
sa(dp167
g26
I00
sg12
I367
sg13
I433
sa(dp168
g24
Vcurve
p169
sg26
I00
sg12
I405
sg13
I430
sasasg103
(dp170
sg10
g105
sg106
(lp171
sg108
I575
sss."
EndChar

StartChar: a.hex
Encoding: 65543 -1 137
GlifName: a.hex
Width: 575
VWidth: 0
Flags: W
AnchorPoint: "ogonek" 518 5 basechar 0
AnchorPoint: "top" 288 550 basechar 0
LayerCount: 2
Fore
SplineSet
114 875 m 258
 114 891 105 900 89 900 c 258
 54 900 l 258
 38 900 29 891 29 875 c 258
 29 829 l 258
 29 813 37 804 54 804 c 258
 89 804 l 258
 105 804 114 812 114 829 c 258
 114 875 l 258
402 875 m 258
 402 891 393 900 377 900 c 258
 342 900 l 258
 326 900 317 891 317 875 c 258
 317 829 l 258
 317 813 325 804 342 804 c 258
 377 804 l 258
 393 804 402 812 402 829 c 258
 402 875 l 258
470 319 m 258
 470 457 399 512 273 512 c 256
 236 512 194 508 149 499 c 256
 133 496 128 486 130 470 c 258
 133 443 l 258
 135 428 147 422 163 425 c 256
 193 431 223 435 254 435 c 256
 336 435 385 407 385 319 c 258
 385 279 l 257
 288 279 l 258
 148 279 77 210 77 134 c 256
 77 58 149 -10 285 -10 c 256
 334 -10 388 -5 446 2 c 256
 462 4 470 13 470 29 c 258
 470 319 l 258
385 202 m 257
 385 71 l 257
 352 68 320 65 291 65 c 256
 205 65 163 96 163 133 c 256
 163 170 205 202 288 202 c 258
 385 202 l 257
EndSplineSet
PickledDataWithLists: "(dp0
Vcom.schriftgestaltung.Glyphs.lastChange
p1
V2016-06-09 18:35:34 +0000
p2
s."
EndChar

StartChar: acute
Encoding: 180 180 141
GlifName: acute
Width: 575
VWidth: 0
Flags: W
AnchorPoint: "top" 288 500 mark 0
LayerCount: 2
Fore
SplineSet
185 544 m 257
 193 530 204 526 219 531 c 258
 440 606 l 258
 456 611 461 623 454 638 c 258
 433 684 l 258
 426 699 414 703 400 696 c 258
 190 595 l 258
 175 588 171 577 177 562 c 257
 185 544 l 257
EndSplineSet
PickledDataWithLists: "(dp0
Vcom.schriftgestaltung.Glyphs.lastChange
p1
V2015-12-22 16:32:39 +0000
p2
sVcom.typemytype.robofont.layerData
p3
(dp4
Vbackground
p5
(dp6
Vanchors
p7
(lp8
sVcomponents
p9
(lp10
sVcontours
p11
(lp12
(dp13
Vpoints
p14
(lp15
(dp16
VsegmentType
p17
Vline
p18
sVsmooth
p19
I00
sVx
p20
I165
sVy
p21
I544
sa(dp22
g19
I00
sg20
I173
sg21
I530
sa(dp23
g19
I00
sg20
I184
sg21
I526
sa(dp24
g17
Vcurve
p25
sg19
I01
sg20
I199
sg21
I531
sa(dp26
g17
Vline
p27
sg19
I01
sg20
I494
sg21
I635
sa(dp28
g19
I00
sg20
I510
sg21
I640
sa(dp29
g19
I00
sg20
I515
sg21
I652
sa(dp30
g17
Vcurve
p31
sg19
I01
sg20
I508
sg21
I667
sa(dp32
g17
Vline
p33
sg19
I01
sg20
I486
sg21
I713
sa(dp34
g19
I00
sg20
I480
sg21
I728
sa(dp35
g19
I00
sg20
I468
sg21
I731
sa(dp36
g17
Vcurve
p37
sg19
I01
sg20
I453
sg21
I725
sa(dp38
g17
Vline
p39
sg19
I01
sg20
I170
sg21
I595
sa(dp40
g19
I00
sg20
I156
sg21
I589
sa(dp41
g19
I00
sg20
I151
sg21
I577
sa(dp42
g17
Vcurve
p43
sg19
I00
sg20
I157
sg21
I562
sasasVlib
p44
(dp45
sVname
p46
Vacute
p47
sVunicodes
p48
(lp49
sVwidth
p50
I575
sss."
EndChar

StartChar: ae
Encoding: 230 230 143
GlifName: ae
Width: 575
VWidth: 0
Flags: W
LayerCount: 2
Fore
SplineSet
125 443 m 258
 129 428 139 422 155 425 c 256
 186 430 217 432 240 433 c 257
 240 298 l 257
 127 290 65 243 65 149 c 256
 67 46 125 -10 290 -10 c 256
 362 -9 374 -9 428 1 c 256
 445 4 452 15 448 31 c 258
 442 57 l 258
 438 73 428 79 412 76 c 257
 379 71 349 68 325 67 c 257
 325 222 l 257
 459 222 l 258
 475 222 484 231 484 247 c 258
 484 270 l 258
 484 412 418 510 252 510 c 256
 216 510 174 506 137 499 c 256
 121 496 114 486 118 470 c 258
 125 443 l 258
325 299 m 257
 325 415 l 257
 379 401 396 347 399 299 c 257
 325 299 l 257
240 67 m 257
 188 73 150 98 150 140 c 256
 151 190 183 214 240 220 c 257
 240 67 l 257
EndSplineSet
PickledDataWithLists: "(dp0
Vcom.schriftgestaltung.Glyphs.lastChange
p1
V2016-06-09 18:35:33 +0000
p2
s."
EndChar

StartChar: alpha
Encoding: 945 945 145
GlifName: alpha
Width: 575
VWidth: 0
Flags: W
LayerCount: 2
Fore
SplineSet
479 500 m 258
 464 500 457 495 453 478 c 256
 451 468 447 429 438 379 c 257
 397 453 338 510 252 510 c 256
 159 510 45 461 45 250 c 256
 45 39 159 -10 252 -10 c 256
 338 -10 397 47 438 121 c 257
 447 71 451 32 453 22 c 256
 457 5 464 0 479 0 c 258
 506 0 l 258
 524 0 533 8 529 29 c 256
 526 45 518 145 483 250 c 257
 518 355 526 455 529 471 c 256
 533 492 524 500 506 500 c 258
 479 500 l 258
130 250 m 256
 130 404 206 433 252 433 c 256
 331 433 379 345 421 250 c 257
 379 155 331 67 252 67 c 256
 206 67 130 96 130 250 c 256
  PathStart: -2
EndSplineSet
PickledDataWithLists: "(dp0
Vcom.schriftgestaltung.Glyphs.lastChange
p1
V2015-12-22 12:26:38 +0000
p2
s."
EndChar

StartChar: ampersand
Encoding: 38 38 147
GlifName: ampersand
Width: 575
VWidth: 0
Flags: W
LayerCount: 2
Fore
SplineSet
503 0 m 258
 520 0 529 10 525 27 c 256
 513 69 492 112 462 159 c 257
 477 190 490 226 500 267 c 256
 504 283 497 294 481 297 c 258
 448 303 l 258
 432 306 422 299 418 284 c 256
 414 267 410 252 405 237 c 257
 357 298 295 364 231 428 c 256
 186 473 168 511 168 542 c 256
 168 585 202 618 247 618 c 256
 297 618 335 581 335 532 c 256
 335 510 326 488 309 471 c 256
 299 461 299 449 311 437 c 258
 331 417 l 258
 343 405 355 405 365 415 c 256
 399 449 416 492 416 534 c 256
 416 627 344 697 248 697 c 256
 154 697 83 630 83 541 c 256
 83 492 109 437 165 380 c 257
 85 323 52 249 52 180 c 256
 52 68 121 -7 233 -7 c 256
 296 -7 362 21 415 85 c 257
 428 62 437 41 443 21 c 256
 448 7 456 0 471 0 c 258
 503 0 l 258
136 180 m 256
 136 229 162 284 220 324 c 257
 282 260 330 205 367 157 c 257
 326 94 276 69 233 69 c 256
 172 69 136 108 136 180 c 256
  PathStart: -2
EndSplineSet
PickledDataWithLists: "(dp0
Vcom.schriftgestaltung.Glyphs.lastChange
p1
V2015-12-22 14:24:01 +0000
p2
sVcom.typemytype.robofont.layerData
p3
(dp4
VRegular Dec 7 14, 22:21
p5
(dp6
Vanchors
p7
(lp8
sVcomponents
p9
(lp10
sVcontours
p11
(lp12
(dp13
Vpoints
p14
(lp15
(dp16
VsegmentType
p17
Vline
p18
sVsmooth
p19
I00
sVx
p20
I480
sVy
p21
I300
sa(dp22
g17
Vline
p23
sg19
I00
sg20
I624
sg21
I89
sa(dp24
g17
Vline
p25
sg19
I00
sg20
I686
sg21
I151
sa(dp26
g17
Vline
p27
sg19
I00
sg20
I550
sg21
I348
sasa(dp28
g14
(lp29
(dp30
g17
Vcurve
p31
sg19
I01
sg20
I414
sg21
I97
sa(dp32
g17
Vline
p33
sg19
I01
sg20
I519
sg21
I202
sa(dp34
g19
I00
sg20
I530
sg21
I213
sa(dp35
g19
I00
sg20
I531
sg21
I225
sa(dp36
g17
Vcurve
p37
sg19
I01
sg20
I520
sg21
I237
sa(dp38
g17
Vline
p39
sg19
I01
sg20
I499
sg21
I260
sa(dp40
g19
I00
sg20
I488
sg21
I272
sa(dp41
g19
I00
sg20
I476
sg21
I273
sa(dp42
g17
Vcurve
p43
sg19
I01
sg20
I464
sg21
I261
sa(dp44
g17
Vline
p45
sg19
I01
sg20
I376
sg21
I173
sa(dp46
g19
I00
sg20
I300
sg21
I97
sa(dp47
g19
I00
sg20
I253
sg21
I77
sa(dp48
g17
Vcurve
p49
sg19
I01
sg20
I214
sg21
I77
sa(dp50
g19
I00
sg20
I164
sg21
I77
sa(dp51
g19
I00
sg20
I136
sg21
I108
sa(dp52
g17
Vcurve
p53
sg19
I01
sg20
I136
sg21
I164
sa(dp54
g19
I00
sg20
I136
sg21
I211
sa(dp55
g19
I00
sg20
I165
sg21
I251
sa(dp56
g17
Vcurve
p57
sg19
I01
sg20
I213
sg21
I299
sa(dp58
g19
I00
sg20
I358
sg21
I444
sa(dp59
g19
I00
sg20
I411
sg21
I475
sa(dp60
g17
Vcurve
p61
sg19
I01
sg20
I411
sg21
I566
sa(dp62
g19
I00
sg20
I411
sg21
I667
sa(dp63
g19
I00
sg20
I329
sg21
I705
sa(dp64
g17
Vcurve
p65
sg19
I01
sg20
I246
sg21
I705
sa(dp66
g19
I00
sg20
I160
sg21
I705
sa(dp67
g19
I00
sg20
I73
sg21
I661
sa(dp68
g17
Vcurve
p69
sg19
I01
sg20
I73
sg21
I550
sa(dp70
g19
I00
sg20
I73
sg21
I496
sa(dp71
g19
I00
sg20
I106
sg21
I418
sa(dp72
g17
Vcurve
p73
sg19
I00
sg20
I163
sg21
I336
sa(dp74
g17
Vline
p75
sg19
I00
sg20
I229
sg21
I379
sa(dp76
g19
I00
sg20
I183
sg21
I446
sa(dp77
g19
I00
sg20
I158
sg21
I504
sa(dp78
g17
Vcurve
p79
sg19
I01
sg20
I158
sg21
I550
sa(dp80
g19
I00
sg20
I158
sg21
I606
sa(dp81
g19
I00
sg20
I202
sg21
I628
sa(dp82
g17
Vcurve
p83
sg19
I01
sg20
I246
sg21
I628
sa(dp84
g19
I00
sg20
I286
sg21
I628
sa(dp85
g19
I00
sg20
I326
sg21
I609
sa(dp86
g17
Vcurve
p87
sg19
I01
sg20
I326
sg21
I563
sa(dp88
g19
I00
sg20
I326
sg21
I486
sa(dp89
g19
I00
sg20
I290
sg21
I486
sa(dp90
g17
Vcurve
p91
sg19
I01
sg20
I170
sg21
I366
sa(dp92
g19
I00
sg20
I99
sg21
I295
sa(dp93
g19
I00
sg20
I51
sg21
I237
sa(dp94
g17
Vcurve
p95
sg19
I01
sg20
I51
sg21
I164
sa(dp96
g19
I00
sg20
I51
sg21
I58
sa(dp97
g19
I00
sg20
I109
sg21
I0
sa(dp98
g17
Vcurve
p99
sg19
I01
sg20
I214
sg21
I0
sa(dp100
g19
I00
sg20
I278
sg21
I0
sa(dp101
g19
I00
sg20
I337
sg21
I14
sasa(dp102
g14
(lp103
(dp104
g17
Vline
p105
sg19
I00
sg20
I636
sg21
I64
sa(dp106
g19
I00
sg20
I658
sg21
I9
sa(dp107
g19
I00
sg20
I692
sg21
I0
sa(dp108
g17
Vcurve
p109
sg19
I01
sg20
I749
sg21
I0
sa(dp110
g17
Vline
p111
sg19
I01
sg20
I791
sg21
I0
sa(dp112
g19
I00
sg20
I807
sg21
I0
sa(dp113
g19
I00
sg20
I816
sg21
I9
sa(dp114
g17
Vcurve
p115
sg19
I01
sg20
I816
sg21
I25
sa(dp116
g17
Vline
p117
sg19
I01
sg20
I816
sg21
I52
sa(dp118
g19
I00
sg20
I816
sg21
I68
sa(dp119
g19
I00
sg20
I807
sg21
I77
sa(dp120
g17
Vcurve
p121
sg19
I01
sg20
I791
sg21
I77
sa(dp122
g17
Vline
p123
sg19
I01
sg20
I751
sg21
I77
sa(dp124
g19
I00
sg20
I717
sg21
I77
sa(dp125
g19
I00
sg20
I719
sg21
I80
sa(dp126
g17
Vcurve
p127
sg19
I00
sg20
I690
sg21
I137
sasasVlib
p128
(dp129
sVname
p130
Vampersand
p131
sVunicodes
p132
(lp133
sVwidth
p134
I575
ssVRegular Dec 7 14, 22:28
p135
(dp136
g7
(lp137
sg9
(lp138
sg11
(lp139
(dp140
g14
(lp141
(dp142
g17
Vmove
p143
sg19
I00
sg20
I510
sg21
I60
sa(dp144
g17
Vline
p145
sg19
I01
sg20
I190
sg21
I380
sa(dp146
g19
I00
sg20
I49
sg21
I521
sa(dp147
g19
I00
sg20
I49
sg21
I628
sa(dp148
g17
Vcurve
p149
sg19
I01
sg20
I191
sg21
I628
sa(dp150
g19
I00
sg20
I327
sg21
I628
sa(dp151
g19
I00
sg20
I322
sg21
I521
sa(dp152
g17
Vcurve
p153
sg19
I01
sg20
I181
sg21
I380
sa(dp154
g19
I00
sg20
I97
sg21
I296
sa(dp155
g19
I00
sg20
I47
sg21
I198
sa(dp156
g17
Vcurve
p157
sg19
I01
sg20
I47
sg21
I121
sa(dp158
g19
I00
sg20
I47
sg21
I45
sa(dp159
g19
I00
sg20
I126
sg21
I-10
sa(dp160
g17
Vcurve
p161
sg19
I01
sg20
I230
sg21
I-10
sa(dp162
g19
I00
sg20
I386
sg21
I-10
sa(dp163
g19
I00
sg20
I481
sg21
I59
sa(dp164
g17
Vcurve
p165
sg19
I01
sg20
I481
sg21
I337
sasasg128
(dp166
sg130
Vampersand
p167
sg132
(lp168
sg134
I575
ssVRegular Dec 7 14, 22:32
p169
(dp170
g7
(lp171
sg9
(lp172
sg11
(lp173
(dp174
g14
(lp175
(dp176
g17
Vmove
p177
sg19
I00
sg20
I510
sg21
I60
sa(dp178
g17
Vline
p179
sg19
I01
sg20
I190
sg21
I410
sa(dp180
g19
I00
sg20
I76
sg21
I534
sa(dp181
g19
I00
sg20
I89
sg21
I628
sa(dp182
g17
Vcurve
p183
sg19
I01
sg20
I221
sg21
I628
sa(dp184
g19
I00
sg20
I357
sg21
I628
sa(dp185
g19
I00
sg20
I365
sg21
I534
sa(dp186
g17
Vcurve
p187
sg19
I01
sg20
I241
sg21
I410
sa(dp188
g17
Vline
p189
sg19
I01
sg20
I116
sg21
I285
sa(dp190
g19
I00
sg20
I70
sg21
I239
sa(dp191
g19
I00
sg20
I46
sg21
I190
sa(dp192
g17
Vcurve
p193
sg19
I01
sg20
I46
sg21
I140
sa(dp194
g19
I00
sg20
I46
sg21
I37
sa(dp195
g19
I00
sg20
I139
sg21
I-10
sa(dp196
g17
Vcurve
p197
sg19
I01
sg20
I263
sg21
I-10
sa(dp198
g19
I00
sg20
I387
sg21
I-10
sa(dp199
g19
I00
sg20
I480
sg21
I56
sa(dp200
g17
Vcurve
p201
sg19
I01
sg20
I480
sg21
I190
sa(dp202
g17
Vline
p203
sg19
I00
sg20
I480
sg21
I300
sasasg128
(dp204
sg130
Vampersand
p205
sg132
(lp206
sg134
I575
ssVRegular Jan 12 15, 19:09
p207
(dp208
g7
(lp209
sg9
(lp210
sg11
(lp211
(dp212
g14
(lp213
(dp214
g17
Vline
p215
sg19
I01
sg20
I394
sg21
I310
sa(dp216
g19
I00
sg20
I394
sg21
I161
sa(dp217
g19
I00
sg20
I336
sg21
I68
sa(dp218
g17
Vcurve
p219
sg19
I01
sg20
I243
sg21
I68
sa(dp220
g19
I00
sg20
I175
sg21
I68
sa(dp221
g19
I00
sg20
I132
sg21
I107
sa(dp222
g17
Vcurve
p223
sg19
I01
sg20
I132
sg21
I170
sa(dp224
g19
I00
sg20
I132
sg21
I210
sa(dp225
g19
I00
sg20
I146
sg21
I239
sa(dp226
g17
Vcurve
p227
sg19
I01
sg20
I177
sg21
I270
sa(dp228
g17
Vline
p229
sg19
I01
sg20
I302
sg21
I395
sa(dp230
g19
I00
sg20
I349
sg21
I442
sa(dp231
g19
I00
sg20
I368
sg21
I493
sa(dp232
g17
Vcurve
p233
sg19
I01
sg20
I368
sg21
I549
sa(dp234
g19
I00
sg20
I368
sg21
I646
sa(dp235
g19
I00
sg20
I312
sg21
I706
sa(dp236
g17
Vcurve
p237
sg19
I01
sg20
I221
sg21
I706
sa(dp238
g19
I00
sg20
I129
sg21
I706
sa(dp239
g19
I00
sg20
I72
sg21
I643
sa(dp240
g17
Vcurve
p241
sg19
I01
sg20
I72
sg21
I542
sa(dp242
g19
I00
sg20
I72
sg21
I488
sa(dp243
g19
I00
sg20
I88
sg21
I439
sa(dp244
g17
Vcurve
p245
sg19
I01
sg20
I127
sg21
I397
sa(dp246
g17
Vline
p247
sg19
I01
sg20
I465
sg21
I31
sa(dp248
g19
I00
sg20
I476
sg21
I19
sa(dp249
g19
I00
sg20
I488
sg21
I18
sa(dp250
g17
Vcurve
p251
sg19
I01
sg20
I500
sg21
I30
sa(dp252
g17
Vline
p253
sg19
I01
sg20
I523
sg21
I53
sa(dp254
g19
I00
sg20
I534
sg21
I64
sa(dp255
g19
I00
sg20
I534
sg21
I76
sa(dp256
g17
Vcurve
p257
sg19
I01
sg20
I523
sg21
I88
sa(dp258
g17
Vline
p259
sg19
I01
sg20
I190
sg21
I450
sa(dp260
g19
I00
sg20
I162
sg21
I479
sa(dp261
g19
I00
sg20
I150
sg21
I514
sa(dp262
g17
Vcurve
p263
sg19
I01
sg20
I150
sg21
I548
sa(dp264
g19
I00
sg20
I150
sg21
I603
sa(dp265
g19
I00
sg20
I177
sg21
I638
sa(dp266
g17
Vcurve
p267
sg19
I01
sg20
I221
sg21
I638
sa(dp268
g19
I00
sg20
I264
sg21
I638
sa(dp269
g19
I00
sg20
I290
sg21
I605
sa(dp270
g17
Vcurve
p271
sg19
I01
sg20
I290
sg21
I553
sa(dp272
g19
I00
sg20
I290
sg21
I521
sa(dp273
g19
I00
sg20
I276
sg21
I485
sa(dp274
g17
Vcurve
p275
sg19
I01
sg20
I241
sg21
I450
sa(dp276
g17
Vline
p277
sg19
I01
sg20
I116
sg21
I325
sa(dp278
g19
I00
sg20
I70
sg21
I279
sa(dp279
g19
I00
sg20
I46
sg21
I230
sa(dp280
g17
Vcurve
p281
sg19
I01
sg20
I46
sg21
I170
sa(dp282
g19
I00
sg20
I46
sg21
I59
sa(dp283
g19
I00
sg20
I122
sg21
I-10
sa(dp284
g17
Vcurve
p285
sg19
I01
sg20
I243
sg21
I-10
sa(dp286
g19
I00
sg20
I389
sg21
I-10
sa(dp287
g19
I00
sg20
I480
sg21
I113
sa(dp288
g17
Vcurve
p289
sg19
I01
sg20
I480
sg21
I310
sa(dp290
g17
Vline
p291
sg19
I01
sg20
I480
sg21
I355
sa(dp292
g19
I00
sg20
I480
sg21
I371
sa(dp293
g19
I00
sg20
I471
sg21
I380
sa(dp294
g17
Vcurve
p295
sg19
I01
sg20
I455
sg21
I380
sa(dp296
g17
Vline
p297
sg19
I01
sg20
I419
sg21
I380
sa(dp298
g19
I00
sg20
I403
sg21
I380
sa(dp299
g19
I00
sg20
I394
sg21
I371
sa(dp300
g17
Vcurve
p301
sg19
I01
sg20
I394
sg21
I355
sasasg128
(dp302
sg130
Vampersand
p303
sg132
(lp304
sg134
I575
ssVRegular Jan 13 15, 09:24
p305
(dp306
g7
(lp307
sg9
(lp308
sg11
(lp309
(dp310
g14
(lp311
(dp312
g17
Vline
p313
sg19
I00
sg20
I518
sg21
I158
sa(dp314
g19
I00
sg20
I529
sg21
I192
sa(dp315
g19
I00
sg20
I535
sg21
I229
sa(dp316
g17
Vcurve
p317
sg19
I01
sg20
I535
sg21
I270
sa(dp318
g17
Vline
p319
sg19
I01
sg20
I535
sg21
I325
sa(dp320
g19
I00
sg20
I535
sg21
I341
sa(dp321
g19
I00
sg20
I526
sg21
I350
sa(dp322
g17
Vcurve
p323
sg19
I01
sg20
I510
sg21
I350
sa(dp324
g17
Vline
p325
sg19
I01
sg20
I474
sg21
I350
sa(dp326
g19
I00
sg20
I458
sg21
I350
sa(dp327
g19
I00
sg20
I449
sg21
I341
sa(dp328
g17
Vcurve
p329
sg19
I01
sg20
I449
sg21
I325
sa(dp330
g17
Vline
p331
sg19
I01
sg20
I449
sg21
I270
sa(dp332
g19
I00
sg20
I449
sg21
I256
sa(dp333
g19
I00
sg20
I448
sg21
I242
sa(dp334
g17
Vcurve
p335
sg19
I00
sg20
I447
sg21
I229
sa(dp336
g17
Vline
p337
sg19
I01
sg20
I206
sg21
I470
sa(dp338
g19
I00
sg20
I173
sg21
I503
sa(dp339
g19
I00
sg20
I160
sg21
I535
sa(dp340
g17
Vcurve
p341
sg19
I01
sg20
I160
sg21
I562
sa(dp342
g19
I00
sg20
I160
sg21
I596
sa(dp343
g19
I00
sg20
I188
sg21
I631
sa(dp344
g17
Vcurve
p345
sg19
I01
sg20
I227
sg21
I631
sa(dp346
g19
I00
sg20
I243
sg21
I631
sa(dp347
g19
I00
sg20
I260
sg21
I624
sa(dp348
g17
Vcurve
p349
sg19
I01
sg20
I275
sg21
I608
sa(dp350
g19
I00
sg20
I286
sg21
I597
sa(dp351
g19
I00
sg20
I296
sg21
I593
sa(dp352
g17
Vcurve
p353
sg19
I01
sg20
I311
sg21
I606
sa(dp354
g17
Vline
p355
sg19
I00
sg20
I335
sg21
I628
sa(dp356
g19
I00
sg20
I347
sg21
I640
sa(dp357
g19
I00
sg20
I347
sg21
I652
sa(dp358
g17
Vcurve
p359
sg19
I01
sg20
I336
sg21
I663
sa(dp360
g19
I00
sg20
I305
sg21
I694
sa(dp361
g19
I00
sg20
I266
sg21
I710
sa(dp362
g17
Vcurve
p363
sg19
I01
sg20
I227
sg21
I710
sa(dp364
g19
I00
sg20
I146
sg21
I710
sa(dp365
g19
I00
sg20
I74
sg21
I643
sa(dp366
g17
Vcurve
p367
sg19
I01
sg20
I74
sg21
I563
sa(dp368
g19
I00
sg20
I74
sg21
I520
sa(dp369
g19
I00
sg20
I93
sg21
I472
sa(dp370
g17
Vcurve
p371
sg19
I00
sg20
I135
sg21
I426
sa(dp372
g19
I00
sg20
I73
sg21
I385
sa(dp373
g19
I00
sg20
I35
sg21
I318
sa(dp374
g17
Vcurve
p375
sg19
I01
sg20
I35
sg21
I240
sa(dp376
g19
I00
sg20
I35
sg21
I98
sa(dp377
g19
I00
sg20
I143
sg21
I-10
sa(dp378
g17
Vcurve
p379
sg19
I01
sg20
I285
sg21
I-10
sa(dp380
g19
I00
sg20
I364
sg21
I-10
sa(dp381
g19
I00
sg20
I432
sg21
I23
sa(dp382
g17
Vcurve
p383
sg19
I00
sg20
I478
sg21
I82
sa(dp384
g17
Vline
p385
sg19
I01
sg20
I495
sg21
I65
sa(dp386
g19
I00
sg20
I507
sg21
I53
sa(dp387
g19
I00
sg20
I519
sg21
I53
sa(dp388
g17
Vcurve
p389
sg19
I01
sg20
I531
sg21
I65
sa(dp390
g17
Vline
p391
sg19
I01
sg20
I553
sg21
I87
sa(dp392
g19
I00
sg20
I565
sg21
I99
sa(dp393
g19
I00
sg20
I565
sg21
I111
sa(dp394
g17
Vcurve
p395
sg19
I01
sg20
I553
sg21
I123
sasa(dp396
g14
(lp397
(dp398
g17
Vline
p399
sg19
I00
sg20
I418
sg21
I142
sa(dp400
g19
I00
sg20
I389
sg21
I93
sa(dp401
g19
I00
sg20
I341
sg21
I68
sa(dp402
g17
Vcurve
p403
sg19
I01
sg20
I285
sg21
I68
sa(dp404
g19
I00
sg20
I192
sg21
I68
sa(dp405
g19
I00
sg20
I121
sg21
I139
sa(dp406
g17
Vcurve
p407
sg19
I01
sg20
I121
sg21
I240
sa(dp408
g19
I00
sg20
I121
sg21
I296
sa(dp409
g19
I00
sg20
I150
sg21
I344
sa(dp410
g17
Vcurve
p411
sg19
I00
sg20
I192
sg21
I368
sasasg128
(dp412
sg130
Vampersand
p413
sg132
(lp414
sg134
I575
ssVRegular Jan 13 15, 09:33
p415
(dp416
g7
(lp417
sg9
(lp418
sg11
(lp419
(dp420
g14
(lp421
(dp422
g19
I00
sg20
I255
sg21
I502
sa(dp423
g19
I00
sg20
I255
sg21
I490
sa(dp424
g17
Vcurve
p425
sg19
I01
sg20
I266
sg21
I478
sa(dp426
g17
Vline
p427
sg19
I01
sg20
I288
sg21
I455
sa(dp428
g19
I00
sg20
I298
sg21
I443
sa(dp429
g19
I00
sg20
I310
sg21
I442
sa(dp430
g17
Vcurve
p431
sg19
I01
sg20
I322
sg21
I452
sa(dp432
g19
I00
sg20
I387
sg21
I506
sa(dp433
g19
I00
sg20
I395
sg21
I598
sa(dp434
g17
Vcurve
p435
sg19
I01
sg20
I340
sg21
I663
sa(dp436
g19
I00
sg20
I285
sg21
I728
sa(dp437
g19
I00
sg20
I194
sg21
I736
sa(dp438
g17
Vcurve
p439
sg19
I01
sg20
I129
sg21
I682
sa(dp440
g19
I00
sg20
I64
sg21
I627
sa(dp441
g19
I00
sg20
I55
sg21
I537
sa(dp442
g17
Vcurve
p443
sg19
I01
sg20
I123
sg21
I455
sa(dp444
g17
Vline
p445
sg19
I01
sg20
I487
sg21
I16
sa(dp446
g19
I00
sg20
I497
sg21
I3
sa(dp447
g19
I00
sg20
I510
sg21
I2
sa(dp448
g17
Vcurve
p449
sg19
I01
sg20
I522
sg21
I13
sa(dp450
g17
Vline
p451
sg19
I01
sg20
I545
sg21
I33
sa(dp452
g19
I00
sg20
I557
sg21
I43
sa(dp453
g19
I00
sg20
I558
sg21
I56
sa(dp454
g17
Vcurve
p455
sg19
I01
sg20
I547
sg21
I68
sa(dp456
g17
Vline
p457
sg19
I01
sg20
F189.37
sg21
F504.603
sa(dp458
g19
I00
sg20
F152.48
sg21
F549.778
sa(dp459
g19
I00
sg20
F156.565
sg21
F598.775
sa(dp460
g17
Vcurve
p461
sg19
I01
sg20
F184.551
sg21
F622.455
sa(dp462
g19
I00
sg20
F215.277
sg21
F648.022
sa(dp463
g19
I00
sg20
F246.753
sg21
F645.228
sa(dp464
g17
Vcurve
p465
sg19
I01
sg20
F274.349
sg21
F612.615
sa(dp466
g19
I00
sg20
F298.592
sg21
F583.965
sa(dp467
g19
I00
sg20
I294
sg21
I534
sa(dp468
g17
Vcurve
p469
sg19
I01
sg20
F266.45
sg21
F511.543
sasa(dp470
g14
(lp471
(dp472
g19
I00
sg20
I406
sg21
I117
sa(dp473
g19
I00
sg20
I340
sg21
I57
sa(dp474
g17
Vcurve
p475
sg19
I01
sg20
I268
sg21
I57
sa(dp476
g19
I00
sg20
F197.71
sg21
I57
sa(dp477
g19
I00
sg20
I136
sg21
F120.42
sa(dp478
g17
Vcurve
p479
sg19
I01
sg20
I136
sg21
I204
sa(dp480
g19
I00
sg20
I136
sg21
F267.753
sa(dp481
g19
I00
sg20
F171.06
sg21
F322.395
sa(dp482
g17
Vcurve
p483
sg19
I00
sg20
I257
sg21
I395
sa(dp484
g17
Vline
p485
sg19
I00
sg20
I188
sg21
I451
sa(dp486
g19
I00
sg20
I102
sg21
I374
sa(dp487
g19
I00
sg20
I50
sg21
I295
sa(dp488
g17
Vcurve
p489
sg19
I01
sg20
I50
sg21
I204
sa(dp490
g19
I00
sg20
I50
sg21
F79.735
sa(dp491
g19
I00
sg20
F147.601
sg21
I-21
sa(dp492
g17
Vcurve
p493
sg19
I01
sg20
I268
sg21
I-21
sa(dp494
g19
I00
sg20
I381
sg21
I-21
sa(dp495
g19
I00
sg20
I471
sg21
I67
sa(dp496
g17
Vcurve
p497
sg19
I01
sg20
I537
sg21
I154
sa(dp498
g19
I00
sg20
I547
sg21
I166
sa(dp499
g19
I00
sg20
I546
sg21
I178
sa(dp500
g17
Vcurve
p501
sg19
I01
sg20
I536
sg21
I189
sa(dp502
g17
Vline
p503
sg19
I01
sg20
I516
sg21
I213
sa(dp504
g19
I00
sg20
I505
sg21
I226
sa(dp505
g19
I00
sg20
I492
sg21
I226
sa(dp506
g17
Vcurve
p507
sg19
I01
sg20
I480
sg21
I212
sasasg128
(dp508
sg130
Vampersand
p509
sg132
(lp510
sg134
I575
ssVRegular Jan 14 15, 12:09
p511
(dp512
g7
(lp513
sg9
(lp514
sg11
(lp515
(dp516
g14
(lp517
(dp518
g17
Vline
p519
sg19
I00
sg20
F507.088
sg21
F116.725
sa(dp520
g19
I00
sg20
F517.551
sg21
F128.995
sa(dp521
g19
I00
sg20
F527.523
sg21
F141.508
sa(dp522
g17
Vcurve
p523
sg19
I00
sg20
I537
sg21
I154
sa(dp524
g19
I00
sg20
I547
sg21
I166
sa(dp525
g19
I00
sg20
I546
sg21
I178
sa(dp526
g17
Vcurve
p527
sg19
I00
sg20
I536
sg21
I189
sa(dp528
g17
Vline
p529
sg19
I01
sg20
I516
sg21
I213
sa(dp530
g19
I00
sg20
I505
sg21
I226
sa(dp531
g19
I00
sg20
I492
sg21
I226
sa(dp532
g17
Vcurve
p533
sg19
I01
sg20
I480
sg21
I212
sa(dp534
g17
Vline
p535
sg19
I00
sg20
F454.745
sg21
F180.627
sa(dp536
g17
Vline
p537
sg19
I01
sg20
F189.37
sg21
F504.603
sa(dp538
g19
I00
sg20
F152.48
sg21
F549.778
sa(dp539
g19
I00
sg20
F156.565
sg21
F598.775
sa(dp540
g17
Vcurve
p541
sg19
I01
sg20
F184.551
sg21
F622.455
sa(dp542
g19
I00
sg20
F215.277
sg21
F648.022
sa(dp543
g19
I00
sg20
F246.753
sg21
F645.228
sa(dp544
g17
Vcurve
p545
sg19
I01
sg20
F274.349
sg21
F612.615
sa(dp546
g19
I00
sg20
F298.592
sg21
F583.965
sa(dp547
g19
I00
sg20
I294
sg21
I534
sa(dp548
g17
Vcurve
p549
sg19
I01
sg20
F266.45
sg21
F511.543
sa(dp550
g19
I00
sg20
I255
sg21
I502
sa(dp551
g19
I00
sg20
I255
sg21
I490
sa(dp552
g17
Vcurve
p553
sg19
I01
sg20
I266
sg21
I478
sa(dp554
g17
Vline
p555
sg19
I00
sg20
I288
sg21
I455
sa(dp556
g19
I00
sg20
I298
sg21
I443
sa(dp557
g19
I00
sg20
I310
sg21
I442
sa(dp558
g17
Vcurve
p559
sg19
I01
sg20
I322
sg21
I452
sa(dp560
g19
I00
sg20
I387
sg21
I506
sa(dp561
g19
I00
sg20
I395
sg21
I598
sa(dp562
g17
Vcurve
p563
sg19
I01
sg20
I340
sg21
I663
sa(dp564
g19
I00
sg20
I285
sg21
I728
sa(dp565
g19
I00
sg20
I194
sg21
I736
sa(dp566
g17
Vcurve
p567
sg19
I01
sg20
I129
sg21
I682
sa(dp568
g19
I00
sg20
I64
sg21
I627
sa(dp569
g19
I00
sg20
I55
sg21
I537
sa(dp570
g17
Vcurve
p571
sg19
I01
sg20
I123
sg21
I455
sa(dp572
g17
Vline
p573
sg19
I00
sg20
F153.562
sg21
F418.14
sa(dp574
g19
I00
sg20
F88.316
sg21
F351.386
sa(dp575
g19
I00
sg20
I50
sg21
F282.114
sa(dp576
g17
Vcurve
p577
sg19
I01
sg20
I50
sg21
I204
sa(dp578
g19
I00
sg20
I50
sg21
F79.735
sa(dp579
g19
I00
sg20
F147.601
sg21
I-21
sa(dp580
g17
Vcurve
p581
sg19
I01
sg20
I268
sg21
I-21
sa(dp582
g19
I00
sg20
F337.984
sg21
I-21
sa(dp583
g19
I00
sg20
F399.145
sg21
F12.754
sa(dp584
g17
Vcurve
p585
sg19
I00
sg20
F451.248
sg21
F59.119
sa(dp586
g17
Vline
p587
sg19
I00
sg20
I487
sg21
I16
sa(dp588
g19
I00
sg20
I497
sg21
I3
sa(dp589
g19
I00
sg20
I510
sg21
I2
sa(dp590
g17
Vcurve
p591
sg19
I01
sg20
I522
sg21
I13
sa(dp592
g17
Vline
p593
sg19
I01
sg20
I545
sg21
I33
sa(dp594
g19
I00
sg20
I557
sg21
I43
sa(dp595
g19
I00
sg20
I558
sg21
I56
sa(dp596
g17
Vcurve
p597
sg19
I00
sg20
I547
sg21
I68
sasa(dp598
g14
(lp599
(dp600
g17
Vline
p601
sg19
I00
sg20
F399.6
sg21
F121.408
sa(dp602
g19
I00
sg20
F355.795
sg21
F80.514
sa(dp603
g19
I00
sg20
F313.073
sg21
I57
sa(dp604
g17
Vcurve
p605
sg19
I01
sg20
I268
sg21
I57
sa(dp606
g19
I00
sg20
F197.71
sg21
I57
sa(dp607
g19
I00
sg20
I136
sg21
F120.42
sa(dp608
g17
Vcurve
p609
sg19
I01
sg20
I136
sg21
I204
sa(dp610
g19
I00
sg20
I136
sg21
F254.271
sa(dp611
g19
I00
sg20
F157.8
sg21
F298.877
sa(dp612
g17
Vcurve
p613
sg19
I00
sg20
F209.156
sg21
F351.093
sasasg128
(dp614
sg130
Vampersand
p615
sg132
(lp616
sg134
I575
ssVRegular Jan 27 14, 23:41
p617
(dp618
g7
(lp619
sg9
(lp620
sg11
(lp621
(dp622
g14
(lp623
(dp624
g19
I00
sg20
I164
sg21
I77
sa(dp625
g19
I00
sg20
I136
sg21
I108
sa(dp626
g17
Vcurve
p627
sg19
I01
sg20
I136
sg21
I164
sa(dp628
g19
I00
sg20
I136
sg21
I212
sa(dp629
g19
I00
sg20
I164
sg21
I260
sa(dp630
g17
Vcurve
p631
sg19
I00
sg20
I216
sg21
I301
sa(dp632
g17
Vline
p633
sg19
I00
sg20
I305
sg21
I122
sa(dp634
g19
I00
sg20
I276
sg21
I93
sa(dp635
g19
I00
sg20
I244
sg21
I77
sa(dp636
g17
Vcurve
p637
sg19
I01
sg20
I214
sg21
I77
sasa(dp638
g14
(lp639
(dp640
g17
Vline
p641
sg19
I01
sg20
I347
sg21
I680
sa(dp642
g19
I00
sg20
I347
sg21
I695
sa(dp643
g19
I00
sg20
I341
sg21
I706
sa(dp644
g17
Vcurve
p645
sg19
I01
sg20
I325
sg21
I707
sa(dp646
g19
I00
sg20
I309
sg21
I709
sa(dp647
g19
I00
sg20
I285
sg21
I710
sa(dp648
g17
Vcurve
p649
sg19
I01
sg20
I255
sg21
I710
sa(dp650
g19
I00
sg20
I164
sg21
I710
sa(dp651
g19
I00
sg20
I99
sg21
I678
sa(dp652
g17
Vcurve
p653
sg19
I01
sg20
I99
sg21
I585
sa(dp654
g19
I00
sg20
I99
sg21
I532
sa(dp655
g19
I00
sg20
I125
sg21
I484
sa(dp656
g17
Vcurve
p657
sg19
I01
sg20
I151
sg21
I430
sa(dp658
g17
Vline
p659
sg19
I00
sg20
I180
sg21
I373
sa(dp660
g19
I00
sg20
I96
sg21
I314
sa(dp661
g19
I00
sg20
I51
sg21
I240
sa(dp662
g17
Vcurve
p663
sg19
I01
sg20
I51
sg21
I164
sa(dp664
g19
I00
sg20
I51
sg21
I58
sa(dp665
g19
I00
sg20
I109
sg21
I0
sa(dp666
g17
Vcurve
p667
sg19
I01
sg20
I214
sg21
I0
sa(dp668
g19
I00
sg20
I268
sg21
I0
sa(dp669
g19
I00
sg20
I314
sg21
I17
sa(dp670
g17
Vcurve
p671
sg19
I00
sg20
I344
sg21
I47
sa(dp672
g19
I00
sg20
I366
sg21
I7
sa(dp673
g19
I00
sg20
I399
sg21
I0
sa(dp674
g17
Vcurve
p675
sg19
I01
sg20
I449
sg21
I0
sa(dp676
g17
Vline
p677
sg19
I01
sg20
I491
sg21
I0
sa(dp678
g19
I00
sg20
I507
sg21
I0
sa(dp679
g19
I00
sg20
I516
sg21
I9
sa(dp680
g17
Vcurve
p681
sg19
I01
sg20
I516
sg21
I25
sa(dp682
g17
Vline
p683
sg19
I01
sg20
I516
sg21
I52
sa(dp684
g19
I00
sg20
I516
sg21
I68
sa(dp685
g19
I00
sg20
I507
sg21
I77
sa(dp686
g17
Vcurve
p687
sg19
I01
sg20
I491
sg21
I77
sa(dp688
g17
Vline
p689
sg19
I01
sg20
I451
sg21
I77
sa(dp690
g19
I00
sg20
I424
sg21
I77
sa(dp691
g19
I00
sg20
I420
sg21
I79
sa(dp692
g17
Vcurve
p693
sg19
I00
sg20
I405
sg21
I108
sa(dp694
g17
Vline
p695
sg19
I01
sg20
I506
sg21
I209
sa(dp696
g19
I00
sg20
I518
sg21
I221
sa(dp697
g19
I00
sg20
I518
sg21
I234
sa(dp698
g17
Vcurve
p699
sg19
I01
sg20
I506
sg21
I245
sa(dp700
g17
Vline
p701
sg19
I01
sg20
I483
sg21
I265
sa(dp702
g19
I00
sg20
I471
sg21
I276
sa(dp703
g19
I00
sg20
I459
sg21
I276
sa(dp704
g17
Vcurve
p705
sg19
I01
sg20
I447
sg21
I264
sa(dp706
g17
Vline
p707
sg19
I00
sg20
I367
sg21
I184
sa(dp708
g17
Vline
p709
sg19
I01
sg20
I227
sg21
I465
sa(dp710
g19
I00
sg20
I212
sg21
I495
sa(dp711
g19
I00
sg20
I180
sg21
I557
sa(dp712
g17
Vcurve
p713
sg19
I01
sg20
I180
sg21
I575
sa(dp714
g19
I00
sg20
I179
sg21
I616
sa(dp715
g19
I00
sg20
I212
sg21
I634
sa(dp716
g17
Vcurve
p717
sg19
I01
sg20
I255
sg21
I634
sa(dp718
g19
I00
sg20
I281
sg21
I634
sa(dp719
g19
I00
sg20
I302
sg21
I633
sa(dp720
g17
Vcurve
p721
sg19
I01
sg20
I318
sg21
I631
sa(dp722
g19
I00
sg20
I335
sg21
I630
sa(dp723
g19
I00
sg20
I344
sg21
I637
sa(dp724
g17
Vcurve
p725
sg19
I01
sg20
I345
sg21
I653
sasasg128
(dp726
sg130
Vampersand
p727
sg132
(lp728
sg134
I575
ssVRegular Jan 27 15, 10:53
p729
(dp730
g7
(lp731
sg9
(lp732
sg11
(lp733
(dp734
g14
(lp735
(dp736
g17
Vline
p737
sg19
I00
sg20
I511
sg21
I112
sa(dp738
g17
Vline
p739
sg19
I01
sg20
I555
sg21
I156
sa(dp740
g19
I00
sg20
I566
sg21
I167
sa(dp741
g19
I00
sg20
I567
sg21
I179
sa(dp742
g17
Vcurve
p743
sg19
I01
sg20
I557
sg21
I191
sa(dp744
g17
Vline
p745
sg19
I01
sg20
I536
sg21
I216
sa(dp746
g19
I00
sg20
I525
sg21
I229
sa(dp747
g19
I00
sg20
I512
sg21
I229
sa(dp748
g17
Vcurve
p749
sg19
I01
sg20
I501
sg21
I218
sa(dp750
g17
Vline
p751
sg19
I00
sg20
I459
sg21
I176
sa(dp752
g17
Vline
p753
sg19
I01
sg20
I189
sg21
I505
sa(dp754
g19
I00
sg20
I152
sg21
I550
sa(dp755
g19
I00
sg20
I157
sg21
I599
sa(dp756
g17
Vcurve
p757
sg19
I01
sg20
I185
sg21
I622
sa(dp758
g19
I00
sg20
I198
sg21
I634
sa(dp759
g19
I00
sg20
I212
sg21
I640
sa(dp760
g17
Vcurve
p761
sg19
I01
sg20
I226
sg21
I640
sa(dp762
g19
I00
sg20
I262
sg21
I640
sa(dp763
g19
I00
sg20
I290
sg21
I609
sa(dp764
g17
Vcurve
p765
sg19
I01
sg20
I290
sg21
I567
sa(dp766
g19
I00
sg20
I290
sg21
I551
sa(dp767
g19
I00
sg20
I299
sg21
I542
sa(dp768
g17
Vcurve
p769
sg19
I01
sg20
I315
sg21
I542
sa(dp770
g17
Vline
p771
sg19
I01
sg20
I352
sg21
I542
sa(dp772
g19
I00
sg20
I368
sg21
I542
sa(dp773
g19
I00
sg20
I377
sg21
I551
sa(dp774
g17
Vcurve
p775
sg19
I01
sg20
I377
sg21
I567
sa(dp776
g19
I00
sg20
I377
sg21
I653
sa(dp777
g19
I00
sg20
I312
sg21
I718
sa(dp778
g17
Vcurve
p779
sg19
I01
sg20
I225
sg21
I718
sa(dp780
g19
I00
sg20
I192
sg21
I718
sa(dp781
g19
I00
sg20
I158
sg21
I706
sa(dp782
g17
Vcurve
p783
sg19
I01
sg20
I129
sg21
I682
sa(dp784
g19
I00
sg20
I64
sg21
I627
sa(dp785
g19
I00
sg20
I55
sg21
I537
sa(dp786
g17
Vcurve
p787
sg19
I01
sg20
I123
sg21
I455
sa(dp788
g17
Vline
p789
sg19
I00
sg20
I154
sg21
I418
sa(dp790
g19
I00
sg20
I88
sg21
I351
sa(dp791
g19
I00
sg20
I50
sg21
I282
sa(dp792
g17
Vcurve
p793
sg19
I01
sg20
I50
sg21
I204
sa(dp794
g19
I00
sg20
I50
sg21
I80
sa(dp795
g19
I00
sg20
I148
sg21
I-21
sa(dp796
g17
Vcurve
p797
sg19
I01
sg20
I268
sg21
I-21
sa(dp798
g19
I00
sg20
I338
sg21
I-21
sa(dp799
g19
I00
sg20
I399
sg21
I13
sa(dp800
g17
Vcurve
p801
sg19
I00
sg20
I451
sg21
I59
sa(dp802
g17
Vline
p803
sg19
I00
sg20
I487
sg21
I16
sa(dp804
g19
I00
sg20
I497
sg21
I3
sa(dp805
g19
I00
sg20
I510
sg21
I2
sa(dp806
g17
Vcurve
p807
sg19
I01
sg20
I522
sg21
I13
sa(dp808
g17
Vline
p809
sg19
I01
sg20
I545
sg21
I33
sa(dp810
g19
I00
sg20
I557
sg21
I43
sa(dp811
g19
I00
sg20
I558
sg21
I56
sa(dp812
g17
Vcurve
p813
sg19
I00
sg20
I547
sg21
I68
sasa(dp814
g14
(lp815
(dp816
g17
Vline
p817
sg19
I00
sg20
I400
sg21
I121
sa(dp818
g19
I00
sg20
I356
sg21
I81
sa(dp819
g19
I00
sg20
I313
sg21
I57
sa(dp820
g17
Vcurve
p821
sg19
I01
sg20
I268
sg21
I57
sa(dp822
g19
I00
sg20
I198
sg21
I57
sa(dp823
g19
I00
sg20
I136
sg21
I120
sa(dp824
g17
Vcurve
p825
sg19
I01
sg20
I136
sg21
I204
sa(dp826
g19
I00
sg20
I136
sg21
I254
sa(dp827
g19
I00
sg20
I158
sg21
I299
sa(dp828
g17
Vcurve
p829
sg19
I00
sg20
I209
sg21
I351
sasasg128
(dp830
sg130
Vampersand
p831
sg132
(lp832
sg134
I575
ssVRegular Jan 8 15, 10:18
p833
(dp834
g7
(lp835
sg9
(lp836
sg11
(lp837
(dp838
g14
(lp839
(dp840
g17
Vline
p841
sg19
I01
sg20
I394
sg21
I310
sa(dp842
g19
I00
sg20
I394
sg21
I161
sa(dp843
g19
I00
sg20
I336
sg21
I68
sa(dp844
g17
Vcurve
p845
sg19
I01
sg20
I243
sg21
I68
sa(dp846
g19
I00
sg20
I175
sg21
I68
sa(dp847
g19
I00
sg20
I132
sg21
I107
sa(dp848
g17
Vcurve
p849
sg19
I01
sg20
I132
sg21
I170
sa(dp850
g19
I00
sg20
I132
sg21
I210
sa(dp851
g19
I00
sg20
I146
sg21
I239
sa(dp852
g17
Vcurve
p853
sg19
I01
sg20
I177
sg21
I270
sa(dp854
g17
Vline
p855
sg19
I01
sg20
I302
sg21
I395
sa(dp856
g19
I00
sg20
I349
sg21
I442
sa(dp857
g19
I00
sg20
I368
sg21
I493
sa(dp858
g17
Vcurve
p859
sg19
I01
sg20
I368
sg21
I549
sa(dp860
g19
I00
sg20
I368
sg21
I646
sa(dp861
g19
I00
sg20
I312
sg21
I706
sa(dp862
g17
Vcurve
p863
sg19
I01
sg20
I221
sg21
I706
sa(dp864
g19
I00
sg20
I129
sg21
I706
sa(dp865
g19
I00
sg20
I72
sg21
I643
sa(dp866
g17
Vcurve
p867
sg19
I01
sg20
I72
sg21
I542
sa(dp868
g19
I00
sg20
I72
sg21
I488
sa(dp869
g19
I00
sg20
I88
sg21
I439
sa(dp870
g17
Vcurve
p871
sg19
I01
sg20
I127
sg21
I397
sa(dp872
g17
Vline
p873
sg19
I01
sg20
I465
sg21
I31
sa(dp874
g19
I00
sg20
I476
sg21
I19
sa(dp875
g19
I00
sg20
I488
sg21
I18
sa(dp876
g17
Vcurve
p877
sg19
I01
sg20
I500
sg21
I30
sa(dp878
g17
Vline
p879
sg19
I01
sg20
I523
sg21
I53
sa(dp880
g19
I00
sg20
I534
sg21
I64
sa(dp881
g19
I00
sg20
I534
sg21
I76
sa(dp882
g17
Vcurve
p883
sg19
I01
sg20
I523
sg21
I88
sa(dp884
g17
Vline
p885
sg19
I01
sg20
I190
sg21
I450
sa(dp886
g19
I00
sg20
I162
sg21
I479
sa(dp887
g19
I00
sg20
I150
sg21
I514
sa(dp888
g17
Vcurve
p889
sg19
I01
sg20
I150
sg21
I548
sa(dp890
g19
I00
sg20
I150
sg21
I603
sa(dp891
g19
I00
sg20
I177
sg21
I638
sa(dp892
g17
Vcurve
p893
sg19
I01
sg20
I221
sg21
I638
sa(dp894
g19
I00
sg20
I264
sg21
I638
sa(dp895
g19
I00
sg20
I290
sg21
I605
sa(dp896
g17
Vcurve
p897
sg19
I01
sg20
I290
sg21
I553
sa(dp898
g19
I00
sg20
I290
sg21
I521
sa(dp899
g19
I00
sg20
I276
sg21
I485
sa(dp900
g17
Vcurve
p901
sg19
I01
sg20
I241
sg21
I450
sa(dp902
g17
Vline
p903
sg19
I01
sg20
I116
sg21
I325
sa(dp904
g19
I00
sg20
I70
sg21
I279
sa(dp905
g19
I00
sg20
I46
sg21
I230
sa(dp906
g17
Vcurve
p907
sg19
I01
sg20
I46
sg21
I170
sa(dp908
g19
I00
sg20
I46
sg21
I59
sa(dp909
g19
I00
sg20
I122
sg21
I-10
sa(dp910
g17
Vcurve
p911
sg19
I01
sg20
I243
sg21
I-10
sa(dp912
g19
I00
sg20
I389
sg21
I-10
sa(dp913
g19
I00
sg20
I480
sg21
I113
sa(dp914
g17
Vcurve
p915
sg19
I01
sg20
I480
sg21
I310
sa(dp916
g17
Vline
p917
sg19
I01
sg20
I480
sg21
I355
sa(dp918
g19
I00
sg20
I480
sg21
I371
sa(dp919
g19
I00
sg20
I471
sg21
I380
sa(dp920
g17
Vcurve
p921
sg19
I01
sg20
I455
sg21
I380
sa(dp922
g17
Vline
p923
sg19
I01
sg20
I419
sg21
I380
sa(dp924
g19
I00
sg20
I403
sg21
I380
sa(dp925
g19
I00
sg20
I394
sg21
I371
sa(dp926
g17
Vcurve
p927
sg19
I01
sg20
I394
sg21
I355
sasasg128
(dp928
sg130
Vampersand
p929
sg132
(lp930
sg134
I575
ssVbackground
p931
(dp932
g7
(lp933
sg9
(lp934
sg11
(lp935
(dp936
g14
(lp937
(dp938
g17
Vline
p939
sg19
I00
sg20
I247
sg21
I499
sa(dp940
g17
Vline
p941
sg19
I00
sg20
I305
sg21
I438
sa(dp942
g17
Vline
p943
sg19
I01
sg20
I322
sg21
I452
sa(dp944
g19
I00
sg20
I387
sg21
I507
sa(dp945
g19
I00
sg20
I395
sg21
I598
sa(dp946
g17
Vcurve
p947
sg19
I01
sg20
I340
sg21
I663
sa(dp948
g19
I00
sg20
I285
sg21
I728
sa(dp949
g19
I00
sg20
I194
sg21
I736
sa(dp950
g17
Vcurve
p951
sg19
I01
sg20
I129
sg21
I682
sa(dp952
g19
I00
sg20
I64
sg21
I627
sa(dp953
g19
I00
sg20
I55
sg21
I537
sa(dp954
g17
Vcurve
p955
sg19
I01
sg20
I123
sg21
I455
sa(dp956
g17
Vline
p957
sg19
I00
sg20
I503
sg21
I-4
sa(dp958
g17
Vline
p959
sg19
I00
sg20
I563
sg21
I49
sa(dp960
g17
Vline
p961
sg19
I01
sg20
F189.37
sg21
F504.603
sa(dp962
g19
I00
sg20
F152.48
sg21
F549.778
sa(dp963
g19
I00
sg20
F156.565
sg21
F598.775
sa(dp964
g17
Vcurve
p965
sg19
I01
sg20
F184.551
sg21
F622.455
sa(dp966
g19
I00
sg20
F215.277
sg21
F648.022
sa(dp967
g19
I00
sg20
F246.753
sg21
F645.228
sa(dp968
g17
Vcurve
p969
sg19
I01
sg20
F274.349
sg21
F612.615
sa(dp970
g19
I00
sg20
F298.592
sg21
F583.965
sa(dp971
g19
I00
sg20
I294
sg21
I535
sa(dp972
g17
Vcurve
p973
sg19
I01
sg20
F266.45
sg21
F511.543
sasa(dp974
g14
(lp975
(dp976
g19
I00
sg20
I416
sg21
I127
sa(dp977
g19
I00
sg20
F345.623
sg21
I57
sa(dp978
g17
Vcurve
p979
sg19
I00
sg20
I268
sg21
I57
sa(dp980
g19
I00
sg20
F197.71
sg21
I57
sa(dp981
g19
I00
sg20
I136
sg21
F120.42
sa(dp982
g17
Vcurve
p983
sg19
I00
sg20
I136
sg21
I204
sa(dp984
g19
I00
sg20
I136
sg21
F267.753
sa(dp985
g19
I00
sg20
F171.06
sg21
F322.395
sa(dp986
g17
Vcurve
p987
sg19
I00
sg20
F223.233
sg21
F354.661
sa(dp988
g17
Vline
p989
sg19
I00
sg20
I178
sg21
I421
sa(dp990
g19
I00
sg20
I102
sg21
I374
sa(dp991
g19
I00
sg20
I50
sg21
I295
sa(dp992
g17
Vcurve
p993
sg19
I00
sg20
I50
sg21
I204
sa(dp994
g19
I00
sg20
I50
sg21
F79.735
sa(dp995
g19
I00
sg20
F147.601
sg21
I-21
sa(dp996
g17
Vcurve
p997
sg19
I00
sg20
I268
sg21
I-21
sa(dp998
g19
I00
sg20
F388.399
sg21
I-21
sa(dp999
g19
I00
sg20
I483
sg21
I80
sa(dp1000
g17
Vcurve
p1001
sg19
I00
sg20
I551
sg21
I172
sa(dp1002
g17
Vline
p1003
sg19
I00
sg20
I498
sg21
I234
sasa(dp1004
g14
(lp1005
(dp1006
g19
I00
sg20
I372
sg21
I43
sa(dp1007
g19
I00
sg20
I466
sg21
I143
sa(dp1008
g17
Vcurve
p1009
sg19
I01
sg20
I466
sg21
I267
sa(dp1010
g19
I00
sg20
I466
sg21
I390
sa(dp1011
g19
I00
sg20
I372
sg21
I490
sa(dp1012
g17
Vcurve
p1013
sg19
I01
sg20
I255
sg21
I490
sa(dp1014
g19
I00
sg20
I138
sg21
I490
sa(dp1015
g19
I00
sg20
I44
sg21
I390
sa(dp1016
g17
Vcurve
p1017
sg19
I01
sg20
I44
sg21
I267
sa(dp1018
g19
I00
sg20
I44
sg21
I143
sa(dp1019
g19
I00
sg20
I138
sg21
I43
sa(dp1020
g17
Vcurve
p1021
sg19
I01
sg20
I255
sg21
I43
sasasg128
(dp1022
sg130
Vampersand
p1023
sg132
(lp1024
sg134
I575
sss."
EndChar

StartChar: asciicircum
Encoding: 94 94 151
GlifName: asciicircum
Width: 575
VWidth: 0
Flags: W
LayerCount: 2
Fore
SplineSet
29 499 m 258
 17 487 18 474 30 463 c 258
 53 443 l 258
 65 432 77 432 88 444 c 258
 272 633 l 258
 275 636 281 642 288 642 c 256
 295 642 298 639 303 633 c 258
 487 444 l 258
 499 432 511 432 523 443 c 258
 545 463 l 258
 558 474 558 487 546 499 c 258
 357 682 l 258
 337 701 318 719 288 719 c 256
 258 719 239 702 218 682 c 258
 29 499 l 258
EndSplineSet
PickledDataWithLists: "(dp0
Vcom.schriftgestaltung.Glyphs.lastChange
p1
V2015-12-22 14:26:04 +0000
p2
s."
EndChar

StartChar: asciitilde
Encoding: 126 126 152
GlifName: asciitilde
Width: 575
VWidth: 0
Flags: W
LayerCount: 2
Fore
SplineSet
486 308 m 258
 469 308 459 300 459 286 c 256
 459 241 442 216 412 216 c 256
 388 216 354 238 315 277 c 256
 261 331 207 361 164 361 c 256
 82 361 37 310 37 219 c 256
 37 202 46 193 61 193 c 258
 89 193 l 258
 107 193 116 201 116 215 c 256
 116 260 133 284 164 284 c 256
 187 284 221 263 261 223 c 256
 315 169 368 140 412 140 c 256
 493 140 538 190 538 282 c 256
 538 299 530 308 515 308 c 258
 486 308 l 258
EndSplineSet
PickledDataWithLists: "(dp0
Vcom.schriftgestaltung.Glyphs.lastChange
p1
V2015-12-22 16:32:54 +0000
p2
sVcom.typemytype.robofont.layerData
p3
(dp4
VRegular Dec 15 13, 18:52
p5
(dp6
Vanchors
p7
(lp8
sVcomponents
p9
(lp10
sVcontours
p11
(lp12
(dp13
Vpoints
p14
(lp15
(dp16
VsegmentType
p17
Vline
p18
sVsmooth
p19
I01
sVx
p20
I486
sVy
p21
I288
sa(dp22
g19
I00
sg20
I475
sg21
I288
sa(dp23
g19
I00
sg20
I465
sg21
I280
sa(dp24
g17
Vcurve
p25
sg19
I01
sg20
I459
sg21
I266
sa(dp26
g19
I00
sg20
I449
sg21
I240
sa(dp27
g19
I00
sg20
I427
sg21
I226
sa(dp28
g17
Vcurve
p29
sg19
I01
sg20
I397
sg21
I226
sa(dp30
g19
I00
sg20
I377
sg21
I226
sa(dp31
g19
I00
sg20
I348
sg21
I244
sa(dp32
g17
Vcurve
p33
sg19
I01
sg20
I315
sg21
I277
sa(dp34
g19
I00
sg20
I267
sg21
I325
sa(dp35
g19
I00
sg20
I219
sg21
I351
sa(dp36
g17
Vcurve
p37
sg19
I01
sg20
I179
sg21
I351
sa(dp38
g19
I00
sg20
I101
sg21
I351
sa(dp39
g19
I00
sg20
I51
sg21
I311
sa(dp40
g17
Vcurve
p41
sg19
I01
sg20
I37
sg21
I239
sa(dp42
g19
I00
sg20
I34
sg21
I222
sa(dp43
g19
I00
sg20
I43
sg21
I213
sa(dp44
g17
Vcurve
p45
sg19
I01
sg20
I61
sg21
I213
sa(dp46
g17
Vline
p47
sg19
I01
sg20
I89
sg21
I213
sa(dp48
g19
I00
sg20
I101
sg21
I213
sa(dp49
g19
I00
sg20
I110
sg21
I221
sa(dp50
g17
Vcurve
p51
sg19
I01
sg20
I116
sg21
I235
sa(dp52
g19
I00
sg20
I127
sg21
I260
sa(dp53
g19
I00
sg20
I149
sg21
I274
sa(dp54
g17
Vcurve
p55
sg19
I01
sg20
I179
sg21
I274
sa(dp56
g19
I00
sg20
I199
sg21
I274
sa(dp57
g19
I00
sg20
I228
sg21
I256
sa(dp58
g17
Vcurve
p59
sg19
I01
sg20
I261
sg21
I223
sa(dp60
g19
I00
sg20
I308
sg21
I176
sa(dp61
g19
I00
sg20
I356
sg21
I150
sa(dp62
g17
Vcurve
p63
sg19
I01
sg20
I397
sg21
I150
sa(dp64
g19
I00
sg20
I474
sg21
I150
sa(dp65
g19
I00
sg20
I524
sg21
I190
sa(dp66
g17
Vcurve
p67
sg19
I01
sg20
I538
sg21
I262
sa(dp68
g19
I00
sg20
I541
sg21
I279
sa(dp69
g19
I00
sg20
I533
sg21
I288
sa(dp70
g17
Vcurve
p71
sg19
I01
sg20
I515
sg21
I288
sasasVlib
p72
(dp73
sVname
p74
Vasciitilde
p75
sVunicodes
p76
(lp77
sVwidth
p78
I575
sss."
EndChar

